<svg xmlns="http://www.w3.org/2000/svg" width="498.777" height="498.777" viewBox="0 0 498.777 498.777">
  <path id="Path_3168" data-name="Path 3168" d="M249.389,0c5.361,0,10.33,11.076,15.6,11.417,5.345.345,11.7-10,16.947-9.311,5.307.692,8.8,12.32,13.99,13.347,5.246,1.038,12.9-8.382,18.019-7.014,5.163,1.38,7.095,13.365,12.116,15.069,5.057,1.716,13.883-6.616,18.785-4.583,4.929,2.044,5.27,14.179,10.03,16.531,4.782,2.362,14.625-4.739,19.224-2.079,4.614,2.67,3.364,14.745,7.78,17.7s15.114-2.793,19.331.447,1.412,15.055,5.41,18.564,15.346-.808,19.109,2.955-.557,15.107,2.955,19.109,15.318,1.187,18.564,5.41-2.517,14.9.447,19.331,15.032,3.166,17.7,7.78c2.66,4.6-4.442,14.442-2.079,19.224,2.352,4.76,14.487,5.1,16.531,10.03,2.032,4.9-6.3,13.728-4.583,18.785,1.7,5.021,13.689,6.954,15.069,12.116,1.368,5.119-8.052,12.773-7.014,18.019,1.027,5.194,12.655,8.683,13.347,13.99.684,5.246-9.656,11.6-9.311,16.947.341,5.275,11.417,10.244,11.417,15.6s-11.076,10.33-11.417,15.6c-.345,5.345,10,11.7,9.311,16.947-.692,5.307-12.32,8.8-13.347,13.99-1.038,5.246,8.382,12.9,7.014,18.019-1.38,5.162-13.365,7.094-15.069,12.116-1.716,5.057,6.616,13.883,4.583,18.785-2.044,4.929-14.179,5.27-16.531,10.03-2.363,4.782,4.74,14.625,2.079,19.224-2.67,4.614-14.745,3.364-17.7,7.78s2.793,15.114-.447,19.331-15.055,1.412-18.564,5.41.808,15.346-2.955,19.109-15.107-.557-19.109,2.955-1.187,15.318-5.41,18.564-14.9-2.517-19.331.447-3.166,15.032-7.78,17.7c-4.6,2.66-14.442-4.442-19.224-2.079-4.76,2.352-5.1,14.487-10.03,16.531-4.9,2.032-13.728-6.3-18.785-4.583-5.021,1.7-6.954,13.689-12.116,15.069-5.119,1.368-12.773-8.052-18.019-7.014-5.194,1.027-8.683,12.655-13.99,13.347-5.246.684-11.6-9.656-16.947-9.311-5.275.341-10.244,11.417-15.6,11.417s-10.33-11.076-15.6-11.417c-5.345-.345-11.7,10-16.947,9.311-5.307-.692-8.8-12.32-13.99-13.347-5.246-1.038-12.9,8.382-18.019,7.014-5.163-1.38-7.095-13.365-12.116-15.069-5.057-1.716-13.883,6.616-18.785,4.583-4.93-2.044-5.27-14.179-10.03-16.531-4.782-2.363-14.625,4.74-19.224,2.079-4.614-2.67-3.364-14.745-7.78-17.7s-15.114,2.793-19.331-.447-1.412-15.055-5.41-18.564-15.346.808-19.109-2.955.557-15.107-2.955-19.109-15.318-1.187-18.564-5.41,2.517-14.9-.447-19.331-15.032-3.166-17.7-7.78c-2.66-4.6,4.442-14.442,2.079-19.224-2.352-4.76-14.487-5.1-16.531-10.03-2.033-4.9,6.3-13.728,4.583-18.785-1.7-5.021-13.689-6.954-15.069-12.116-1.368-5.119,8.052-12.773,7.014-18.019-1.027-5.194-12.655-8.683-13.347-13.99-.684-5.246,9.656-11.6,9.311-16.947C11.076,259.719,0,254.75,0,249.389s11.076-10.33,11.417-15.6c.345-5.345-10-11.7-9.311-16.947.692-5.307,12.32-8.8,13.347-13.99,1.038-5.246-8.382-12.9-7.014-18.019,1.38-5.163,13.365-7.095,15.069-12.116,1.716-5.057-6.616-13.883-4.583-18.785C20.969,149,33.1,148.657,35.456,143.9c2.362-4.782-4.739-14.625-2.079-19.224,2.67-4.614,14.745-3.364,17.7-7.78s-2.793-15.114.447-19.331,15.055-1.412,18.564-5.41-.808-15.346,2.955-19.109,15.108.557,19.109-2.955,1.187-15.318,5.41-18.564,14.9,2.517,19.331-.447,3.166-15.032,7.78-17.7c4.6-2.66,14.442,4.442,19.224,2.079,4.76-2.352,5.1-14.487,10.03-16.531,4.9-2.032,13.728,6.3,18.785,4.583,5.021-1.7,6.954-13.689,12.116-15.069,5.119-1.368,12.773,8.052,18.019,7.014,5.194-1.027,8.683-12.655,13.99-13.347,5.246-.684,11.6,9.656,16.947,9.311C239.059,11.076,244.028,0,249.389,0" fill="#f7cfa6"/>
</svg>
