<svg xmlns="http://www.w3.org/2000/svg" xmlns:xlink="http://www.w3.org/1999/xlink" width="716.379" height="716.379" viewBox="0 0 716.379 716.379">
  <defs>
    <radialGradient id="radial-gradient" cx="0.269" cy="0.168" r="0.936" gradientTransform="translate(0.256 -0.149) rotate(55.729)" gradientUnits="objectBoundingBox">
      <stop offset="0" stop-color="#ffdbbb"/>
      <stop offset="1" stop-color="#ffb76d"/>
    </radialGradient>
  </defs>
  <path id="Path_3171" data-name="Path 3171" d="M358.19,0c7.7,0,14.837,15.909,22.413,16.4,7.677.5,16.806-14.356,24.34-13.373,7.622.994,12.633,17.695,20.093,19.17,7.535,1.49,18.527-12.039,25.88-10.074,7.415,1.982,10.19,19.2,17.4,21.643,7.263,2.465,19.94-9.5,26.98-6.583,7.08,2.936,7.569,20.365,14.406,23.743,6.868,3.393,21.006-6.807,27.61-2.986,6.627,3.834,4.831,21.177,11.175,25.424,6.359,4.257,21.708-4.011,27.764.643s2.028,21.623,7.77,26.663,22.041-1.161,27.445,4.244-.8,21.7,4.244,27.445,22,1.7,26.662,7.77-3.615,21.4.643,27.764c4.247,6.343,21.59,4.548,25.424,11.175,3.821,6.6-6.379,20.742-2.986,27.61,3.378,6.837,20.807,7.326,23.743,14.406,2.919,7.04-9.048,19.717-6.583,26.98,2.448,7.212,19.662,9.987,21.643,17.4,1.965,7.353-11.565,18.345-10.074,25.88,1.475,7.46,18.176,12.471,19.17,20.093.982,7.535-13.869,16.663-13.373,24.34.489,7.576,16.4,14.713,16.4,22.413s-15.909,14.837-16.4,22.413c-.5,7.677,14.356,16.806,13.373,24.34-.994,7.622-17.695,12.633-19.17,20.093-1.49,7.535,12.039,18.527,10.074,25.88-1.982,7.415-19.2,10.19-21.643,17.4-2.465,7.263,9.5,19.94,6.583,26.98-2.936,7.08-20.365,7.569-23.743,14.406-3.393,6.868,6.807,21.006,2.986,27.61-3.834,6.627-21.177,4.831-25.424,11.175-4.257,6.359,4.011,21.708-.643,27.764s-21.622,2.028-26.663,7.77,1.161,22.041-4.244,27.445-21.7-.8-27.445,4.244-1.7,22-7.77,26.662-21.4-3.615-27.764.643c-6.343,4.247-4.547,21.59-11.175,25.424-6.6,3.821-20.742-6.379-27.61-2.986-6.837,3.378-7.326,20.807-14.406,23.743-7.04,2.919-19.717-9.048-26.98-6.583-7.212,2.448-9.987,19.662-17.4,21.643-7.353,1.965-18.345-11.565-25.88-10.074-7.46,1.475-12.471,18.176-20.093,19.17-7.535.982-16.663-13.869-24.34-13.373-7.576.489-14.713,16.4-22.413,16.4s-14.837-15.909-22.413-16.4c-7.677-.5-16.806,14.356-24.34,13.373-7.622-.994-12.633-17.695-20.093-19.17-7.535-1.49-18.527,12.039-25.88,10.074-7.415-1.982-10.19-19.2-17.4-21.643-7.263-2.465-19.94,9.5-26.98,6.583-7.08-2.936-7.569-20.365-14.406-23.743-6.868-3.393-21.006,6.807-27.61,2.986-6.627-3.834-4.831-21.177-11.175-25.424-6.359-4.257-21.708,4.011-27.764-.643s-2.028-21.622-7.77-26.663-22.04,1.161-27.445-4.244.8-21.7-4.244-27.445-22-1.7-26.662-7.77,3.615-21.4-.643-27.764c-4.247-6.343-21.59-4.547-25.424-11.175-3.821-6.6,6.379-20.742,2.986-27.61-3.378-6.837-20.807-7.326-23.743-14.406-2.919-7.04,9.047-19.717,6.583-26.98-2.447-7.212-19.661-9.987-21.643-17.4-1.965-7.353,11.565-18.345,10.074-25.88-1.475-7.46-18.176-12.471-19.17-20.093C2.042,397.408,16.894,388.28,16.4,380.6,15.909,373.026,0,365.889,0,358.19s15.909-14.837,16.4-22.413c.5-7.677-14.356-16.806-13.373-24.34.994-7.622,17.695-12.633,19.17-20.093,1.49-7.535-12.039-18.527-10.074-25.88,1.982-7.415,19.2-10.19,21.643-17.4,2.465-7.263-9.5-19.94-6.583-26.98,2.936-7.08,20.365-7.569,23.743-14.406,3.393-6.868-6.807-21.006-2.986-27.61,3.834-6.627,21.177-4.831,25.424-11.175,4.257-6.359-4.011-21.708.643-27.764s21.623-2.028,26.663-7.77-1.161-22.04,4.244-27.445,21.7.8,27.445-4.244,1.7-22,7.77-26.662,21.4,3.615,27.764-.643c6.343-4.247,4.548-21.59,11.175-25.424,6.6-3.821,20.742,6.379,27.61,2.986,6.837-3.378,7.326-20.807,14.406-23.743,7.04-2.919,19.717,9.048,26.98,6.583,7.212-2.448,9.987-19.662,17.4-21.643,7.353-1.965,18.345,11.565,25.88,10.074,7.46-1.475,12.471-18.176,20.093-19.17,7.535-.982,16.663,13.869,24.34,13.373C343.353,15.909,350.49,0,358.19,0" fill="url(#radial-gradient)"/>
</svg>
