<svg xmlns="http://www.w3.org/2000/svg" xmlns:xlink="http://www.w3.org/1999/xlink" width="584" height="477" viewBox="0 0 584 477">
  <defs>
    <radialGradient id="radial-gradient" cx="0.287" cy="0.211" r="0.924" gradientTransform="translate(0.287 -0.145) rotate(53.695)" gradientUnits="objectBoundingBox">
      <stop offset="0" stop-color="#ffdbbb"/>
      <stop offset="0.313" stop-color="#f3d5b7"/>
      <stop offset="0.614" stop-color="#f1be88"/>
      <stop offset="0.862" stop-color="#efa759"/>
      <stop offset="1" stop-color="#e68c48"/>
      <stop offset="1" stop-color="#e58946"/>
    </radialGradient>
    <radialGradient id="radial-gradient-4" cx="0.287" cy="0.211" r="0.924" gradientTransform="translate(0.287 -0.145) rotate(53.695)" gradientUnits="objectBoundingBox">
      <stop offset="0" stop-color="#f6ece8"/>
      <stop offset="0.313" stop-color="#f3d5b7"/>
      <stop offset="0.614" stop-color="#f1be88"/>
      <stop offset="0.862" stop-color="#efa759"/>
      <stop offset="1" stop-color="#e68c48"/>
      <stop offset="1" stop-color="#e58946"/>
    </radialGradient>
  </defs>
  <g id="Group_3309" data-name="Group 3309" transform="translate(4556 -4112.246)">
    <path id="Path_4060" data-name="Path 4060" d="M35,0c.752,0,1.45,1.554,2.19,1.6S38.832.2,39.568.3,40.8,2.025,41.532,2.169s1.81-1.176,2.529-.984,1,1.876,1.7,2.115,1.948-.928,2.636-.643.74,1.99,1.408,2.32,2.053-.665,2.7-.292.472,2.069,1.092,2.484,2.121-.392,2.713.063.2,2.113.759,2.605,2.154-.113,2.682.415-.078,2.12.415,2.682,2.15.167,2.605.759-.353,2.092.063,2.713,2.11.444,2.484,1.092-.623,2.027-.292,2.7,2.033.716,2.32,1.408-.884,1.927-.643,2.636,1.921.976,2.115,1.7-1.13,1.793-.984,2.529,1.776,1.219,1.873,1.963S68.349,32.06,68.4,32.81,70,34.248,70,35s-1.554,1.45-1.6,2.19,1.4,1.642,1.307,2.378-1.729,1.234-1.873,1.963,1.176,1.81.984,2.529-1.876,1-2.115,1.7.929,1.948.643,2.636-1.99.74-2.32,1.408.665,2.053.292,2.7-2.069.472-2.484,1.092.392,2.121-.063,2.713-2.113.2-2.605.759.113,2.154-.415,2.682-2.12-.078-2.682.415-.167,2.15-.759,2.605-2.092-.353-2.713.063-.444,2.11-1.092,2.484-2.027-.623-2.7-.292-.716,2.033-1.408,2.32-1.927-.884-2.636-.643-.976,1.921-1.7,2.115-1.793-1.13-2.529-.984-1.219,1.776-1.963,1.873S37.94,68.349,37.19,68.4,35.752,70,35,70s-1.45-1.554-2.19-1.6-1.642,1.4-2.378,1.307-1.234-1.729-1.963-1.873-1.81,1.176-2.529.984-1-1.876-1.7-2.115-1.948.929-2.636.643-.74-1.99-1.408-2.32-2.053.665-2.7.292-.472-2.069-1.092-2.484-2.121.392-2.713-.063-.2-2.113-.759-2.605-2.154.113-2.682-.415.078-2.12-.415-2.682-2.15-.167-2.605-.759.353-2.092-.063-2.713S5.059,53.15,4.684,52.5s.623-2.027.292-2.7-2.033-.716-2.32-1.408.884-1.927.643-2.636-1.921-.976-2.115-1.7,1.13-1.793.984-2.529S.393,40.313.3,39.568,1.651,37.94,1.6,37.19,0,35.752,0,35s1.554-1.45,1.6-2.19S.2,31.168.3,30.432,2.025,29.2,2.169,28.468s-1.176-1.81-.984-2.529,1.876-1,2.115-1.7-.928-1.948-.643-2.636,1.99-.74,2.32-1.408-.665-2.053-.292-2.7,2.069-.472,2.484-1.092-.392-2.121.063-2.713,2.113-.2,2.605-.759-.113-2.154.415-2.682,2.12.078,2.682-.415.167-2.15.759-2.605,2.092.353,2.713-.063.444-2.11,1.092-2.484,2.027.623,2.7.292.716-2.033,1.408-2.32,1.927.884,2.636.643.976-1.921,1.7-2.115,1.793,1.13,2.529.984S29.687.393,30.432.3,32.06,1.651,32.81,1.6,34.248,0,35,0" transform="translate(-4443 4112.246)" fill="url(#radial-gradient)"/>
    <path id="Path_4061" data-name="Path 4061" d="M35,0c.752,0,1.45,1.554,2.19,1.6S38.832.2,39.568.3,40.8,2.025,41.532,2.169s1.81-1.176,2.529-.984,1,1.876,1.7,2.115,1.948-.928,2.636-.643.74,1.99,1.408,2.32,2.053-.665,2.7-.292.472,2.069,1.092,2.484,2.121-.392,2.713.063.2,2.113.759,2.605,2.154-.113,2.682.415-.078,2.12.415,2.682,2.15.167,2.605.759-.353,2.092.063,2.713,2.11.444,2.484,1.092-.623,2.027-.292,2.7,2.033.716,2.32,1.408-.884,1.927-.643,2.636,1.921.976,2.115,1.7-1.13,1.793-.984,2.529,1.776,1.219,1.873,1.963S68.349,32.06,68.4,32.81,70,34.248,70,35s-1.554,1.45-1.6,2.19,1.4,1.642,1.307,2.378-1.729,1.234-1.873,1.963,1.176,1.81.984,2.529-1.876,1-2.115,1.7.928,1.948.643,2.636-1.99.74-2.32,1.408.665,2.053.292,2.7-2.069.472-2.484,1.092.392,2.121-.063,2.713-2.113.2-2.605.759.113,2.154-.415,2.682-2.12-.078-2.682.415-.167,2.15-.759,2.605-2.092-.353-2.713.063-.444,2.11-1.092,2.484-2.027-.623-2.7-.292-.716,2.033-1.408,2.32-1.927-.884-2.636-.643-.976,1.921-1.7,2.115-1.793-1.13-2.529-.984-1.219,1.776-1.963,1.873S37.94,68.349,37.19,68.4,35.752,70,35,70s-1.45-1.554-2.19-1.6-1.642,1.4-2.378,1.307-1.234-1.729-1.963-1.873-1.81,1.176-2.529.984-1-1.876-1.7-2.115-1.948.928-2.636.643-.74-1.99-1.408-2.32-2.053.665-2.7.292-.472-2.069-1.092-2.484-2.121.392-2.713-.063-.2-2.113-.759-2.605-2.154.113-2.682-.415.078-2.12-.415-2.682-2.15-.167-2.605-.759.353-2.092-.063-2.713S5.059,53.15,4.684,52.5s.623-2.027.292-2.7-2.033-.716-2.32-1.408.884-1.927.643-2.636-1.921-.976-2.115-1.7,1.13-1.793.984-2.529S.393,40.313.3,39.568,1.651,37.94,1.6,37.19,0,35.752,0,35s1.554-1.45,1.6-2.19S.2,31.168.3,30.432,2.025,29.2,2.169,28.468s-1.176-1.81-.984-2.529,1.876-1,2.115-1.7-.928-1.948-.643-2.636,1.99-.74,2.32-1.408-.665-2.053-.292-2.7,2.069-.472,2.484-1.092-.392-2.121.063-2.713,2.113-.2,2.605-.759-.113-2.154.415-2.682,2.12.078,2.682-.415.167-2.15.759-2.605,2.092.353,2.713-.063.444-2.11,1.092-2.484,2.027.623,2.7.292.716-2.033,1.408-2.32,1.927.884,2.636.643.976-1.921,1.7-2.115,1.793,1.13,2.529.984S29.687.393,30.432.3,32.06,1.651,32.81,1.6,34.248,0,35,0" transform="translate(-4556 4327.246)" fill="url(#radial-gradient)"/>
    <path id="Path_4062" data-name="Path 4062" d="M15,0c.322,0,.621.666.939.687s.7-.6,1.019-.56.529.741.841.8.776-.5,1.084-.422.427.8.729.906.835-.4,1.13-.276.317.853.6.994.88-.285,1.156-.125.2.887.468,1.065.909-.168,1.163.027.085.905.325,1.117.923-.049,1.149.178-.033.909.178,1.149.921.071,1.117.325-.151.9.027,1.163.9.19,1.065.468-.267.869-.125,1.156.871.307.994.6-.379.826-.276,1.13.823.418.906.729-.484.768-.422,1.084.761.522.8.841-.581.7-.56,1.019S30,14.678,30,15s-.666.621-.687.939.6.7.56,1.019-.741.529-.8.841.5.776.422,1.084-.8.427-.906.729.4.835.276,1.13-.853.317-.994.6.285.88.125,1.156-.887.2-1.065.468.168.909-.027,1.163-.905.085-1.117.325.049.923-.178,1.149-.909-.033-1.149.178-.071.921-.325,1.117-.9-.151-1.163.027-.19.9-.468,1.065-.869-.267-1.156-.125-.307.871-.6.994-.826-.379-1.13-.276-.418.823-.729.906-.768-.484-1.084-.422-.522.761-.841.8-.7-.581-1.019-.56S15.322,30,15,30s-.621-.666-.939-.687-.7.6-1.019.56-.529-.741-.841-.8-.776.5-1.084.422-.427-.8-.729-.906-.835.4-1.13.276-.317-.853-.6-.994-.88.285-1.156.125-.2-.887-.468-1.065-.909.168-1.163-.027S5.783,26,5.543,25.784s-.923.049-1.149-.178.033-.909-.178-1.149-.921-.071-1.117-.325.151-.9-.027-1.163-.9-.19-1.065-.468.267-.869.125-1.156-.871-.307-.994-.6.379-.826.276-1.13-.823-.418-.906-.729.484-.768.422-1.084-.761-.522-.8-.841.581-.7.56-1.019S0,15.322,0,15s.666-.621.687-.939-.6-.7-.56-1.019.741-.529.8-.841-.5-.776-.422-1.084.8-.427.906-.729-.4-.835-.276-1.13.853-.317.994-.6-.285-.88-.125-1.156.887-.2,1.065-.468S2.9,6.122,3.1,5.868,4,5.783,4.216,5.543s-.049-.923.178-1.149.909.033,1.149-.178.071-.921.325-1.117.9.151,1.163-.027.19-.9.468-1.065.869.267,1.156.125.307-.871.6-.994.826.379,1.13.276.418-.823.729-.906.768.484,1.084.422.522-.761.841-.8.7.581,1.019.56S14.678,0,15,0" transform="translate(-4408 4559.246)" fill="url(#radial-gradient)"/>
    <path id="Path_4063" data-name="Path 4063" d="M15,0c.322,0,.621.666.939.687s.7-.6,1.019-.56.529.741.841.8.776-.5,1.084-.422.427.8.729.906.835-.4,1.13-.276.317.853.6.994.88-.285,1.156-.125.2.887.468,1.065.909-.168,1.163.027.085.905.325,1.117.923-.049,1.149.178-.033.909.178,1.149.921.071,1.117.325-.151.9.027,1.163.9.19,1.065.468-.267.869-.125,1.156.871.307.994.6-.379.826-.276,1.13.823.418.906.729-.484.768-.422,1.084.761.522.8.841-.581.7-.56,1.019S30,14.678,30,15s-.666.621-.687.939.6.7.56,1.019-.741.529-.8.841.5.776.422,1.084-.8.427-.906.729.4.835.276,1.13-.853.317-.994.6.285.88.125,1.156-.887.2-1.065.468.168.909-.027,1.163-.905.085-1.117.325.049.923-.178,1.149-.909-.033-1.149.178-.071.921-.325,1.117-.9-.151-1.163.027-.19.9-.468,1.065-.869-.267-1.156-.125-.307.871-.6.994-.826-.379-1.13-.276-.418.823-.729.906-.768-.484-1.084-.422-.522.761-.841.8-.7-.581-1.019-.56S15.322,30,15,30s-.621-.666-.939-.687-.7.6-1.019.56-.529-.741-.841-.8-.776.5-1.084.422-.427-.8-.729-.906-.835.4-1.13.276-.317-.853-.6-.994-.88.285-1.156.125-.2-.887-.468-1.065-.909.168-1.163-.027S5.783,26,5.543,25.784s-.923.049-1.149-.178.033-.909-.178-1.149-.921-.071-1.117-.325.151-.9-.027-1.163-.9-.19-1.065-.468.267-.869.125-1.156-.871-.307-.994-.6.379-.826.276-1.13-.823-.418-.906-.729.484-.768.422-1.084-.761-.522-.8-.841.581-.7.56-1.019S0,15.322,0,15s.666-.621.687-.939-.6-.7-.56-1.019.741-.529.8-.841-.5-.776-.422-1.084.8-.427.906-.729-.4-.835-.276-1.13.853-.317.994-.6-.285-.88-.125-1.156.887-.2,1.065-.468S2.9,6.122,3.1,5.868,4,5.783,4.216,5.543s-.049-.923.178-1.149.909.033,1.149-.178.071-.921.325-1.117.9.151,1.163-.027.19-.9.468-1.065.869.267,1.156.125.307-.871.6-.994.826.379,1.13.276.418-.823.729-.906.768.484,1.084.422.522-.761.841-.8.7.581,1.019.56S14.678,0,15,0" transform="translate(-4138.49 4132.246)" fill="url(#radial-gradient-4)"/>
    <path id="Path_4064" data-name="Path 4064" d="M35,0c.752,0,1.45,1.554,2.19,1.6S38.832.2,39.568.3,40.8,2.025,41.532,2.169s1.81-1.176,2.529-.984,1,1.876,1.7,2.115,1.948-.928,2.636-.643.74,1.99,1.408,2.32,2.053-.665,2.7-.292.472,2.069,1.092,2.484,2.121-.392,2.713.063.2,2.113.759,2.605,2.154-.113,2.682.415-.078,2.12.415,2.682,2.15.167,2.605.759-.353,2.092.063,2.713,2.11.444,2.484,1.092-.623,2.027-.292,2.7,2.033.716,2.32,1.408-.884,1.927-.643,2.636,1.921.976,2.115,1.7-1.13,1.793-.984,2.529,1.776,1.219,1.873,1.963S68.349,32.06,68.4,32.81,70,34.248,70,35s-1.554,1.45-1.6,2.19,1.4,1.642,1.307,2.378-1.729,1.234-1.873,1.963,1.176,1.81.984,2.529-1.876,1-2.115,1.7.928,1.948.643,2.636-1.99.74-2.32,1.408.665,2.053.292,2.7-2.069.472-2.484,1.092.392,2.121-.063,2.713-2.113.2-2.605.759.113,2.154-.415,2.682-2.12-.078-2.682.415-.167,2.15-.759,2.605-2.092-.353-2.713.063-.444,2.11-1.092,2.484-2.027-.623-2.7-.292-.716,2.033-1.408,2.32-1.927-.884-2.636-.643-.976,1.921-1.7,2.115-1.793-1.13-2.529-.984-1.219,1.776-1.963,1.873S37.94,68.349,37.19,68.4,35.752,70,35,70s-1.45-1.554-2.19-1.6-1.642,1.4-2.378,1.307-1.234-1.729-1.963-1.873-1.81,1.176-2.529.984-1-1.876-1.7-2.115-1.948.928-2.636.643-.74-1.99-1.408-2.32-2.053.665-2.7.292-.472-2.069-1.092-2.484-2.121.392-2.713-.063-.2-2.113-.759-2.605-2.154.113-2.682-.415.078-2.12-.415-2.682-2.15-.167-2.605-.759.353-2.092-.063-2.713S5.059,53.15,4.684,52.5s.623-2.027.292-2.7-2.033-.716-2.32-1.408.884-1.927.643-2.636-1.921-.976-2.115-1.7,1.13-1.793.984-2.529S.393,40.313.3,39.568,1.651,37.94,1.6,37.19,0,35.752,0,35s1.554-1.45,1.6-2.19S.2,31.168.3,30.432,2.025,29.2,2.169,28.468s-1.176-1.81-.984-2.529,1.876-1,2.115-1.7-.928-1.948-.643-2.636,1.99-.74,2.32-1.408-.665-2.053-.292-2.7,2.069-.472,2.484-1.092-.392-2.121.063-2.713,2.113-.2,2.605-.759-.113-2.154.415-2.682,2.12.078,2.682-.415.167-2.15.759-2.605,2.092.353,2.713-.063.444-2.11,1.092-2.484,2.027.623,2.7.292.716-2.033,1.408-2.32,1.927.884,2.636.643.976-1.921,1.7-2.115,1.793,1.13,2.529.984S29.687.393,30.432.3,32.06,1.651,32.81,1.6,34.248,0,35,0" transform="translate(-4042 4327)" fill="url(#radial-gradient)"/>
    <path id="Path_4065" data-name="Path 4065" d="M15,0c.322,0,.621.666.939.687s.7-.6,1.019-.56.529.741.841.8.776-.5,1.084-.422.427.8.729.906.835-.4,1.13-.276.317.853.6.994.88-.285,1.156-.125.2.887.468,1.065.909-.168,1.163.027.085.905.325,1.117.923-.049,1.149.178-.033.909.178,1.149.921.071,1.117.325-.151.9.027,1.163.9.19,1.065.468-.267.869-.125,1.156.871.307.994.6-.379.826-.276,1.13.823.418.906.729-.484.768-.422,1.084.761.522.8.841-.581.7-.56,1.019S30,14.678,30,15s-.666.621-.687.939.6.7.56,1.019-.741.529-.8.841.5.776.422,1.084-.8.427-.906.729.4.835.276,1.13-.853.317-.994.6.285.88.125,1.156-.887.2-1.065.468.168.909-.027,1.163-.905.085-1.117.325.049.923-.178,1.149-.909-.033-1.149.178-.071.921-.325,1.117-.9-.151-1.163.027-.19.9-.468,1.065-.869-.267-1.156-.125-.307.871-.6.994-.826-.379-1.13-.276-.418.823-.729.906-.768-.484-1.084-.422-.522.761-.841.8-.7-.581-1.019-.56S15.322,30,15,30s-.621-.666-.939-.687-.7.6-1.019.56-.529-.741-.841-.8-.776.5-1.084.422-.427-.8-.729-.906-.835.4-1.13.276-.317-.853-.6-.994-.88.285-1.156.125-.2-.887-.468-1.065-.909.168-1.163-.027S5.783,26,5.543,25.784s-.923.049-1.149-.178.033-.909-.178-1.149-.921-.071-1.117-.325.151-.9-.027-1.163-.9-.19-1.065-.468.267-.869.125-1.156-.871-.307-.994-.6.379-.826.276-1.13-.823-.418-.906-.729.484-.768.422-1.084-.761-.522-.8-.841.581-.7.56-1.019S0,15.322,0,15s.666-.621.687-.939-.6-.7-.56-1.019.741-.529.8-.841-.5-.776-.422-1.084.8-.427.906-.729-.4-.835-.276-1.13.853-.317.994-.6-.285-.88-.125-1.156.887-.2,1.065-.468S2.9,6.122,3.1,5.868,4,5.783,4.216,5.543s-.049-.923.178-1.149.909.033,1.149-.178.071-.921.325-1.117.9.151,1.163-.027.19-.9.468-1.065.869.267,1.156.125.307-.871.6-.994.826.379,1.13.276.418-.823.729-.906.768.484,1.084.422.522-.761.841-.8.7.581,1.019.56S14.678,0,15,0" transform="translate(-4138.49 4559.246)" fill="url(#radial-gradient)"/>
  </g>
</svg>
