<svg xmlns="http://www.w3.org/2000/svg" xmlns:xlink="http://www.w3.org/1999/xlink" width="1265" height="369" viewBox="0 0 1265 369">
  <defs>
    <radialGradient id="radial-gradient" cx="0.287" cy="0.211" r="0.924" gradientTransform="translate(0.287 -0.145) rotate(53.695)" gradientUnits="objectBoundingBox">
      <stop offset="0" stop-color="#f6ece8"/>
      <stop offset="0.313" stop-color="#f3d5b7"/>
      <stop offset="0.614" stop-color="#f1be88"/>
      <stop offset="0.862" stop-color="#efa759"/>
      <stop offset="1" stop-color="#e68c48"/>
      <stop offset="1" stop-color="#e58946"/>
    </radialGradient>
  </defs>
  <g id="Group_3308" data-name="Group 3308" transform="translate(-556 -460.246)">
    <g id="Group_2290" data-name="Group 2290" transform="translate(55 69.246)">
      <g id="Ellipse_23" data-name="Ellipse 23" transform="translate(501 406)" fill="none" stroke="#ffb76d" stroke-width="3">
        <ellipse cx="632.5" cy="177" rx="632.5" ry="177" stroke="none"/>
        <ellipse cx="632.5" cy="177" rx="631" ry="175.5" fill="none"/>
      </g>
      <path id="Path_3177" data-name="Path 3177" d="M15,0c.322,0,.621.666.939.687s.7-.6,1.019-.56.529.741.841.8.776-.5,1.084-.422.427.8.729.906.835-.4,1.13-.276.317.853.6.994.88-.285,1.156-.125.2.887.468,1.065.909-.168,1.163.027.085.905.325,1.117.923-.049,1.149.178-.033.909.178,1.149.921.071,1.117.325-.151.9.027,1.163.9.19,1.065.468-.267.869-.125,1.156.871.307.994.6-.379.826-.276,1.13.823.418.906.729-.484.768-.422,1.084.761.522.8.841-.581.7-.56,1.019S30,14.678,30,15s-.666.621-.687.939.6.7.56,1.019-.741.529-.8.841.5.776.422,1.084-.8.427-.906.729.4.835.276,1.13-.853.317-.994.6.285.88.125,1.156-.887.2-1.065.468.168.909-.027,1.163-.905.085-1.117.325.049.923-.178,1.149-.909-.033-1.149.178-.071.921-.325,1.117-.9-.151-1.163.027-.19.9-.468,1.065-.869-.267-1.156-.125-.307.871-.6.994-.826-.379-1.13-.276-.418.823-.729.906-.768-.484-1.084-.422-.522.761-.841.8-.7-.581-1.019-.56S15.322,30,15,30s-.621-.666-.939-.687-.7.6-1.019.56-.529-.741-.841-.8-.776.5-1.084.422-.427-.8-.729-.906-.835.4-1.13.276-.317-.853-.6-.994-.88.285-1.156.125-.2-.887-.468-1.065-.909.168-1.163-.027S5.783,26,5.543,25.784s-.923.049-1.149-.178.033-.909-.178-1.149-.921-.071-1.117-.325.151-.9-.027-1.163-.9-.19-1.065-.468.267-.869.125-1.156-.871-.307-.994-.6.379-.826.276-1.13-.823-.418-.906-.729.484-.768.422-1.084-.761-.522-.8-.841.581-.7.56-1.019S0,15.322,0,15s.666-.621.687-.939-.6-.7-.56-1.019.741-.529.8-.841-.5-.776-.422-1.084.8-.427.906-.729-.4-.835-.276-1.13.853-.317.994-.6-.285-.88-.125-1.156.887-.2,1.065-.468S2.9,6.122,3.1,5.868,4,5.783,4.216,5.543s-.049-.923.178-1.149.909.033,1.149-.178.071-.921.325-1.117.9.151,1.163-.027.19-.9.468-1.065.869.267,1.156.125.307-.871.6-.994.826.379,1.13.276.418-.823.729-.906.768.484,1.084.422.522-.761.841-.8.7.581,1.019.56S14.678,0,15,0" transform="translate(1118.5 391)" opacity="0" fill="url(#radial-gradient)"/>
    </g>
  </g>
</svg>
