<svg xmlns="http://www.w3.org/2000/svg" xmlns:xlink="http://www.w3.org/1999/xlink" width="1082.49" height="381" viewBox="0 0 1082.49 381">
  <defs>
    <radialGradient id="radial-gradient" cx="0.287" cy="0.211" r="0.924" gradientTransform="translate(0.287 -0.145) rotate(53.695)" gradientUnits="objectBoundingBox">
      <stop offset="0" stop-color="#ffdbbb"/>
      <stop offset="0.313" stop-color="#f3d5b7"/>
      <stop offset="0.614" stop-color="#f1be88"/>
      <stop offset="0.862" stop-color="#efa759"/>
      <stop offset="1" stop-color="#e68c48"/>
      <stop offset="1" stop-color="#e58946"/>
    </radialGradient>
    <radialGradient id="radial-gradient-4" cx="0.287" cy="0.211" r="0.924" gradientTransform="translate(0.287 -0.145) rotate(53.695)" gradientUnits="objectBoundingBox">
      <stop offset="0" stop-color="#f6ece8"/>
      <stop offset="0.313" stop-color="#f3d5b7"/>
      <stop offset="0.614" stop-color="#f1be88"/>
      <stop offset="0.862" stop-color="#efa759"/>
      <stop offset="1" stop-color="#e68c48"/>
      <stop offset="1" stop-color="#e58946"/>
    </radialGradient>
  </defs>
  <g id="Group_3308" data-name="Group 3308" transform="translate(-619.51 -460.246)">
    <g id="Group_2290" data-name="Group 2290" transform="translate(55 69.246)">
      <path id="Path_3171" data-name="Path 3171" d="M25,0c.537,0,1.036,1.11,1.564,1.145s1.173-1,1.7-.933.882,1.235,1.4,1.338,1.293-.84,1.806-.7.711,1.34,1.215,1.511,1.392-.663,1.883-.459.528,1.421,1.005,1.657,1.466-.475,1.927-.208.337,1.478.78,1.775,1.515-.28,1.938.045.142,1.509.542,1.861,1.538-.081,1.916.3-.056,1.514.3,1.916,1.536.119,1.861.542-.252,1.494.045,1.938,1.507.317,1.774.78-.445,1.448-.208,1.927,1.452.511,1.657,1.005-.631,1.376-.459,1.883,1.372.7,1.511,1.215-.807,1.28-.7,1.806,1.269.87,1.338,1.4-.968,1.163-.933,1.7S50,24.463,50,25s-1.11,1.036-1.144,1.564,1,1.173.933,1.7-1.235.882-1.338,1.4.84,1.293.7,1.806-1.34.711-1.511,1.215.663,1.392.459,1.883-1.421.528-1.657,1.005.475,1.466.208,1.927-1.478.337-1.774.78.28,1.515-.045,1.938-1.509.142-1.861.542.081,1.538-.3,1.916-1.514-.056-1.916.3-.119,1.536-.542,1.861-1.494-.252-1.938.045-.317,1.507-.78,1.774-1.448-.445-1.927-.208S35.064,47.9,34.569,48.1s-1.376-.631-1.883-.459-.7,1.372-1.215,1.511-1.28-.807-1.806-.7-.87,1.269-1.4,1.338-1.163-.968-1.7-.933S25.537,50,25,50s-1.036-1.11-1.564-1.144-1.173,1-1.7.933-.882-1.235-1.4-1.338-1.293.84-1.806.7-.711-1.34-1.215-1.511-1.392.663-1.883.459-.528-1.421-1.005-1.657-1.466.475-1.927.208-.337-1.478-.78-1.774-1.515.28-1.938-.045-.142-1.509-.542-1.861-1.538.081-1.916-.3.056-1.514-.3-1.916-1.536-.119-1.861-.542.252-1.494-.045-1.938-1.507-.317-1.775-.78.445-1.448.208-1.927S2.1,35.064,1.9,34.569s.631-1.376.459-1.883-1.372-.7-1.511-1.215.807-1.28.7-1.806S.28,28.8.211,28.263s.968-1.163.933-1.7S0,25.537,0,25s1.11-1.036,1.145-1.564-1-1.173-.933-1.7,1.235-.882,1.338-1.4-.84-1.293-.7-1.806,1.34-.711,1.511-1.215S1.693,15.922,1.9,15.43s1.421-.528,1.657-1.005-.475-1.466-.208-1.927,1.478-.337,1.775-.78S4.84,10.2,5.165,9.78s1.509-.142,1.861-.542-.081-1.538.3-1.916,1.514.056,1.916-.3.119-1.536.542-1.861,1.494.252,1.938-.045.317-1.507.78-1.775,1.448.445,1.927.208S14.936,2.1,15.431,1.9s1.376.631,1.883.459.7-1.372,1.215-1.511,1.28.807,1.806.7S21.2.28,21.737.211s1.163.968,1.7.933S24.463,0,25,0" transform="translate(726.51 417.509)" fill="url(#radial-gradient)"/>
      <path id="Path_3172" data-name="Path 3172" d="M25,0c.537,0,1.036,1.11,1.564,1.145s1.173-1,1.7-.933.882,1.235,1.4,1.338,1.293-.84,1.806-.7.711,1.34,1.215,1.511,1.392-.663,1.883-.459.528,1.421,1.005,1.657,1.466-.475,1.927-.208.337,1.478.78,1.775,1.515-.28,1.938.045.142,1.509.542,1.861,1.538-.081,1.916.3-.056,1.514.3,1.916,1.536.119,1.861.542-.252,1.494.045,1.938,1.507.317,1.774.78-.445,1.448-.208,1.927,1.452.511,1.657,1.005-.631,1.376-.459,1.883,1.372.7,1.511,1.215-.807,1.28-.7,1.806,1.269.87,1.338,1.4-.968,1.163-.933,1.7S50,24.463,50,25s-1.11,1.036-1.144,1.564,1,1.173.933,1.7-1.235.882-1.338,1.4.84,1.293.7,1.806-1.34.711-1.511,1.215.663,1.392.459,1.883-1.421.528-1.657,1.005.475,1.466.208,1.927-1.478.337-1.774.78.28,1.515-.045,1.938-1.509.142-1.861.542.081,1.538-.3,1.916-1.514-.056-1.916.3-.119,1.536-.542,1.861-1.494-.252-1.938.045-.317,1.507-.78,1.774-1.448-.445-1.927-.208S35.064,47.9,34.569,48.1s-1.376-.631-1.883-.459-.7,1.372-1.215,1.511-1.28-.807-1.806-.7-.87,1.269-1.4,1.338-1.163-.968-1.7-.933S25.537,50,25,50s-1.036-1.11-1.564-1.144-1.173,1-1.7.933-.882-1.235-1.4-1.338-1.293.84-1.806.7-.711-1.34-1.215-1.511-1.392.663-1.883.459-.528-1.421-1.005-1.657-1.466.475-1.927.208-.337-1.478-.78-1.774-1.515.28-1.938-.045-.142-1.509-.542-1.861-1.538.081-1.916-.3.056-1.514-.3-1.916-1.536-.119-1.861-.542.252-1.494-.045-1.938-1.507-.317-1.775-.78.445-1.448.208-1.927S2.1,35.064,1.9,34.569s.631-1.376.459-1.883-1.372-.7-1.511-1.215.807-1.28.7-1.806S.28,28.8.211,28.263s.968-1.163.933-1.7S0,25.537,0,25s1.11-1.036,1.145-1.564-1-1.173-.933-1.7,1.235-.882,1.338-1.4-.84-1.293-.7-1.806,1.34-.711,1.511-1.215S1.693,15.922,1.9,15.43s1.421-.528,1.657-1.005-.475-1.466-.208-1.927,1.478-.337,1.775-.78S4.84,10.2,5.165,9.78s1.509-.142,1.861-.542-.081-1.538.3-1.916,1.514.056,1.916-.3.119-1.536.542-1.861,1.494.252,1.938-.045.317-1.507.78-1.775,1.448.445,1.927.208S14.936,2.1,15.431,1.9s1.376.631,1.883.459.7-1.372,1.215-1.511,1.28.807,1.806.7S21.2.28,21.737.211s1.163.968,1.7.933S24.463,0,25,0" transform="translate(564.51 644.509)" fill="url(#radial-gradient)"/>
      <path id="Path_3173" data-name="Path 3173" d="M15,0c.322,0,.621.666.939.687s.7-.6,1.019-.56.529.741.841.8.776-.5,1.084-.422.427.8.729.906.835-.4,1.13-.276.317.853.6.994.88-.285,1.156-.125.2.887.468,1.065.909-.168,1.163.027.085.905.325,1.117.923-.049,1.149.178-.033.909.178,1.149.921.071,1.117.325-.151.9.027,1.163.9.19,1.065.468-.267.869-.125,1.156.871.307.994.6-.379.826-.276,1.13.823.418.906.729-.484.768-.422,1.084.761.522.8.841-.581.7-.56,1.019S30,14.678,30,15s-.666.621-.687.939.6.7.56,1.019-.741.529-.8.841.5.776.422,1.084-.8.427-.906.729.4.835.276,1.13-.853.317-.994.6.285.88.125,1.156-.887.2-1.065.468.168.909-.027,1.163-.905.085-1.117.325.049.923-.178,1.149-.909-.033-1.149.178-.071.921-.325,1.117-.9-.151-1.163.027-.19.9-.468,1.065-.869-.267-1.156-.125-.307.871-.6.994-.826-.379-1.13-.276-.418.823-.729.906-.768-.484-1.084-.422-.522.761-.841.8-.7-.581-1.019-.56S15.322,30,15,30s-.621-.666-.939-.687-.7.6-1.019.56-.529-.741-.841-.8-.776.5-1.084.422-.427-.8-.729-.906-.835.4-1.13.276-.317-.853-.6-.994-.88.285-1.156.125-.2-.887-.468-1.065-.909.168-1.163-.027S5.783,26,5.543,25.784s-.923.049-1.149-.178.033-.909-.178-1.149-.921-.071-1.117-.325.151-.9-.027-1.163-.9-.19-1.065-.468.267-.869.125-1.156-.871-.307-.994-.6.379-.826.276-1.13-.823-.418-.906-.729.484-.768.422-1.084-.761-.522-.8-.841.581-.7.56-1.019S0,15.322,0,15s.666-.621.687-.939-.6-.7-.56-1.019.741-.529.8-.841-.5-.776-.422-1.084.8-.427.906-.729-.4-.835-.276-1.13.853-.317.994-.6-.285-.88-.125-1.156.887-.2,1.065-.468S2.9,6.122,3.1,5.868,4,5.783,4.216,5.543s-.049-.923.178-1.149.909.033,1.149-.178.071-.921.325-1.117.9.151,1.163-.027.19-.9.468-1.065.869.267,1.156.125.307-.871.6-.994.826.379,1.13.276.418-.823.729-.906.768.484,1.084.422.522-.761.841-.8.7.581,1.019.56S14.678,0,15,0" transform="translate(1024 742)" fill="url(#radial-gradient)"/>
      <path id="Path_3177" data-name="Path 3177" d="M15,0c.322,0,.621.666.939.687s.7-.6,1.019-.56.529.741.841.8.776-.5,1.084-.422.427.8.729.906.835-.4,1.13-.276.317.853.6.994.88-.285,1.156-.125.2.887.468,1.065.909-.168,1.163.027.085.905.325,1.117.923-.049,1.149.178-.033.909.178,1.149.921.071,1.117.325-.151.9.027,1.163.9.19,1.065.468-.267.869-.125,1.156.871.307.994.6-.379.826-.276,1.13.823.418.906.729-.484.768-.422,1.084.761.522.8.841-.581.7-.56,1.019S30,14.678,30,15s-.666.621-.687.939.6.7.56,1.019-.741.529-.8.841.5.776.422,1.084-.8.427-.906.729.4.835.276,1.13-.853.317-.994.6.285.88.125,1.156-.887.2-1.065.468.168.909-.027,1.163-.905.085-1.117.325.049.923-.178,1.149-.909-.033-1.149.178-.071.921-.325,1.117-.9-.151-1.163.027-.19.9-.468,1.065-.869-.267-1.156-.125-.307.871-.6.994-.826-.379-1.13-.276-.418.823-.729.906-.768-.484-1.084-.422-.522.761-.841.8-.7-.581-1.019-.56S15.322,30,15,30s-.621-.666-.939-.687-.7.6-1.019.56-.529-.741-.841-.8-.776.5-1.084.422-.427-.8-.729-.906-.835.4-1.13.276-.317-.853-.6-.994-.88.285-1.156.125-.2-.887-.468-1.065-.909.168-1.163-.027S5.783,26,5.543,25.784s-.923.049-1.149-.178.033-.909-.178-1.149-.921-.071-1.117-.325.151-.9-.027-1.163-.9-.19-1.065-.468.267-.869.125-1.156-.871-.307-.994-.6.379-.826.276-1.13-.823-.418-.906-.729.484-.768.422-1.084-.761-.522-.8-.841.581-.7.56-1.019S0,15.322,0,15s.666-.621.687-.939-.6-.7-.56-1.019.741-.529.8-.841-.5-.776-.422-1.084.8-.427.906-.729-.4-.835-.276-1.13.853-.317.994-.6-.285-.88-.125-1.156.887-.2,1.065-.468S2.9,6.122,3.1,5.868,4,5.783,4.216,5.543s-.049-.923.178-1.149.909.033,1.149-.178.071-.921.325-1.117.9.151,1.163-.027.19-.9.468-1.065.869.267,1.156.125.307-.871.6-.994.826.379,1.13.276.418-.823.729-.906.768.484,1.084.422.522-.761.841-.8.7.581,1.019.56S14.678,0,15,0" transform="translate(1118.5 391)" opacity="0" fill="url(#radial-gradient-4)"/>
      <path id="Path_3176" data-name="Path 3176" d="M15,0c.322,0,.621.666.939.687s.7-.6,1.019-.56.529.741.841.8.776-.5,1.084-.422.427.8.729.906.835-.4,1.13-.276.317.853.6.994.88-.285,1.156-.125.2.887.468,1.065.909-.168,1.163.027.085.905.325,1.117.923-.049,1.149.178-.033.909.178,1.149.921.071,1.117.325-.151.9.027,1.163.9.19,1.065.468-.267.869-.125,1.156.871.307.994.6-.379.826-.276,1.13.823.418.906.729-.484.768-.422,1.084.761.522.8.841-.581.7-.56,1.019S30,14.678,30,15s-.666.621-.687.939.6.7.56,1.019-.741.529-.8.841.5.776.422,1.084-.8.427-.906.729.4.835.276,1.13-.853.317-.994.6.285.88.125,1.156-.887.2-1.065.468.168.909-.027,1.163-.905.085-1.117.325.049.923-.178,1.149-.909-.033-1.149.178-.071.921-.325,1.117-.9-.151-1.163.027-.19.9-.468,1.065-.869-.267-1.156-.125-.307.871-.6.994-.826-.379-1.13-.276-.418.823-.729.906-.768-.484-1.084-.422-.522.761-.841.8-.7-.581-1.019-.56S15.322,30,15,30s-.621-.666-.939-.687-.7.6-1.019.56-.529-.741-.841-.8-.776.5-1.084.422-.427-.8-.729-.906-.835.4-1.13.276-.317-.853-.6-.994-.88.285-1.156.125-.2-.887-.468-1.065-.909.168-1.163-.027S5.783,26,5.543,25.784s-.923.049-1.149-.178.033-.909-.178-1.149-.921-.071-1.117-.325.151-.9-.027-1.163-.9-.19-1.065-.468.267-.869.125-1.156-.871-.307-.994-.6.379-.826.276-1.13-.823-.418-.906-.729.484-.768.422-1.084-.761-.522-.8-.841.581-.7.56-1.019S0,15.322,0,15s.666-.621.687-.939-.6-.7-.56-1.019.741-.529.8-.841-.5-.776-.422-1.084.8-.427.906-.729-.4-.835-.276-1.13.853-.317.994-.6-.285-.88-.125-1.156.887-.2,1.065-.468S2.9,6.122,3.1,5.868,4,5.783,4.216,5.543s-.049-.923.178-1.149.909.033,1.149-.178.071-.921.325-1.117.9.151,1.163-.027.19-.9.468-1.065.869.267,1.156.125.307-.871.6-.994.826.379,1.13.276.418-.823.729-.906.768.484,1.084.422.522-.761.841-.8.7.581,1.019.56S14.678,0,15,0" transform="translate(1617 457)" fill="url(#radial-gradient)"/>
      <path id="Path_3175" data-name="Path 3175" d="M25,0c.537,0,1.036,1.11,1.564,1.145s1.173-1,1.7-.933.882,1.235,1.4,1.338,1.293-.84,1.806-.7.711,1.34,1.215,1.511,1.392-.663,1.883-.459.528,1.421,1.005,1.657,1.466-.475,1.927-.208.337,1.478.78,1.775,1.515-.28,1.938.045.142,1.509.542,1.861,1.538-.081,1.916.3-.056,1.514.3,1.916,1.536.119,1.861.542-.252,1.494.045,1.938,1.507.317,1.774.78-.445,1.448-.208,1.927,1.452.511,1.657,1.005-.631,1.376-.459,1.883,1.372.7,1.511,1.215-.807,1.28-.7,1.806,1.269.87,1.338,1.4-.968,1.163-.933,1.7S50,24.463,50,25s-1.11,1.036-1.144,1.564,1,1.173.933,1.7-1.235.882-1.338,1.4.84,1.293.7,1.806-1.34.711-1.511,1.215.663,1.392.459,1.883-1.421.528-1.657,1.005.475,1.466.208,1.927-1.478.337-1.774.78.28,1.515-.045,1.938-1.509.142-1.861.542.081,1.538-.3,1.916-1.514-.056-1.916.3-.119,1.536-.542,1.861-1.494-.252-1.938.045-.317,1.507-.78,1.774-1.448-.445-1.927-.208S35.064,47.9,34.569,48.1s-1.376-.631-1.883-.459-.7,1.372-1.215,1.511-1.28-.807-1.806-.7-.87,1.269-1.4,1.338-1.163-.968-1.7-.933S25.537,50,25,50s-1.036-1.11-1.564-1.144-1.173,1-1.7.933-.882-1.235-1.4-1.338-1.293.84-1.806.7-.711-1.34-1.215-1.511-1.392.663-1.883.459-.528-1.421-1.005-1.657-1.466.475-1.927.208-.337-1.478-.78-1.774-1.515.28-1.938-.045-.142-1.509-.542-1.861-1.538.081-1.916-.3.056-1.514-.3-1.916-1.536-.119-1.861-.542.252-1.494-.045-1.938-1.507-.317-1.775-.78.445-1.448.208-1.927S2.1,35.064,1.9,34.569s.631-1.376.459-1.883-1.372-.7-1.511-1.215.807-1.28.7-1.806S.28,28.8.211,28.263s.968-1.163.933-1.7S0,25.537,0,25s1.11-1.036,1.145-1.564-1-1.173-.933-1.7,1.235-.882,1.338-1.4-.84-1.293-.7-1.806,1.34-.711,1.511-1.215S1.693,15.922,1.9,15.43s1.421-.528,1.657-1.005-.475-1.466-.208-1.927,1.478-.337,1.775-.78S4.84,10.2,5.165,9.78s1.509-.142,1.861-.542-.081-1.538.3-1.916,1.514.056,1.916-.3.119-1.536.542-1.861,1.494.252,1.938-.045.317-1.507.78-1.775,1.448.445,1.927.208S14.936,2.1,15.431,1.9s1.376.631,1.883.459.7-1.372,1.215-1.511,1.28.807,1.806.7S21.2.28,21.737.211s1.163.968,1.7.933S24.463,0,25,0" transform="translate(1475.51 695)" fill="url(#radial-gradient)"/>
    </g>
  </g>
</svg>
