<svg xmlns="http://www.w3.org/2000/svg" width="14.529" height="13.935" viewBox="0 0 14.529 13.935">
  <g id="Group_2480" data-name="Group 2480" transform="translate(-1941.971 -5498.75)">
    <path id="Path_34" data-name="Path 34" d="M18.84,14.907c.747.133,1.782.25,2.78.512a2.741,2.741,0,0,1,2.131,2.5,2.546,2.546,0,0,1-2.008,2.558,3.662,3.662,0,0,0-2.191,1.77,2.541,2.541,0,0,1-2.921,1.411,2.819,2.819,0,0,1-1.985-2.724,19.54,19.54,0,0,1,.153-2.9,3.943,3.943,0,0,1,4.04-3.121" transform="translate(1932.747 5488.942)" fill="#f39321"/>
    <path id="Path_35" data-name="Path 35" d="M9.453,22.271a1.143,1.143,0,0,1-1.273,1.1,1.928,1.928,0,0,1-1.925-1.808,1.225,1.225,0,0,1,1.337-1.215,1.975,1.975,0,0,1,1.861,1.928" transform="translate(1935.719 5487.017)" fill="#f39321"/>
    <path id="Path_36" data-name="Path 36" d="M15.75,7.013a1.955,1.955,0,0,1,1.855,1.9,1.237,1.237,0,0,1-1.214,1.341A1.916,1.916,0,0,1,14.623,8.3,1.2,1.2,0,0,1,15.75,7.013" transform="translate(1932.755 5491.737)" fill="#f39321"/>
    <path id="Path_37" data-name="Path 37" d="M26.146,9.177a1.165,1.165,0,0,1-1.216,1.176,1.971,1.971,0,0,1-1.764-1.88,1.257,1.257,0,0,1,1.292-1.357,1.949,1.949,0,0,1,1.689,2.061" transform="translate(1929.729 5491.701)" fill="#f39321"/>
    <path id="Path_38" data-name="Path 38" d="M11.082,13.991a1.141,1.141,0,0,1-1.228,1.139A1.9,1.9,0,0,1,8,13.273a1.135,1.135,0,0,1,1.267-1.232,1.953,1.953,0,0,1,1.816,1.95" transform="translate(1935.101 5489.957)" fill="#f39321"/>
  </g>
</svg>
