<svg id="Group_2481" data-name="Group 2481" xmlns="http://www.w3.org/2000/svg" width="19.838" height="19.026" viewBox="0 0 19.838 19.026">
  <path id="Path_34" data-name="Path 34" d="M20.374,14.907c1.019.182,2.434.341,3.8.7a3.742,3.742,0,0,1,2.91,3.411,3.476,3.476,0,0,1-2.742,3.492,5,5,0,0,0-2.992,2.416,3.469,3.469,0,0,1-3.989,1.927,3.85,3.85,0,0,1-2.71-3.72,26.68,26.68,0,0,1,.209-3.964,5.384,5.384,0,0,1,5.517-4.261" transform="translate(-7.243 -7.946)" fill="#ffeedf"/>
  <path id="Path_35" data-name="Path 35" d="M10.623,22.975a1.56,1.56,0,0,1-1.738,1.5A2.632,2.632,0,0,1,6.256,22a1.673,1.673,0,0,1,1.825-1.66,2.7,2.7,0,0,1,2.542,2.632" transform="translate(-6.252 -8.588)" fill="#ffeedf"/>
  <path id="Path_36" data-name="Path 36" d="M16.163,7.013a2.67,2.67,0,0,1,2.533,2.6,1.689,1.689,0,0,1-1.658,1.831,2.616,2.616,0,0,1-2.414-2.673,1.636,1.636,0,0,1,1.539-1.753" transform="translate(-7.241 -7.013)" fill="#ffeedf"/>
  <path id="Path_37" data-name="Path 37" d="M27.236,9.93a1.591,1.591,0,0,1-1.661,1.606,2.691,2.691,0,0,1-2.409-2.567A1.717,1.717,0,0,1,24.93,7.116,2.661,2.661,0,0,1,27.236,9.93" transform="translate(-8.25 -7.025)" fill="#ffeedf"/>
  <path id="Path_38" data-name="Path 38" d="M12.209,14.7a1.558,1.558,0,0,1-1.677,1.556A2.6,2.6,0,0,1,8,13.723a1.549,1.549,0,0,1,1.73-1.682,2.667,2.667,0,0,1,2.48,2.663" transform="translate(-6.458 -7.607)" fill="#ffeedf"/>
</svg>
