<svg id="Group_2116" data-name="Group 2116" xmlns="http://www.w3.org/2000/svg" xmlns:xlink="http://www.w3.org/1999/xlink" width="142.782" height="146.671" viewBox="0 0 142.782 146.671">
  <defs>
    <clipPath id="clip-path">
      <rect id="Rectangle_617" data-name="Rectangle 617" width="142.782" height="146.671" fill="none"/>
    </clipPath>
  </defs>
  <rect id="Rectangle_599" data-name="Rectangle 599" width="119.65" height="118.073" transform="translate(3.216 5.177)" fill="#fff"/>
  <rect id="Rectangle_600" data-name="Rectangle 600" width="119.651" height="118.073" transform="translate(3.216 5.177)" fill="none" stroke="#703f2e" stroke-miterlimit="10" stroke-width="1.5"/>
  <g id="Group_2115" data-name="Group 2115">
    <g id="Group_2114" data-name="Group 2114" clip-path="url(#clip-path)">
      <path id="Path_2928" data-name="Path 2928" d="M148.292,158.587l.574.658a1.448,1.448,0,0,0,2.042.139l4.029-3.515a1.447,1.447,0,0,0,.139-2.041l-1.29-1.478a1.447,1.447,0,0,0-2.041-.139l-4.029,3.515a1.446,1.446,0,0,0-.139,2.041Z" transform="translate(-13.332 -13.752)" fill="#fbf1eb"/>
      <path id="Path_2929" data-name="Path 2929" d="M148.292,158.587l.574.658a1.448,1.448,0,0,0,2.042.139l4.029-3.515a1.447,1.447,0,0,0,.139-2.041l-1.29-1.478a1.447,1.447,0,0,0-2.041-.139l-4.029,3.515a1.446,1.446,0,0,0-.139,2.041Z" transform="translate(-13.332 -13.752)" fill="none" stroke="#703f2e" stroke-miterlimit="10" stroke-width="1.5"/>
      <path id="Path_2930" data-name="Path 2930" d="M139.532,142.223c-.207-1.417,1.692-.442,4.324.818l1.531.717c.732.332,1.5.657,2.268.939,4.342,1.587,3.076,5.418,3.076,5.418l.7.807c-1.639,1.169-4.924,4.25-4.924,4.25l-.7-.807s-3.966.734-4.951-3.782-3.331-8.959-1.348-8.385l4.022,4.612" transform="translate(-12.564 -12.816)" fill="#fbf1eb"/>
      <path id="Path_2931" data-name="Path 2931" d="M139.532,142.223c-.207-1.417,1.692-.442,4.324.818l1.531.717c.732.332,1.5.657,2.268.939,4.342,1.587,3.076,5.418,3.076,5.418l.7.807c-1.639,1.169-4.924,4.25-4.924,4.25l-.7-.807s-3.966.734-4.951-3.782-3.331-8.959-1.348-8.385l4.022,4.612" transform="translate(-12.564 -12.816)" fill="none" stroke="#703f2e" stroke-linecap="round" stroke-miterlimit="10" stroke-width="1.5"/>
      <path id="Path_2932" data-name="Path 2932" d="M146.588,147.675a1.736,1.736,0,1,1-2.449-.167,1.735,1.735,0,0,1,2.449.167" transform="translate(-12.999 -13.319)" fill="#fbf1eb"/>
      <path id="Path_2933" data-name="Path 2933" d="M146.588,147.675a1.736,1.736,0,1,1-2.449-.167A1.735,1.735,0,0,1,146.588,147.675Z" transform="translate(-12.999 -13.319)" fill="none" stroke="#703f2e" stroke-linecap="round" stroke-miterlimit="10" stroke-width="1.5"/>
      <line id="Line_13" data-name="Line 13" y1="4.57" x2="5.238" transform="translate(136.041 139.545)" fill="#fbf1eb"/>
      <line id="Line_14" data-name="Line 14" y1="4.57" x2="5.238" transform="translate(136.041 139.545)" fill="none" stroke="#703f2e" stroke-linecap="round" stroke-miterlimit="10" stroke-width="1.5"/>
      <path id="Path_2934" data-name="Path 2934" d="M89.829,87.751c2.154-.921,4.342-2.372,5.127-4.621L93.6,82.658c-1.347,3.879-8.462,5.007-9.058,5.1h-6.61a9.324,9.324,0,0,0,2.787-5.433c.628-4.635-2.282-8.93-3.018-9.932a25.765,25.765,0,0,0-.359-5.659l.014-.005-.156-.638a29.958,29.958,0,0,0-1.059-3.269L76,62.44c-.449-1.251-.983-2.764-1.569-4.876-.161-.6-.284-1.078-.383-1.521a25.413,25.413,0,0,1-.6-3.6v0a8.03,8.03,0,0,1,.383-4.049c6.44-8.084,2.944-15.119,2.787-15.417l-.236-.449-.5.066a7.431,7.431,0,0,0-5.85,4.6,33.469,33.469,0,0,0-9.038,0,7.42,7.42,0,0,0-5.85-4.6l-.5-.066-.236.449c-.146.3-3.648,7.328,2.783,15.407.127.256,1.214,2.66-.591,9.19-.652,2.367-1.251,4-1.724,5.31A20.755,20.755,0,0,0,53.345,72.4c-.742,1-3.652,5.291-3.024,9.931a9.374,9.374,0,0,0,2.787,5.433h-23V89.2H36.35c.222.009,7.6.416,9.917,6.2l1.332-.534A10.586,10.586,0,0,0,42.02,89.2H54.932c.775.288,6.034,2.471,6.251,8.372.259,6.808,0,17.58,0,17.712v1.087a4.326,4.326,0,0,0,8.651.1l.028-1.215c0-.108-.26-10.885,0-17.689.226-5.94,5.428-8.079,6.251-8.372h24.923V87.76H89.829Z" transform="translate(-2.727 -2.945)" fill="#703f2e"/>
      <path id="Path_2935" data-name="Path 2935" d="M78.617,65.615c.062.166.123.336.185.5.024.07.052.146.075.222.061.179.123.349.184.519.024.075.047.146.075.227.057.179.114.358.166.538.015.052.034.1.047.156,0,.019.01.038.015.057a6.7,6.7,0,0,1-1.408.151,6.425,6.425,0,0,1-2.1-12.5V55.5c.052.411.118.832.2,1.267.019.108.038.217.057.321.046.241.094.477.146.723a4.109,4.109,0,0,0,1.7,7.852,3.42,3.42,0,0,0,.661-.052" transform="translate(-6.478 -5.025)" fill="#703f2e"/>
      <path id="Path_2936" data-name="Path 2936" d="M77.568,61.786c.024.085.047.166.075.256.038.132.08.269.123.4.019.075.043.146.066.222.052.161.1.321.151.473a.909.909,0,0,0,.034.1c.056.189.117.368.184.543l.043.137c.047.136.095.278.142.407.009.037.024.071.033.1.024.056.043.118.062.179a1.5,1.5,0,0,1-.156.005,2.673,2.673,0,0,1-1.365-4.971c.009.038.024.08.033.123.019.066.034.137.052.213.038.132.075.274.114.42.066.246.132.477.2.714.024.08.047.161.071.246.052.146.095.293.137.435" transform="translate(-6.851 -5.401)" fill="#d4bbaa"/>
      <path id="Path_2937" data-name="Path 2937" d="M53.889,86.444a11.371,11.371,0,0,1,1.233-6.308,3.778,3.778,0,0,1-.08,7.556,3.843,3.843,0,0,1-.9-.118,7.7,7.7,0,0,1-.25-1.13" transform="translate(-4.873 -7.257)" fill="#703f2e"/>
      <path id="Path_2938" data-name="Path 2938" d="M71.625,124.57a2.918,2.918,0,0,1-.874,2,2.887,2.887,0,0,1-4.9-2.065v-1.072c0-.019.01-.355.019-.93a5.545,5.545,0,0,0,2.868.845,5.473,5.473,0,0,0,2.891-.879c.009.577.019.917.019.926Z" transform="translate(-5.963 -11.091)" fill="#d4bbaa"/>
      <path id="Path_2939" data-name="Path 2939" d="M65.9,120.287c.015-.874.028-1.909.038-3.052a6.458,6.458,0,0,0,2.838.676,6.116,6.116,0,0,0,2.778-.685c.009,1.133.024,2.159.037,3.028a4.161,4.161,0,0,1-4.053.992,4.913,4.913,0,0,1-1.639-.959" transform="translate(-5.968 -10.616)" fill="#703f2e"/>
      <path id="Path_2940" data-name="Path 2940" d="M77.881,87.983c-.931.349-6.965,2.877-7.224,9.676-.114,3.108-.128,7.03-.105,10.4a4.811,4.811,0,0,1-5.589.01c.025-3.374.015-7.3-.1-10.409-.261-6.8-6.294-9.327-7.224-9.676A9.6,9.6,0,0,1,54.9,84.959c.081,0,.161.009.246.009A5.214,5.214,0,0,0,55.954,74.6a15.312,15.312,0,0,1,.917-1.38l.16-.207,0-.26a19.779,19.779,0,0,1,1.441-9.237c.487-1.337,1.1-3,1.762-5.424.014-.047.024-.09.037-.136a3.646,3.646,0,0,0,1.044-7.125,6.175,6.175,0,0,0-.685-3.108l-.034-.052c-5.027-6.28-3.5-11.788-2.867-13.419a6.16,6.16,0,0,1,4.356,4.087l.185.638.652-.127c.009,0,.736-.142,1.969-.255l.53,2.093.547-2.164c.364-.019.756-.038,1.171-.043l.633,5.145.629-5.145c.416,0,.809.024,1.172.043l.547,2.164.529-2.093c1.233.108,1.961.255,1.975.255l.647.127.185-.633a6.171,6.171,0,0,1,4.353-4.087c.613,1.631,2.115,7.191-2.859,13.414l-.038.052c-.089.132-.817,1.332-.665,4.38A7.857,7.857,0,0,0,76.472,67.5a7.674,7.674,0,0,0,1.743-.2,25.352,25.352,0,0,1,.3,5.458l-.005.26.161.207c.034.043,3.506,4.47,2.882,9.057a8.558,8.558,0,0,1-3.671,5.7" transform="translate(-4.971 -3.102)" fill="#fbf1eb"/>
      <path id="Path_2941" data-name="Path 2941" d="M61.207,58.292a26.024,26.024,0,0,0,.648-4.11,2.211,2.211,0,0,1-.648,4.11" transform="translate(-5.543 -4.907)" fill="#703f2e"/>
      <path id="Path_2942" data-name="Path 2942" d="M63,56.119a2.211,2.211,0,0,1-1.8,2.169,26.279,26.279,0,0,0,.648-4.111A2.223,2.223,0,0,1,63,56.119" transform="translate(-5.543 -4.906)" fill="#d4bbaa"/>
      <path id="Path_2943" data-name="Path 2943" d="M71.6,120.254a4.162,4.162,0,0,1-4.053.992,4.877,4.877,0,0,1-1.644-.959c.014-.874.028-1.908.037-3.052a6.468,6.468,0,0,0,2.839.676,6.119,6.119,0,0,0,2.778-.685c.015,1.139.028,2.164.043,3.028" transform="translate(-5.968 -10.616)" fill="#d4bbaa"/>
      <path id="Path_2944" data-name="Path 2944" d="M58.822,83.908a3.786,3.786,0,0,1-3.784,3.78,3.841,3.841,0,0,1-.9-.118,8.085,8.085,0,0,1-.25-1.124,11.371,11.371,0,0,1,1.233-6.308,3.774,3.774,0,0,1,3.7,3.771" transform="translate(-4.873 -7.257)" fill="#d4bbaa"/>
      <path id="Path_2945" data-name="Path 2945" d="M79.364,67.832a6.714,6.714,0,0,1-1.409.151,6.424,6.424,0,0,1-2.1-12.5v.019c.052.411.118.831.2,1.266.018.109.038.217.056.321.047.241.1.477.146.723a4.11,4.11,0,0,0,1.7,7.853,4.322,4.322,0,0,0,.661-.053c.062.166.123.336.185.5.024.071.052.146.075.222.061.18.123.35.185.52.023.075.046.146.076.226.055.179.113.359.165.538.014.052.033.1.046.156.005.018.01.037.015.056" transform="translate(-6.478 -5.025)" fill="#d4bbaa"/>
      <path id="Path_2946" data-name="Path 2946" d="M41.827,82.687l-.043-1.044-.959.416c-2.466,1.069-6.836,4.385-5.722,9.27l.162.7.7-.156c4.89-1.12,5.972-6.5,5.863-9.185m-1.964,3.6a5.846,5.846,0,0,1-3.479,3.973,5.858,5.858,0,0,1,2.06-4.856,11.151,11.151,0,0,1,1.9-1.441,11.477,11.477,0,0,1-.477,2.325" transform="translate(-3.163 -7.394)" fill="#703f2e"/>
      <path id="Path_2947" data-name="Path 2947" d="M40.477,84.184A11.407,11.407,0,0,1,40,86.513a5.846,5.846,0,0,1-3.477,3.973,5.852,5.852,0,0,1,2.06-4.856,11.088,11.088,0,0,1,1.89-1.446" transform="translate(-3.306 -7.624)" fill="#d4bbaa"/>
      <path id="Path_2948" data-name="Path 2948" d="M103.358,100.321c-1.384-2.305-5.245-6.2-9.941-4.445l-.676.255L93,96.8c1.4,3.771,5.207,4.753,8.022,4.753a10.994,10.994,0,0,0,1.848-.151l1.029-.179Zm-4.309-.4A5.842,5.842,0,0,1,94.654,97a5.85,5.85,0,0,1,5.089,1.4,11.035,11.035,0,0,1,1.682,1.687,11.547,11.547,0,0,1-2.376-.166" transform="translate(-8.399 -8.643)" fill="#703f2e"/>
      <path id="Path_2949" data-name="Path 2949" d="M101.617,100.233a11.57,11.57,0,0,1-2.376-.166,5.842,5.842,0,0,1-4.394-2.925,5.851,5.851,0,0,1,5.089,1.4,11.285,11.285,0,0,1,1.682,1.687" transform="translate(-8.589 -8.785)" fill="#d4bbaa"/>
      <path id="Path_2950" data-name="Path 2950" d="M63.8,63.06a1.753,1.753,0,1,0,1.752,1.752A1.752,1.752,0,0,0,63.8,63.06" transform="translate(-5.619 -5.711)" fill="#703f2e"/>
      <path id="Path_2951" data-name="Path 2951" d="M63.939,65.267a.316.316,0,1,1,.316-.316.317.317,0,0,1-.316.316" transform="translate(-5.762 -5.853)" fill="#d4bbaa"/>
      <path id="Path_2952" data-name="Path 2952" d="M77.22,80.235a3.848,3.848,0,1,0,3.851,3.846,3.85,3.85,0,0,0-3.851-3.846m0,6.261a2.412,2.412,0,1,1,2.415-2.415A2.415,2.415,0,0,1,77.22,86.5" transform="translate(-6.645 -7.266)" fill="#703f2e"/>
      <path id="Path_2953" data-name="Path 2953" d="M79.778,84.224a2.412,2.412,0,1,1-2.415-2.41,2.416,2.416,0,0,1,2.415,2.41" transform="translate(-6.788 -7.409)" fill="#d4bbaa"/>
      <path id="Path_2954" data-name="Path 2954" d="M67.559,71.518a1.895,1.895,0,1,0,1.894,1.894,1.9,1.9,0,0,0-1.894-1.894" transform="translate(-5.947 -6.477)" fill="#703f2e"/>
      <path id="Path_2955" data-name="Path 2955" d="M67.7,74.014a.456.456,0,1,1,.458-.458.465.465,0,0,1-.458.458" transform="translate(-6.09 -6.62)" fill="#d4bbaa"/>
      <path id="Path_2956" data-name="Path 2956" d="M103.24,16.251a14.432,14.432,0,0,0-4.942.869l-1.853.671,1.853.68a12.971,12.971,0,0,1,0,24.366l-1.843.676,1.843.675a14.4,14.4,0,1,0,4.942-27.937m0,27.371a13.012,13.012,0,0,1-2.608-.26,14.41,14.41,0,0,0,0-25.414,12.969,12.969,0,1,1,2.6,25.674" transform="translate(-8.734 -1.472)" fill="#703f2e"/>
      <path id="Path_2957" data-name="Path 2957" d="M116.621,30.8a12.986,12.986,0,0,1-15.572,12.709,14.411,14.411,0,0,0,0-25.414,12.982,12.982,0,0,1,15.568,12.7" transform="translate(-9.151 -1.615)" fill="#d4bbaa"/>
      <path id="Path_2958" data-name="Path 2958" d="M66.377,13.062l.279-.506.5-.274-.5-.279-.279-.506L66.1,12l-.506.279.506.274Z" transform="translate(-5.94 -1.041)" fill="#703f2e"/>
      <path id="Path_2959" data-name="Path 2959" d="M33.485,17.363l-2.428-1.328L29.724,13.6,28.4,16.035l-2.434,1.328L28.4,18.691l1.328,2.433,1.332-2.433Z" transform="translate(-2.351 -1.232)" fill="#703f2e"/>
      <path id="Path_2960" data-name="Path 2960" d="M43.513,43.471l1.068-1.952,1.947-1.063-1.947-1.068-1.068-1.946L42.45,39.389,40.5,40.457,42.45,41.52Z" transform="translate(-3.668 -3.391)" fill="#703f2e"/>
      <path id="Path_2961" data-name="Path 2961" d="M21.892,60.073l-.142.256-.25.136.25.137.142.255.137-.255.25-.137-.25-.136Z" transform="translate(-1.947 -5.44)" fill="#703f2e"/>
      <path id="Path_2962" data-name="Path 2962" d="M100.484,68.507l.624-1.139,1.143-.624-1.143-.624-.624-1.139-.624,1.139-1.139.624,1.139.624Z" transform="translate(-8.94 -5.885)" fill="#703f2e"/>
      <path id="Path_2963" data-name="Path 2963" d="M124.363,11.056l-.345-.633-.35.633-.628.345.628.345.35.634.345-.634L125,11.4Z" transform="translate(-11.142 -0.944)" fill="#703f2e"/>
      <path id="Path_2964" data-name="Path 2964" d="M126.249,46.78l-.279-.506-.274.506-.506.279.506.278.274.506.279-.506.506-.278Z" transform="translate(-11.337 -4.191)" fill="#703f2e"/>
      <path id="Path_2965" data-name="Path 2965" d="M14.476,48.238l-.5.912-.911.5.911.5.5.912.5-.912.911-.5-.911-.5Z" transform="translate(-1.183 -4.368)" fill="#703f2e"/>
      <rect id="Rectangle_601" data-name="Rectangle 601" width="7.416" height="7.416" transform="translate(0.787 0.787)" fill="#fbf1eb"/>
      <rect id="Rectangle_602" data-name="Rectangle 602" width="7.416" height="7.416" transform="translate(0.787 0.787)" fill="none" stroke="#703f2e" stroke-miterlimit="10" stroke-width="1.5"/>
      <rect id="Rectangle_603" data-name="Rectangle 603" width="7.624" height="7.624" transform="translate(59.306 0.682)" fill="#fbf1eb"/>
      <rect id="Rectangle_604" data-name="Rectangle 604" width="7.624" height="7.624" transform="translate(59.306 0.682)" fill="none" stroke="#703f2e" stroke-miterlimit="10" stroke-width="1.5"/>
      <rect id="Rectangle_605" data-name="Rectangle 605" width="7.624" height="7.624" transform="translate(118.923 0.682)" fill="#fbf1eb"/>
      <rect id="Rectangle_606" data-name="Rectangle 606" width="7.624" height="7.624" transform="translate(118.923 0.682)" fill="none" stroke="#703f2e" stroke-miterlimit="10" stroke-width="1.5"/>
      <rect id="Rectangle_607" data-name="Rectangle 607" width="7.624" height="7.624" transform="translate(0.682 118.888)" fill="#fbf1eb"/>
      <rect id="Rectangle_608" data-name="Rectangle 608" width="7.624" height="7.624" transform="translate(0.682 118.888)" fill="none" stroke="#703f2e" stroke-miterlimit="10" stroke-width="1.5"/>
      <rect id="Rectangle_609" data-name="Rectangle 609" width="7.624" height="7.624" transform="translate(59.306 118.888)" fill="#fbf1eb"/>
      <rect id="Rectangle_610" data-name="Rectangle 610" width="7.624" height="7.624" transform="translate(59.306 118.888)" fill="none" stroke="#703f2e" stroke-miterlimit="10" stroke-width="1.5"/>
      <rect id="Rectangle_611" data-name="Rectangle 611" width="7.624" height="7.624" transform="translate(118.923 118.888)" fill="#fbf1eb"/>
      <rect id="Rectangle_612" data-name="Rectangle 612" width="7.624" height="7.624" transform="translate(118.923 118.888)" fill="none" stroke="#703f2e" stroke-miterlimit="10" stroke-width="1.5"/>
      <rect id="Rectangle_613" data-name="Rectangle 613" width="7.416" height="7.416" transform="translate(0.787 60.011)" fill="#fbf1eb"/>
      <rect id="Rectangle_614" data-name="Rectangle 614" width="7.416" height="7.416" transform="translate(0.787 60.011)" fill="none" stroke="#703f2e" stroke-miterlimit="10" stroke-width="1.5"/>
      <rect id="Rectangle_615" data-name="Rectangle 615" width="7.416" height="7.416" transform="translate(119.131 60.011)" fill="#fbf1eb"/>
      <rect id="Rectangle_616" data-name="Rectangle 616" width="7.416" height="7.416" transform="translate(119.131 60.011)" fill="none" stroke="#703f2e" stroke-miterlimit="10" stroke-width="1.5"/>
    </g>
  </g>
</svg>
