<svg id="Group_2731" data-name="Group 2731" xmlns="http://www.w3.org/2000/svg" xmlns:xlink="http://www.w3.org/1999/xlink" width="151.607" height="135.358" viewBox="0 0 151.607 135.358">
  <defs>
    <clipPath id="clip-path">
      <rect id="Rectangle_636" data-name="Rectangle 636" width="151.607" height="135.358" fill="none"/>
    </clipPath>
    <clipPath id="clip-path-3">
      <rect id="Rectangle_619" data-name="Rectangle 619" width="0.35" height="0.801" fill="none"/>
    </clipPath>
    <clipPath id="clip-path-4">
      <rect id="Rectangle_620" data-name="Rectangle 620" width="1.111" height="0.819" fill="none"/>
    </clipPath>
    <clipPath id="clip-path-5">
      <rect id="Rectangle_621" data-name="Rectangle 621" width="0.976" height="1.471" fill="none"/>
    </clipPath>
    <clipPath id="clip-path-6">
      <rect id="Rectangle_622" data-name="Rectangle 622" width="1.526" height="2.434" fill="none"/>
    </clipPath>
    <clipPath id="clip-path-7">
      <rect id="Rectangle_623" data-name="Rectangle 623" width="1.11" height="0.819" fill="none"/>
    </clipPath>
    <clipPath id="clip-path-8">
      <rect id="Rectangle_624" data-name="Rectangle 624" width="0.977" height="1.471" fill="none"/>
    </clipPath>
  </defs>
  <g id="Group_2139" data-name="Group 2139" clip-path="url(#clip-path)">
    <g id="Group_2138" data-name="Group 2138">
      <g id="Group_2137" data-name="Group 2137" clip-path="url(#clip-path)">
        <path id="Path_2984" data-name="Path 2984" d="M139.241,70.413A58.976,58.976,0,1,1,80.266,11.438a58.975,58.975,0,0,1,58.975,58.975" transform="translate(-1.269 -0.682)" fill="#fbf1eb"/>
        <path id="Path_2985" data-name="Path 2985" d="M139.241,70.413A58.976,58.976,0,1,1,80.266,11.438,58.975,58.975,0,0,1,139.241,70.413Z" transform="translate(-1.269 -0.682)" fill="none" stroke="#703f2e" stroke-miterlimit="10" stroke-width="1.5"/>
        <path id="Path_2986" data-name="Path 2986" d="M107.932,18.547c-19.993-12.3-44.865-4.331-44.865-4.331L66.2,20.2a6.717,6.717,0,0,1,.942,2.641c.153,2.528-2.385,4.269-4.548,5.585-2.735,1.664-5.472,3.621-6.9,6.482-1.083,2.166-1.322,4.667-2.329,6.869A21.357,21.357,0,0,1,49.7,46.844,116.485,116.485,0,0,1,39.6,57.359a95.052,95.052,0,0,0-7.277,6.489c-.591.639-1.191,1.411-.823,2.356a1.891,1.891,0,0,0,1.373,1.119,4.9,4.9,0,0,0,3.5-.978l3.132-1.82a2.789,2.789,0,0,1,3.977,3.486c-.008.019-.016.038-.024.057a44.426,44.426,0,0,1-3.182,5.316,46.019,46.019,0,0,0-3.948,8.662c-1.4,3.922-2.576,8.248-1.232,12.192.985,2.889,3.195,5.172,5.42,7.261,2.195,2.06,4.543,4.136,5.678,6.923s.591,6.532-2.036,8c0,0,13.275,11.218,25.893,11.5,1.274.028-.321-2.412-1.113-3.41A19.757,19.757,0,0,1,64.7,112.776c-.105-4.595,1.359-9.462-.576-13.63-1.775-3.821-6.215-6.524-6.26-10.737-.044-4.18,4.441-7.01,8.575-7.625a3.286,3.286,0,0,1,2.508.358,2.917,2.917,0,0,1,.923,2.073c.35,3.526-1.475,7.821,1.147,10.2A5.119,5.119,0,0,0,73.877,94.6a8.061,8.061,0,0,0,7.04-2.82C82.534,89.817,83.2,87.1,85.17,85.5a12.294,12.294,0,0,1,4.44-1.894c4.512-1.315,9.179-3.367,11.62-7.382,2.279-3.748,2.218-8.589,4.6-12.271,3.485-5.385,10.7-6.466,16.7-8.751,2.136-.815,4.385-2.046,5.124-4.21a6.879,6.879,0,0,0-.179-4.2c-3.12-10.18-15.778-14.769-19.719-24.66-.471-1.183-.738-2.7.176-3.591" transform="translate(-1.871 -0.696)" fill="none" stroke="#703f2e" stroke-miterlimit="10" stroke-width="1.5"/>
        <path id="Path_2987" data-name="Path 2987" d="M107.932,18.547c-19.993-12.3-44.865-4.331-44.865-4.331L66.2,20.2a6.717,6.717,0,0,1,.942,2.641c.153,2.528-2.385,4.269-4.548,5.585-2.735,1.664-5.472,3.621-6.9,6.482-1.083,2.166-1.322,4.667-2.329,6.869A21.357,21.357,0,0,1,49.7,46.844,116.485,116.485,0,0,1,39.6,57.359a95.052,95.052,0,0,0-7.277,6.489c-.591.639-1.191,1.411-.823,2.356a1.891,1.891,0,0,0,1.373,1.119,4.9,4.9,0,0,0,3.5-.978l3.132-1.82a2.789,2.789,0,0,1,3.977,3.486c-.008.019-.016.038-.024.057a44.426,44.426,0,0,1-3.182,5.316,46.019,46.019,0,0,0-3.948,8.662c-1.4,3.922-2.576,8.248-1.232,12.192.985,2.889,3.195,5.172,5.42,7.261,2.195,2.06,4.543,4.136,5.678,6.923s.591,6.532-2.036,8c0,0,13.275,11.218,25.893,11.5,1.274.028-.321-2.412-1.113-3.41A19.757,19.757,0,0,1,64.7,112.776c-.105-4.595,1.359-9.462-.576-13.63-1.775-3.821-6.215-6.524-6.26-10.737-.044-4.18,4.441-7.01,8.575-7.625a3.286,3.286,0,0,1,2.508.358,2.917,2.917,0,0,1,.923,2.073c.35,3.526-1.475,7.821,1.147,10.2A5.119,5.119,0,0,0,73.877,94.6a8.061,8.061,0,0,0,7.04-2.82C82.534,89.817,83.2,87.1,85.17,85.5a12.294,12.294,0,0,1,4.44-1.894c4.512-1.315,9.179-3.367,11.62-7.382,2.279-3.748,2.218-8.589,4.6-12.271,3.485-5.385,10.7-6.466,16.7-8.751,2.136-.815,4.385-2.046,5.124-4.21a6.879,6.879,0,0,0-.179-4.2c-3.12-10.18-15.778-14.769-19.719-24.66-.471-1.183-.738-2.7.176-3.591" transform="translate(-1.871 -0.696)" fill="#fff"/>
        <path id="Path_2988" data-name="Path 2988" d="M107.932,18.547c-19.993-12.3-44.865-4.331-44.865-4.331L66.2,20.2a6.717,6.717,0,0,1,.942,2.641c.153,2.528-2.385,4.269-4.548,5.585-2.735,1.664-5.472,3.621-6.9,6.482-1.083,2.166-1.322,4.667-2.329,6.869A21.357,21.357,0,0,1,49.7,46.844,116.485,116.485,0,0,1,39.6,57.359a95.052,95.052,0,0,0-7.277,6.489c-.591.639-1.191,1.411-.823,2.356a1.891,1.891,0,0,0,1.373,1.119,4.9,4.9,0,0,0,3.5-.978l3.132-1.82a2.789,2.789,0,0,1,3.977,3.486c-.008.019-.016.038-.024.057a44.426,44.426,0,0,1-3.182,5.316,46.019,46.019,0,0,0-3.948,8.662c-1.4,3.922-2.576,8.248-1.232,12.192.985,2.889,3.195,5.172,5.42,7.261,2.195,2.06,4.543,4.136,5.678,6.923s.591,6.532-2.036,8c0,0,13.275,11.218,25.893,11.5,1.274.028-.321-2.412-1.113-3.41A19.757,19.757,0,0,1,64.7,112.776c-.105-4.595,1.359-9.462-.576-13.63-1.775-3.821-6.215-6.524-6.26-10.737-.044-4.18,4.441-7.01,8.575-7.625a3.286,3.286,0,0,1,2.508.358,2.917,2.917,0,0,1,.923,2.073c.35,3.526-1.475,7.821,1.147,10.2A5.119,5.119,0,0,0,73.877,94.6a8.061,8.061,0,0,0,7.04-2.82C82.534,89.817,83.2,87.1,85.17,85.5a12.294,12.294,0,0,1,4.44-1.894c4.512-1.315,9.179-3.367,11.62-7.382,2.279-3.748,2.218-8.589,4.6-12.271,3.485-5.385,10.7-6.466,16.7-8.751,2.136-.815,4.385-2.046,5.124-4.21a6.879,6.879,0,0,0-.179-4.2c-3.12-10.18-15.778-14.769-19.719-24.66-.471-1.183-.738-2.7.176-3.591" transform="translate(-1.871 -0.696)" fill="none" stroke="#703f2e" stroke-miterlimit="10" stroke-width="1.5"/>
        <path id="Path_2989" data-name="Path 2989" d="M33.308,114.023l11.815,10.727a5.4,5.4,0,0,0,7.315-7.932l-9.651-9.038-8.405-7.872a15.592,15.592,0,0,0-10.66-4.213H12.563v22.76a21.137,21.137,0,0,1,13.831,8.211C29.6,131,32.252,135.973,37.1,138.736c3.666,2.089,7.611,1.471,11.648,1.471H75.1a6.143,6.143,0,0,0,0-12.286H58.082" transform="translate(-0.749 -5.703)" fill="#fbf1eb"/>
        <path id="Path_2990" data-name="Path 2990" d="M57.815,129.363H75.03a6.179,6.179,0,0,1,6.214,6.143c0,5.777-6.075,6.358-10.607,6.288q-11.7-.182-23.4-.081c-3.583.027-7.409.286-10.642-1.534-4.908-2.763-7.588-7.732-10.833-12.071a19.739,19.739,0,0,0-13.2-8.211" transform="translate(-0.749 -7.146)" fill="none" stroke="#703f2e" stroke-linecap="round" stroke-miterlimit="10" stroke-width="1.5"/>
        <path id="Path_2991" data-name="Path 2991" d="M13.011,95.695H24.17a15.6,15.6,0,0,1,10.66,4.213l8.405,7.872,9.651,9.038a5.4,5.4,0,0,1-7.314,7.932L33.756,114.023" transform="translate(-0.775 -5.703)" fill="none" stroke="#703f2e" stroke-linecap="round" stroke-miterlimit="10" stroke-width="1.5"/>
        <path id="Path_2992" data-name="Path 2992" d="M.75,112.179V96.511a4.029,4.029,0,0,1,4.029-4.029H8a4.029,4.029,0,0,1,4.029,4.029v22.155A4.029,4.029,0,0,1,8,122.694H4.779A4.029,4.029,0,0,1,.75,118.666v-6.487Z" transform="translate(-0.045 -5.512)" fill="none" stroke="#703f2e" stroke-linecap="round" stroke-miterlimit="10" stroke-width="1.5"/>
        <path id="Path_2993" data-name="Path 2993" d="M.75,112.179V96.511a4.029,4.029,0,0,1,4.029-4.029H8a4.029,4.029,0,0,1,4.029,4.029v22.155A4.029,4.029,0,0,1,8,122.694H4.779A4.029,4.029,0,0,1,.75,118.666v-6.487Z" transform="translate(-0.045 -5.512)" fill="#fff"/>
        <path id="Path_2994" data-name="Path 2994" d="M.75,112.179V96.511a4.029,4.029,0,0,1,4.029-4.029H8a4.029,4.029,0,0,1,4.029,4.029v22.155A4.029,4.029,0,0,1,8,122.694H4.779A4.029,4.029,0,0,1,.75,118.666v-6.487Z" transform="translate(-0.045 -5.512)" fill="none" stroke="#703f2e" stroke-linecap="round" stroke-miterlimit="10" stroke-width="1.5"/>
        <g id="Group_2121" data-name="Group 2121" transform="translate(104.571 44.079)" opacity="0">
          <g id="Group_2120" data-name="Group 2120">
            <g id="Group_2119" data-name="Group 2119" clip-path="url(#clip-path-3)">
              <path id="Path_2995" data-name="Path 2995" d="M111.549,47.251a.43.43,0,0,1-.35.422,5.026,5.026,0,0,0,.126-.8.433.433,0,0,1,.224.378" transform="translate(-111.199 -46.873)" fill="#fff"/>
            </g>
          </g>
        </g>
        <g id="Group_2124" data-name="Group 2124" transform="translate(105.403 55.247)" opacity="0">
          <g id="Group_2123" data-name="Group 2123">
            <g id="Group_2122" data-name="Group 2122" clip-path="url(#clip-path-4)">
              <path id="Path_2996" data-name="Path 2996" d="M113.193,59.339a.812.812,0,0,1-.79.194.958.958,0,0,1-.32-.187c0-.17.006-.372.008-.594a1.262,1.262,0,0,0,.553.132,1.186,1.186,0,0,0,.541-.134c0,.222.006.421.008.59" transform="translate(-112.083 -58.749)" fill="#fff"/>
            </g>
          </g>
        </g>
        <g id="Group_2127" data-name="Group 2127" transform="translate(103.261 48.678)" opacity="0">
          <g id="Group_2126" data-name="Group 2126">
            <g id="Group_2125" data-name="Group 2125" clip-path="url(#clip-path-5)">
              <path id="Path_2997" data-name="Path 2997" d="M110.781,52.5a.729.729,0,0,1-.913.713,1.635,1.635,0,0,1-.049-.218,2.218,2.218,0,0,1,.241-1.229.736.736,0,0,1,.721.734" transform="translate(-109.805 -51.763)" fill="#fff"/>
            </g>
          </g>
        </g>
        <g id="Group_2130" data-name="Group 2130" transform="translate(106.4 44.311)" opacity="0">
          <g id="Group_2129" data-name="Group 2129">
            <g id="Group_2128" data-name="Group 2128" clip-path="url(#clip-path-6)">
              <path id="Path_2998" data-name="Path 2998" d="M114.669,49.524a1.279,1.279,0,0,1-.275.029,1.251,1.251,0,0,1-.408-2.434v0c.01.08.023.162.039.246l.011.063c.009.047.018.092.028.14a.8.8,0,0,0,.33,1.53.84.84,0,0,0,.129-.01c.012.032.024.066.037.1,0,.013.009.028.014.043.012.035.024.068.036.1,0,.015.009.029.015.044.011.036.023.071.032.105l.009.03,0,.011" transform="translate(-113.143 -47.119)" fill="#fff"/>
            </g>
          </g>
        </g>
        <path id="Path_2999" data-name="Path 2999" d="M123.555,27.087,111.74,16.36a5.4,5.4,0,0,0-7.315,7.932l9.651,9.038,8.405,7.872a15.592,15.592,0,0,0,10.66,4.213H144.3V22.656a21.137,21.137,0,0,1-13.831-8.211c-3.208-4.339-5.858-9.308-10.71-12.071C116.093.286,112.148.9,108.111.9H81.762a6.143,6.143,0,0,0,0,12.286H98.781" transform="translate(-4.507 -0.049)" fill="#fbf1eb"/>
        <path id="Path_3000" data-name="Path 3000" d="M99.048,13.186H81.833a6.179,6.179,0,0,1-6.214-6.143c0-5.777,6.075-6.358,10.607-6.288q11.7.182,23.4.081c3.583-.027,7.409-.286,10.642,1.534,4.908,2.763,7.588,7.732,10.833,12.071a19.738,19.738,0,0,0,13.2,8.211" transform="translate(-4.507 -0.045)" fill="none" stroke="#703f2e" stroke-linecap="round" stroke-miterlimit="10" stroke-width="1.5"/>
        <path id="Path_3001" data-name="Path 3001" d="M145.57,46.312H134.411A15.6,15.6,0,0,1,123.75,42.1l-8.405-7.872-9.651-9.038a5.4,5.4,0,0,1,7.314-7.932l11.816,10.727" transform="translate(-6.198 -0.945)" fill="none" stroke="#703f2e" stroke-linecap="round" stroke-miterlimit="10" stroke-width="1.5"/>
        <path id="Path_3002" data-name="Path 3002" d="M159.752,29.844V45.512a4.029,4.029,0,0,1-4.03,4.029H152.5a4.029,4.029,0,0,1-4.029-4.029V23.357a4.029,4.029,0,0,1,4.029-4.029h3.221a4.029,4.029,0,0,1,4.03,4.029v6.487Z" transform="translate(-8.849 -1.152)" fill="#fff"/>
        <path id="Path_3003" data-name="Path 3003" d="M159.752,29.844V45.512a4.029,4.029,0,0,1-4.03,4.029H152.5a4.029,4.029,0,0,1-4.029-4.029V23.357a4.029,4.029,0,0,1,4.029-4.029h3.221a4.029,4.029,0,0,1,4.03,4.029v6.487Z" transform="translate(-8.849 -1.152)" fill="none" stroke="#703f2e" stroke-linecap="round" stroke-miterlimit="10" stroke-width="1.5"/>
        <g id="Group_2133" data-name="Group 2133" transform="translate(45.095 79.291)" opacity="0">
          <g id="Group_2132" data-name="Group 2132">
            <g id="Group_2131" data-name="Group 2131" clip-path="url(#clip-path-7)">
              <path id="Path_3004" data-name="Path 3004" d="M47.953,84.546a.812.812,0,0,1,.79-.194.958.958,0,0,1,.32.187c0,.17-.006.372-.008.594A1.262,1.262,0,0,0,48.5,85a1.186,1.186,0,0,0-.541.134c0-.222-.006-.421-.008-.59" transform="translate(-47.953 -84.317)" fill="#fff"/>
            </g>
          </g>
        </g>
        <g id="Group_2136" data-name="Group 2136" transform="translate(47.371 85.21)" opacity="0">
          <g id="Group_2135" data-name="Group 2135">
            <g id="Group_2134" data-name="Group 2134" clip-path="url(#clip-path-8)">
              <path id="Path_3005" data-name="Path 3005" d="M50.373,91.347a.729.729,0,0,1,.913-.713,1.668,1.668,0,0,1,.049.218,2.214,2.214,0,0,1-.241,1.229.735.735,0,0,1-.721-.734" transform="translate(-50.373 -90.611)" fill="#fff"/>
            </g>
          </g>
        </g>
        <rect id="Rectangle_625" data-name="Rectangle 625" width="13.711" height="5.087" transform="translate(47.521 77.348)" fill="#fff"/>
        <path id="Path_3006" data-name="Path 3006" d="M57.951,87.658h8.292a2.912,2.912,0,1,1,0,5.824H48.036a2.912,2.912,0,0,1,0-5.824h9.915Z" transform="translate(-2.689 -5.224)" fill="#d1b9a8"/>
        <path id="Path_3007" data-name="Path 3007" d="M57.951,87.658h8.292a2.912,2.912,0,1,1,0,5.824H48.036a2.912,2.912,0,0,1,0-5.824h9.915Z" transform="translate(-2.689 -5.224)" fill="none" stroke="#703f2e" stroke-linecap="round" stroke-miterlimit="10" stroke-width="1.5"/>
        <path id="Path_3008" data-name="Path 3008" d="M83.791,77.6H28.9A5.507,5.507,0,0,1,23.4,72.1V31.862a7.343,7.343,0,0,1,7.344-7.344H81.955A7.343,7.343,0,0,1,89.3,31.862V72.1A5.507,5.507,0,0,1,83.791,77.6" transform="translate(-1.395 -1.461)" fill="#fff"/>
        <path id="Path_3009" data-name="Path 3009" d="M26.785,48.334V34.167a6.043,6.043,0,0,1,6.043-6.043H80a6.043,6.043,0,0,1,6.043,6.043V69.258A6.043,6.043,0,0,1,80,75.3H32.828a6.043,6.043,0,0,1-6.043-6.043V59.047" transform="translate(-1.596 -1.676)" fill="#fff"/>
        <path id="Path_3010" data-name="Path 3010" d="M60.074,78.477H81.858a7.3,7.3,0,0,0,7.3-7.3V31.816a7.3,7.3,0,0,0-7.3-7.3h-51.3a7.3,7.3,0,0,0-7.3,7.3V71.18a7.3,7.3,0,0,0,7.3,7.3H60.074Z" transform="translate(-1.386 -1.461)" fill="#d1b9a8"/>
        <path id="Path_3011" data-name="Path 3011" d="M60.074,78.477H81.858a7.3,7.3,0,0,0,7.3-7.3V31.816a7.3,7.3,0,0,0-7.3-7.3h-51.3a7.3,7.3,0,0,0-7.3,7.3V71.18a7.3,7.3,0,0,0,7.3,7.3H60.074Z" transform="translate(-1.386 -1.461)" fill="none" stroke="#703f2e" stroke-linecap="round" stroke-miterlimit="10" stroke-width="1.5"/>
        <path id="Path_3012" data-name="Path 3012" d="M26.785,59.047V69.258A6.043,6.043,0,0,0,32.828,75.3H80a6.043,6.043,0,0,0,6.043-6.043V34.167A6.043,6.043,0,0,0,80,28.124H32.828a6.043,6.043,0,0,0-6.043,6.043v24.88Z" transform="translate(-1.596 -1.676)" fill="#fff"/>
        <path id="Path_3013" data-name="Path 3013" d="M26.785,59.047V69.258A6.043,6.043,0,0,0,32.828,75.3H80a6.043,6.043,0,0,0,6.043-6.043V34.167A6.043,6.043,0,0,0,80,28.124H32.828a6.043,6.043,0,0,0-6.043,6.043v24.88Z" transform="translate(-1.596 -1.676)" fill="none" stroke="#703f2e" stroke-miterlimit="10" stroke-width="1.5"/>
        <line id="Line_16" data-name="Line 16" y2="5.087" transform="translate(47.521 77.348)" fill="none" stroke="#703f2e" stroke-miterlimit="10" stroke-width="1.5"/>
        <path id="Path_3014" data-name="Path 3014" d="M57.951,87.658h8.292a2.912,2.912,0,1,1,0,5.824H48.036a2.912,2.912,0,0,1,0-5.824h9.915Z" transform="translate(-2.689 -5.224)" fill="none" stroke="#703f2e" stroke-miterlimit="10" stroke-width="1.5"/>
        <line id="Line_17" data-name="Line 17" y2="5.087" transform="translate(61.232 77.348)" fill="none" stroke="#703f2e" stroke-miterlimit="10" stroke-width="1.5"/>
        <line id="Line_18" data-name="Line 18" x2="54.549" transform="translate(28.097 34.989)" fill="none" stroke="#703f2e" stroke-linecap="round" stroke-miterlimit="10" stroke-width="1.5"/>
        <path id="Path_3015" data-name="Path 3015" d="M33.666,34.134A1.032,1.032,0,1,1,32.635,33.1a1.031,1.031,0,0,1,1.032,1.032" transform="translate(-1.884 -1.973)" fill="#703f2e"/>
        <path id="Path_3016" data-name="Path 3016" d="M38.487,34.134A1.032,1.032,0,1,1,37.456,33.1a1.031,1.031,0,0,1,1.032,1.032" transform="translate(-2.171 -1.973)" fill="#703f2e"/>
        <path id="Path_3017" data-name="Path 3017" d="M43.308,34.134A1.032,1.032,0,1,1,42.277,33.1a1.031,1.031,0,0,1,1.032,1.032" transform="translate(-2.458 -1.973)" fill="#703f2e"/>
        <line id="Line_19" data-name="Line 19" x2="21.353" transform="translate(28.834 59.435)" fill="none" stroke="#703f2e" stroke-linecap="round" stroke-miterlimit="10" stroke-width="1.5"/>
        <line id="Line_20" data-name="Line 20" x2="49.462" transform="translate(28.834 65.964)" fill="none" stroke="#703f2e" stroke-linecap="round" stroke-miterlimit="10" stroke-width="1.5"/>
        <line id="Line_21" data-name="Line 21" x2="8.772" transform="translate(28.834 69.228)" fill="none" stroke="#703f2e" stroke-linecap="round" stroke-miterlimit="10" stroke-width="1.5"/>
        <line id="Line_22" data-name="Line 22" x2="21.353" transform="translate(28.834 62.699)" fill="none" stroke="#703f2e" stroke-linecap="round" stroke-miterlimit="10" stroke-width="1.5"/>
        <line id="Line_23" data-name="Line 23" x2="7.003" transform="translate(52.632 62.699)" fill="none" stroke="#703f2e" stroke-linecap="round" stroke-miterlimit="10" stroke-width="1.5"/>
        <line id="Line_24" data-name="Line 24" x2="7.003" transform="translate(63.247 62.699)" fill="none" stroke="#703f2e" stroke-linecap="round" stroke-miterlimit="10" stroke-width="1.5"/>
        <path id="Path_3018" data-name="Path 3018" d="M81.676,57.875H31.832A1.172,1.172,0,0,1,30.659,56.7V41.786a1.172,1.172,0,0,1,1.173-1.173H81.676a1.172,1.172,0,0,1,1.172,1.173V56.7a1.172,1.172,0,0,1-1.172,1.173" transform="translate(-1.827 -2.421)" fill="#cfb7a6"/>
        <rect id="Rectangle_626" data-name="Rectangle 626" width="52.189" height="17.262" rx="1.247" transform="translate(28.831 38.192)" fill="none" stroke="#703f2e" stroke-miterlimit="10" stroke-width="1"/>
        <line id="Line_25" data-name="Line 25" x2="51.441" y2="16.173" transform="translate(29.205 38.742)" fill="#cfb7a6"/>
        <line id="Line_26" data-name="Line 26" x2="51.441" y2="16.173" transform="translate(29.205 38.742)" fill="none" stroke="#703f2e" stroke-miterlimit="10" stroke-width="1"/>
        <line id="Line_27" data-name="Line 27" x1="51.441" y2="16.173" transform="translate(29.206 38.742)" fill="#cfb7a6"/>
        <line id="Line_28" data-name="Line 28" x1="51.441" y2="16.173" transform="translate(29.206 38.742)" fill="none" stroke="#703f2e" stroke-miterlimit="10" stroke-width="1"/>
        <path id="Path_3019" data-name="Path 3019" d="M131.965,125.141H89.152a1.628,1.628,0,0,1-1.629-1.629V91.333A1.629,1.629,0,0,1,89.152,89.7h42.814a1.629,1.629,0,0,1,1.629,1.629v32.18a1.628,1.628,0,0,1-1.629,1.629" transform="translate(-5.216 -5.346)" fill="#fff"/>
        <rect id="Rectangle_627" data-name="Rectangle 627" width="46.071" height="35.437" rx="1.732" transform="translate(82.306 84.357)" fill="none" stroke="#703f2e" stroke-miterlimit="10" stroke-width="1"/>
        <path id="Path_3020" data-name="Path 3020" d="M124.978,96.553H109.222a2,2,0,0,1,0-4h15.755a2,2,0,1,1,0,4Z" transform="translate(-6.391 -5.516)" fill="none" stroke="#703f2e" stroke-miterlimit="10" stroke-width="1"/>
        <path id="Path_3021" data-name="Path 3021" d="M107.124,120.714H92.051a1.068,1.068,0,0,1-1.068-1.068V103.088a1.026,1.026,0,0,1,1.025-1.026h15.116a1.027,1.027,0,0,1,1.026,1.026v16.6a1.026,1.026,0,0,1-1.026,1.026" transform="translate(-5.423 -6.083)" fill="#cfb7a6"/>
        <path id="Path_3022" data-name="Path 3022" d="M107.124,120.714H92.051a1.068,1.068,0,0,1-1.068-1.068V103.088a1.026,1.026,0,0,1,1.025-1.026h15.116a1.027,1.027,0,0,1,1.026,1.026v16.6A1.026,1.026,0,0,1,107.124,120.714Z" transform="translate(-5.423 -6.083)" fill="none" stroke="#703f2e" stroke-miterlimit="10" stroke-width="1"/>
        <line id="Line_29" data-name="Line 29" y1="16.703" x2="15.404" transform="translate(86.302 96.721)" fill="none" stroke="#703f2e" stroke-linecap="round" stroke-miterlimit="10" stroke-width="1"/>
        <line id="Line_30" data-name="Line 30" x1="15.404" y1="16.703" transform="translate(86.493 97.009)" fill="none" stroke="#703f2e" stroke-linecap="round" stroke-miterlimit="10" stroke-width="1"/>
        <path id="Path_3023" data-name="Path 3023" d="M114.216,103.842a1.1,1.1,0,1,1-1.1-1.1,1.1,1.1,0,0,1,1.1,1.1" transform="translate(-6.676 -6.124)" fill="#cfb7a6"/>
        <path id="Path_3024" data-name="Path 3024" d="M114.216,103.842a1.1,1.1,0,1,1-1.1-1.1A1.1,1.1,0,0,1,114.216,103.842Z" transform="translate(-6.676 -6.124)" fill="none" stroke="#703f2e" stroke-miterlimit="10" stroke-width="1"/>
        <line id="Line_31" data-name="Line 31" x2="12.823" transform="translate(109.948 97.385)" fill="none" stroke="#703f2e" stroke-linecap="round" stroke-miterlimit="10" stroke-width="1"/>
        <path id="Path_3025" data-name="Path 3025" d="M114.216,109.22a1.1,1.1,0,1,1-1.1-1.1,1.1,1.1,0,0,1,1.1,1.1" transform="translate(-6.676 -6.444)" fill="#cfb7a6"/>
        <path id="Path_3026" data-name="Path 3026" d="M114.216,109.22a1.1,1.1,0,1,1-1.1-1.1A1.1,1.1,0,0,1,114.216,109.22Z" transform="translate(-6.676 -6.444)" fill="none" stroke="#703f2e" stroke-miterlimit="10" stroke-width="1"/>
        <line id="Line_32" data-name="Line 32" x2="12.823" transform="translate(109.948 102.443)" fill="none" stroke="#703f2e" stroke-linecap="round" stroke-miterlimit="10" stroke-width="1"/>
        <path id="Path_3027" data-name="Path 3027" d="M114.216,114.6a1.1,1.1,0,1,1-1.1-1.1,1.1,1.1,0,0,1,1.1,1.1" transform="translate(-6.676 -6.765)" fill="#cfb7a6"/>
        <path id="Path_3028" data-name="Path 3028" d="M114.216,114.6a1.1,1.1,0,1,1-1.1-1.1A1.1,1.1,0,0,1,114.216,114.6Z" transform="translate(-6.676 -6.765)" fill="none" stroke="#703f2e" stroke-miterlimit="10" stroke-width="1"/>
        <line id="Line_33" data-name="Line 33" x2="12.823" transform="translate(109.948 107.501)" fill="none" stroke="#703f2e" stroke-linecap="round" stroke-miterlimit="10" stroke-width="1"/>
        <path id="Path_3029" data-name="Path 3029" d="M114.216,119.977a1.1,1.1,0,1,1-1.1-1.1,1.1,1.1,0,0,1,1.1,1.1" transform="translate(-6.676 -7.085)" fill="#cfb7a6"/>
        <path id="Path_3030" data-name="Path 3030" d="M114.216,119.977a1.1,1.1,0,1,1-1.1-1.1A1.1,1.1,0,0,1,114.216,119.977Z" transform="translate(-6.676 -7.085)" fill="none" stroke="#703f2e" stroke-miterlimit="10" stroke-width="1"/>
        <line id="Line_34" data-name="Line 34" x2="12.823" transform="translate(109.948 112.558)" fill="none" stroke="#703f2e" stroke-linecap="round" stroke-miterlimit="10" stroke-width="1"/>
        <path id="Path_3031" data-name="Path 3031" d="M129.574,94.216c.008-.051.014-.1.024-.154a1.251,1.251,0,0,1,2.32-.357,1.211,1.211,0,0,1,.146.444,1.235,1.235,0,0,1-.167.8c-.012.019-.007.029.008.042l.677.677a.251.251,0,0,1-.318.387c-.017-.014-.033-.029-.049-.045-.216-.216-.434-.433-.649-.65-.021-.02-.034-.024-.059-.008a1.242,1.242,0,0,1-1.519-.118,1.238,1.238,0,0,1-.4-.734c-.006-.033-.009-.066-.014-.1Zm2.094.092a.844.844,0,1,0-.838.845.845.845,0,0,0,.838-.845" transform="translate(-7.723 -5.546)" fill="#703f2e"/>
        <path id="Path_3032" data-name="Path 3032" d="M129.574,94.216c.008-.051.014-.1.024-.154a1.251,1.251,0,0,1,2.32-.357,1.211,1.211,0,0,1,.146.444,1.235,1.235,0,0,1-.167.8c-.012.019-.007.029.008.042l.677.677a.251.251,0,0,1-.318.387c-.017-.014-.033-.029-.049-.045-.216-.216-.434-.433-.649-.65-.021-.02-.034-.024-.059-.008a1.242,1.242,0,0,1-1.519-.118,1.238,1.238,0,0,1-.4-.734c-.006-.033-.009-.066-.014-.1Zm2.094.092a.844.844,0,1,0-.838.845A.845.845,0,0,0,131.668,94.308Z" transform="translate(-7.723 -5.546)" fill="none" stroke="#703f2e" stroke-miterlimit="10" stroke-width="0.25"/>
        <path id="Path_3033" data-name="Path 3033" d="M94.43,94.262c-.025.093-.105.139-.17.2q-.309.275-.623.546a.048.048,0,0,0-.013.058q.1.463.21.925a.187.187,0,0,1-.068.2.184.184,0,0,1-.214,0c-.271-.163-.543-.324-.813-.488a.051.051,0,0,0-.063,0c-.271.163-.543.324-.813.488a.185.185,0,0,1-.283-.1.214.214,0,0,1,0-.1q.106-.464.213-.928A.061.061,0,0,0,91.766,95c-.239-.208-.477-.418-.714-.626a.178.178,0,0,1-.06-.2.173.173,0,0,1,.158-.126l.5-.046.463-.041c.026,0,.035-.017.044-.038.123-.291.248-.582.371-.873a.185.185,0,0,1,.351,0c.123.291.247.58.37.871a.059.059,0,0,0,.059.041l.656.059c.1.009.2.017.294.027a.177.177,0,0,1,.163.142l.006.008Z" transform="translate(-5.423 -5.538)" fill="#cfb7a6"/>
        <path id="Path_3034" data-name="Path 3034" d="M94.43,94.262c-.025.093-.105.139-.17.2q-.309.275-.623.546a.048.048,0,0,0-.013.058q.1.463.21.925a.187.187,0,0,1-.068.2.184.184,0,0,1-.214,0c-.271-.163-.543-.324-.813-.488a.051.051,0,0,0-.063,0c-.271.163-.543.324-.813.488a.185.185,0,0,1-.283-.1.214.214,0,0,1,0-.1q.106-.464.213-.928A.061.061,0,0,0,91.766,95c-.239-.208-.477-.418-.714-.626a.178.178,0,0,1-.06-.2.173.173,0,0,1,.158-.126l.5-.046.463-.041c.026,0,.035-.017.044-.038.123-.291.248-.582.371-.873a.185.185,0,0,1,.351,0c.123.291.247.58.37.871a.059.059,0,0,0,.059.041l.656.059c.1.009.2.017.294.027a.177.177,0,0,1,.163.142l.006.008Z" transform="translate(-5.423 -5.538)" fill="none" stroke="#703f2e" stroke-miterlimit="10" stroke-width="0.5"/>
        <path id="Path_3035" data-name="Path 3035" d="M144.241,94.9h-40.23a3.049,3.049,0,0,1-3.049-3.049V62.481a3.048,3.048,0,0,1,3.049-3.049h40.23a3.048,3.048,0,0,1,3.049,3.049V91.853a3.049,3.049,0,0,1-3.049,3.049" transform="translate(-6.017 -3.542)" fill="#fff"/>
        <rect id="Rectangle_628" data-name="Rectangle 628" width="46.328" height="35.47" rx="3.242" transform="translate(94.945 55.89)" fill="none" stroke="#703f2e" stroke-miterlimit="10" stroke-width="1"/>
        <path id="Path_3036" data-name="Path 3036" d="M145.123,94.9H103.13a2.168,2.168,0,0,1-2.168-2.168V61.6a2.167,2.167,0,0,1,2.168-2.167h41.994a2.167,2.167,0,0,1,2.168,2.167V92.734a2.168,2.168,0,0,1-2.168,2.168" transform="translate(-6.017 -3.542)" fill="#fff"/>
        <path id="Rectangle_629" data-name="Rectangle 629" d="M2.3,0H44.024a2.305,2.305,0,0,1,2.305,2.305V33.166a2.3,2.3,0,0,1-2.3,2.3H2.3a2.3,2.3,0,0,1-2.3-2.3V2.3A2.3,2.3,0,0,1,2.3,0Z" transform="translate(94.945 55.89)" fill="none" stroke="#703f2e" stroke-miterlimit="10" stroke-width="1"/>
        <line id="Line_35" data-name="Line 35" x2="26.421" transform="translate(97.478 75.917)" fill="none" stroke="#703f2e" stroke-linecap="round" stroke-miterlimit="10" stroke-width="1"/>
        <line id="Line_36" data-name="Line 36" x2="26.421" transform="translate(97.478 78.451)" fill="none" stroke="#703f2e" stroke-linecap="round" stroke-miterlimit="10" stroke-width="1"/>
        <line id="Line_37" data-name="Line 37" x2="26.421" transform="translate(97.478 80.984)" fill="none" stroke="#703f2e" stroke-linecap="round" stroke-miterlimit="10" stroke-width="1"/>
        <path id="Path_3037" data-name="Path 3037" d="M128.574,94.754H103.666a.4.4,0,0,1-.395-.395V90.746a.4.4,0,0,1,.395-.4h24.908a.4.4,0,0,1,.395.4v3.613a.4.4,0,0,1-.395.395" transform="translate(-6.155 -5.385)" fill="#cfb7a6"/>
        <rect id="Rectangle_630" data-name="Rectangle 630" width="25.698" height="4.404" rx="0.42" transform="translate(97.116 84.966)" fill="none" stroke="#703f2e" stroke-miterlimit="10" stroke-width="1"/>
        <path id="Path_3038" data-name="Path 3038" d="M145.992,94.754H132.756a.4.4,0,0,1-.395-.395V90.746a.4.4,0,0,1,.395-.4h13.236a.4.4,0,0,1,.395.4v3.613a.4.4,0,0,1-.395.395" transform="translate(-7.889 -5.385)" fill="#cfb7a6"/>
        <rect id="Rectangle_631" data-name="Rectangle 631" width="14.026" height="4.404" rx="0.42" transform="translate(124.473 84.966)" fill="none" stroke="#703f2e" stroke-miterlimit="10" stroke-width="1"/>
        <path id="Path_3039" data-name="Path 3039" d="M146.036,85.769H133.494a.4.4,0,0,1-.395-.395v-4.7a.394.394,0,0,1,.395-.394h12.542a.394.394,0,0,1,.395.394v4.7a.4.4,0,0,1-.395.395" transform="translate(-7.933 -4.785)" fill="#cfb7a6"/>
        <path id="Rectangle_632" data-name="Rectangle 632" d="M.42,0H12.912a.42.42,0,0,1,.42.42V5.07a.419.419,0,0,1-.419.419H.42A.42.42,0,0,1,0,5.069V.42A.42.42,0,0,1,.42,0Z" transform="translate(125.167 75.495)" fill="none" stroke="#703f2e" stroke-miterlimit="10" stroke-width="1"/>
        <line id="Line_38" data-name="Line 38" y1="4.839" x2="12.614" transform="translate(125.526 75.744)" fill="none" stroke="#703f2e" stroke-linecap="round" stroke-miterlimit="10" stroke-width="1"/>
        <line id="Line_39" data-name="Line 39" x1="12.614" y1="4.839" transform="translate(125.526 75.941)" fill="none" stroke="#703f2e" stroke-linecap="round" stroke-miterlimit="10" stroke-width="1"/>
        <path id="Path_3040" data-name="Path 3040" d="M105.518,77.917h17.369a1.862,1.862,0,0,0,1.862-1.862V63.493a1.862,1.862,0,0,0-1.862-1.862H105.518a1.862,1.862,0,0,0-1.862,1.862V76.055a1.862,1.862,0,0,0,1.862,1.862" transform="translate(-6.178 -3.673)" fill="#fff"/>
        <rect id="Rectangle_633" data-name="Rectangle 633" width="21.093" height="16.286" rx="1.98" transform="translate(97.478 57.957)" fill="none" stroke="#703f2e" stroke-miterlimit="10" stroke-width="1"/>
        <rect id="Rectangle_634" data-name="Rectangle 634" width="21.093" height="16.286" rx="1.411" transform="translate(97.478 57.957)" fill="none" stroke="#703f2e" stroke-miterlimit="10" stroke-width="1"/>
        <line id="Line_40" data-name="Line 40" x2="18.157" transform="translate(119.858 65.53)" fill="none" stroke="#703f2e" stroke-linecap="round" stroke-miterlimit="10" stroke-width="1"/>
        <line id="Line_41" data-name="Line 41" x2="18.157" transform="translate(119.858 68.317)" fill="none" stroke="#703f2e" stroke-linecap="round" stroke-miterlimit="10" stroke-width="1"/>
        <line id="Line_42" data-name="Line 42" x2="18.157" transform="translate(119.858 71.103)" fill="none" stroke="#703f2e" stroke-linecap="round" stroke-miterlimit="10" stroke-width="1"/>
        <line id="Line_43" data-name="Line 43" x2="18.157" transform="translate(119.858 73.022)" fill="none" stroke="#703f2e" stroke-linecap="round" stroke-miterlimit="10" stroke-width="1"/>
        <path id="Path_3041" data-name="Path 3041" d="M103.656,69.093s5.166-6.389,14.564.751l6.528,4.127v2.442a1.79,1.79,0,0,1-1.79,1.791H105.447a1.79,1.79,0,0,1-1.791-1.791Z" transform="translate(-6.178 -3.961)" fill="#cfb7a6"/>
        <path id="Path_3042" data-name="Path 3042" d="M103.656,69.093s5.166-6.389,14.564.751l6.528,4.127v2.442a1.79,1.79,0,0,1-1.79,1.791H105.447a1.79,1.79,0,0,1-1.791-1.791Z" transform="translate(-6.178 -3.961)" fill="none" stroke="#703f2e" stroke-miterlimit="10" stroke-width="1"/>
        <path id="Path_3043" data-name="Path 3043" d="M103.656,74.52s1.538-.688,6.054.641a10.105,10.105,0,0,0,8.263-1.478,9.042,9.042,0,0,1,6.775-2.019V77.1a1.4,1.4,0,0,1-1.381,1.415H105.037a1.4,1.4,0,0,1-1.381-1.415Z" transform="translate(-6.178 -4.267)" fill="#fbf1eb"/>
        <path id="Path_3044" data-name="Path 3044" d="M103.656,74.52s1.538-.688,6.054.641a10.105,10.105,0,0,0,8.263-1.478,9.042,9.042,0,0,1,6.775-2.019V77.1a1.4,1.4,0,0,1-1.381,1.415H105.037a1.4,1.4,0,0,1-1.381-1.415Z" transform="translate(-6.178 -4.267)" fill="none" stroke="#703f2e" stroke-miterlimit="10" stroke-width="1"/>
      </g>
    </g>
  </g>
</svg>
