<svg id="Group_2730" data-name="Group 2730" xmlns="http://www.w3.org/2000/svg" xmlns:xlink="http://www.w3.org/1999/xlink" width="118.313" height="142.975" viewBox="0 0 118.313 142.975">
  <defs>
    <clipPath id="clip-path">
      <rect id="Rectangle_618" data-name="Rectangle 618" width="118.313" height="142.975" fill="none"/>
    </clipPath>
  </defs>
  <g id="Group_2117" data-name="Group 2117" clip-path="url(#clip-path)">
    <path id="Path_2966" data-name="Path 2966" d="M29.442,116.8,3.711,110.254a4.92,4.92,0,0,1-3.557-5.983L6,81.285a4.922,4.922,0,0,1,5.983-3.557L37.713,84.27a4.923,4.923,0,0,1,3.557,5.983L35.425,113.24a4.922,4.922,0,0,1-5.983,3.557" transform="translate(0 -0.165)" fill="#d1b9a8"/>
    <path id="Path_2967" data-name="Path 2967" d="M32.935,114.876,7.2,108.333a4.919,4.919,0,0,1-3.557-5.982L9.491,79.364a4.92,4.92,0,0,1,5.983-3.556L41.2,82.349a4.924,4.924,0,0,1,3.557,5.984L38.917,111.32a4.921,4.921,0,0,1-5.982,3.556" transform="translate(-0.007 -0.161)" fill="#fff"/>
    <path id="Path_2968" data-name="Path 2968" d="M32.935,114.876,7.2,108.333a4.919,4.919,0,0,1-3.557-5.982L9.491,79.364a4.92,4.92,0,0,1,5.983-3.556L41.2,82.349a4.924,4.924,0,0,1,3.557,5.984L38.917,111.32A4.921,4.921,0,0,1,32.935,114.876Z" transform="translate(-0.007 -0.161)" fill="none" stroke="#703f2e" stroke-miterlimit="10" stroke-width="1.5"/>
    <path id="Path_2969" data-name="Path 2969" d="M27.022,90.89l.484-1.908a1.044,1.044,0,0,1,1.346-.879l2.678.682,1.04-4.087-3.684-.954c-4.092-1.04-5.8,1.773-6.294,3.725l-.549,2.156-2.366-.6-.732,2.885L18.465,93.8l2.387.607c-1.376,5.408-3.035,11.932-3.035,11.932l4.774,1.213,3.033-11.932,3.542.9.649-1.831,1-2.831Z" transform="translate(-0.038 -0.178)" fill="#d1b9a8"/>
    <path id="Path_2970" data-name="Path 2970" d="M27.022,90.89l.484-1.908a1.044,1.044,0,0,1,1.346-.879l2.678.682,1.04-4.087-3.684-.954c-4.092-1.04-5.8,1.773-6.294,3.725l-.549,2.156-2.366-.6-.732,2.885L18.465,93.8l2.387.607c-1.376,5.408-3.035,11.932-3.035,11.932l4.774,1.213,3.033-11.932,3.542.9.649-1.831,1-2.831Z" transform="translate(-0.038 -0.178)" fill="none" stroke="#703f2e" stroke-linecap="round" stroke-miterlimit="10" stroke-width="1.5"/>
    <path id="Path_2971" data-name="Path 2971" d="M83.845,139.91l-27.452,3.252a5.124,5.124,0,0,1-5.692-4.486l-2.906-24.524a5.124,5.124,0,0,1,4.486-5.692l27.452-3.253a5.124,5.124,0,0,1,5.692,4.486l2.906,24.525a5.125,5.125,0,0,1-4.486,5.692" transform="translate(-0.102 -0.224)" fill="#d1b9a8"/>
    <path id="Path_2972" data-name="Path 2972" d="M86.523,136.739l-27.452,3.252a5.124,5.124,0,0,1-5.692-4.486l-2.906-24.524a5.124,5.124,0,0,1,4.486-5.692l27.451-3.253a5.125,5.125,0,0,1,5.693,4.486l2.9,24.525a5.125,5.125,0,0,1-4.485,5.692" transform="translate(-0.107 -0.217)" fill="#fff"/>
    <path id="Path_2973" data-name="Path 2973" d="M86.523,136.739l-27.452,3.252a5.124,5.124,0,0,1-5.692-4.486l-2.906-24.524a5.124,5.124,0,0,1,4.486-5.692l27.451-3.253a5.125,5.125,0,0,1,5.693,4.486l2.9,24.525A5.125,5.125,0,0,1,86.523,136.739Z" transform="translate(-0.107 -0.217)" fill="none" stroke="#703f2e" stroke-miterlimit="10" stroke-width="1.5"/>
    <path id="Path_2974" data-name="Path 2974" d="M40.392,45.531a11.816,11.816,0,0,1-7.236-11.188c0-6.232,4.376-11.339,9.93-11.8" transform="translate(-0.071 -0.048)" fill="#fbf1eb"/>
    <path id="Path_2975" data-name="Path 2975" d="M40.392,45.531a11.816,11.816,0,0,1-7.236-11.188c0-6.232,4.376-11.339,9.93-11.8" transform="translate(-0.071 -0.048)" fill="none" stroke="#703f2e" stroke-linecap="round" stroke-miterlimit="10" stroke-width="1.5"/>
    <path id="Path_2976" data-name="Path 2976" d="M90.617,76.385,96.981,26.1l13.193,2.959a9.059,9.059,0,0,1,5.609,3.813,13.07,13.07,0,0,1,1.775,9.439s-1.764,8.9-10.949,7.379l-2.377,38.95a2.011,2.011,0,0,1-.7,1.267,4.618,4.618,0,0,1-3.651,1.182l-7.629-.746a3.2,3.2,0,0,1-2.871-3.57Z" transform="translate(-0.19 -0.056)" fill="#d1b9a8"/>
    <path id="Path_2977" data-name="Path 2977" d="M90.617,76.385,96.981,26.1l13.193,2.959a9.059,9.059,0,0,1,5.609,3.813,13.07,13.07,0,0,1,1.775,9.439s-1.764,8.9-10.949,7.379l-2.377,38.95a2.011,2.011,0,0,1-.7,1.267,4.618,4.618,0,0,1-3.651,1.182l-7.629-.746a3.2,3.2,0,0,1-2.871-3.57Z" transform="translate(-0.19 -0.056)" fill="none" stroke="#703f2e" stroke-linecap="round" stroke-miterlimit="10" stroke-width="1.5"/>
    <path id="Path_2978" data-name="Path 2978" d="M45,62.125C73.45,47.823,93.782,48.8,93.782,48.8l3.1-22.747S69.816,22.735,51.571,7.482" transform="translate(-0.096 -0.016)" fill="#fff"/>
    <path id="Path_2979" data-name="Path 2979" d="M45,62.125C73.45,47.823,93.782,48.8,93.782,48.8l3.1-22.747S69.816,22.735,51.571,7.482" transform="translate(-0.096 -0.016)" fill="none" stroke="#703f2e" stroke-linecap="round" stroke-miterlimit="10" stroke-width="1.5"/>
    <path id="Path_2980" data-name="Path 2980" d="M38.18,64.492l1.377-11.759,2.865-24.475L44.885,7.225c.3-2.539.136-6.788,3.877-6.456,2.92.258,2.77,3.067,2.532,5.147q-.409,3.559-.818,7.118Q49.186,24.261,47.9,35.489q-1.251,10.9-2.5,21.8-.437,3.8-.873,7.6a3.289,3.289,0,0,1-3.547,2.934s-2.649-.084-2.791-3.333" transform="translate(-0.081 -0.002)" fill="#d1b9a8"/>
    <path id="Path_2981" data-name="Path 2981" d="M38.18,64.492l1.377-11.759,2.865-24.475L44.885,7.225c.3-2.539.136-6.788,3.877-6.456,2.92.258,2.77,3.067,2.532,5.147q-.409,3.559-.818,7.118Q49.186,24.261,47.9,35.489q-1.251,10.9-2.5,21.8-.437,3.8-.873,7.6a3.289,3.289,0,0,1-3.547,2.934S38.322,67.741,38.18,64.492Z" transform="translate(-0.081 -0.002)" fill="none" stroke="#703f2e" stroke-linecap="round" stroke-miterlimit="10" stroke-width="1.5"/>
    <path id="Path_2982" data-name="Path 2982" d="M60.176,118.3c.059-.372.1-.746.178-1.116A9.046,9.046,0,0,1,77.137,114.6,8.691,8.691,0,0,1,78.19,117.8a8.937,8.937,0,0,1-1.211,5.8c-.083.141-.044.212.056.311q2.453,2.446,4.9,4.9a1.831,1.831,0,0,1,.531,1.951,1.81,1.81,0,0,1-2.831.849c-.123-.1-.242-.21-.355-.322q-2.35-2.347-4.7-4.7c-.146-.147-.24-.179-.429-.054a9,9,0,0,1-10.986-.858,8.976,8.976,0,0,1-2.894-5.317c-.04-.235-.066-.473-.1-.709Zm15.151.665a6.106,6.106,0,1,0-6.062,6.113,6.109,6.109,0,0,0,6.062-6.113" transform="translate(-0.128 -0.234)" fill="#d1b9a8"/>
    <path id="Path_2983" data-name="Path 2983" d="M60.176,118.3c.059-.372.1-.746.178-1.116A9.046,9.046,0,0,1,77.137,114.6,8.691,8.691,0,0,1,78.19,117.8a8.937,8.937,0,0,1-1.211,5.8c-.083.141-.044.212.056.311q2.453,2.446,4.9,4.9a1.831,1.831,0,0,1,.531,1.951,1.81,1.81,0,0,1-2.831.849c-.123-.1-.242-.21-.355-.322q-2.35-2.347-4.7-4.7c-.146-.147-.24-.179-.429-.054a9,9,0,0,1-10.986-.858,8.976,8.976,0,0,1-2.894-5.317c-.04-.235-.066-.473-.1-.709Zm15.151.665a6.106,6.106,0,1,0-6.062,6.113A6.109,6.109,0,0,0,75.327,118.962Z" transform="translate(-0.128 -0.234)" fill="none" stroke="#703f2e" stroke-linecap="round" stroke-miterlimit="10" stroke-width="1.5"/>
    <line id="Line_15" data-name="Line 15" y1="54.643" x2="6.567" transform="translate(44.908 7.466)" fill="none" stroke="#703f2e" stroke-linecap="round" stroke-miterlimit="10" stroke-width="1.5"/>
  </g>
</svg>
