<svg xmlns="http://www.w3.org/2000/svg" width="115.698" height="131.875" viewBox="0 0 115.698 131.875">
  <g id="Group_2968" data-name="Group 2968" transform="translate(7460.666 -9421.615)">
    <path id="Path_3061" data-name="Path 3061" d="M62.962,0H4.818A4.817,4.817,0,0,0,0,4.818V108a4.817,4.817,0,0,0,4.818,4.818H81.606A4.815,4.815,0,0,0,86.418,108V25.338L66.658,1.725A4.822,4.822,0,0,0,62.962,0" transform="translate(-7460.666 9421.617)" fill="#fcedc1"/>
    <text id="_8" data-name="8" transform="translate(-7454.904 9489.4)" fill="#fee28e" font-size="40" font-family="Arial-BoldMT, Arial" font-weight="700"><tspan x="0" y="36">8</tspan></text>
    <path id="Union_5" data-name="Union 5" d="M-3318.107,4.308A4.9,4.9,0,0,1-3323-.585V-11.249h69.908a4.8,4.8,0,0,0,4.8-4.791V-46.455h-12.832v13.867l-28.343-28.432,28.343-26v12.608l12.832.038V-100l11.862,14.168A4.917,4.917,0,0,1-3235.3-82.7v8.366l8.8.026a3.732,3.732,0,0,1,3.717,3.73v34.113a4.916,4.916,0,0,1-4.915,4.915h-7.6V-.585a4.892,4.892,0,0,1-4.893,4.893Z" transform="translate(-4122.685 9548.682)" fill="#fee28e" stroke="rgba(0,0,0,0)" stroke-miterlimit="10" stroke-width="1"/>
    <rect id="Rectangle_654" data-name="Rectangle 654" width="115.198" height="131.372" transform="translate(-7460.666 9421.615)" fill="none"/>
    <rect id="Rectangle_655" data-name="Rectangle 655" width="115.198" height="131.372" transform="translate(-7460.666 9421.615)" fill="none"/>
    <rect id="Rectangle_654-2" data-name="Rectangle 654" width="115.198" height="131.372" transform="translate(-7460.666 9421.615)" fill="none"/>
    <rect id="Rectangle_655-2" data-name="Rectangle 655" width="115.198" height="131.372" transform="translate(-7460.666 9421.615)" fill="none"/>
  </g>
</svg>
