<svg xmlns="http://www.w3.org/2000/svg" width="106.144" height="105.834" viewBox="0 0 106.144 105.834">
  <g id="Group_2970" data-name="Group 2970" transform="translate(6530.667 -9102.488)">
    <path id="Path_3071" data-name="Path 3071" d="M88.614,91.7H4.415a2.976,2.976,0,0,1-2.976-2.976V4.522A2.974,2.974,0,0,1,4.415,1.553h84.2A2.974,2.974,0,0,1,91.59,4.522v84.2A2.976,2.976,0,0,1,88.614,91.7" transform="translate(-6524.339 9109.427)" fill="#fcedc1"/>
    <line id="Line_124" data-name="Line 124" x2="7.484" transform="translate(-6433.006 9125.331)" fill="none" stroke="#fcedc1" stroke-linecap="round" stroke-miterlimit="10" stroke-width="2"/>
    <line id="Line_125" data-name="Line 125" x2="7.484" transform="translate(-6433.006 9140.51)" fill="none" stroke="#fcedc1" stroke-linecap="round" stroke-miterlimit="10" stroke-width="2"/>
    <line id="Line_126" data-name="Line 126" x2="7.484" transform="translate(-6433.006 9155.374)" fill="none" stroke="#fcedc1" stroke-linecap="round" stroke-miterlimit="10" stroke-width="2"/>
    <line id="Line_127" data-name="Line 127" x2="7.484" transform="translate(-6433.006 9171.277)" fill="none" stroke="#fcedc1" stroke-linecap="round" stroke-miterlimit="10" stroke-width="2"/>
    <line id="Line_128" data-name="Line 128" x2="7.484" transform="translate(-6433.006 9186.044)" fill="none" stroke="#fcedc1" stroke-linecap="round" stroke-miterlimit="10" stroke-width="2"/>
    <line id="Line_129" data-name="Line 129" x2="7.484" transform="translate(-6529.667 9125.331)" fill="none" stroke="#fcedc1" stroke-linecap="round" stroke-miterlimit="10" stroke-width="2"/>
    <line id="Line_130" data-name="Line 130" x2="7.484" transform="translate(-6529.667 9140.51)" fill="none" stroke="#fcedc1" stroke-linecap="round" stroke-miterlimit="10" stroke-width="2"/>
    <line id="Line_131" data-name="Line 131" x2="7.484" transform="translate(-6529.667 9155.374)" fill="none" stroke="#fcedc1" stroke-linecap="round" stroke-miterlimit="10" stroke-width="2"/>
    <line id="Line_132" data-name="Line 132" x2="7.484" transform="translate(-6529.667 9171.277)" fill="none" stroke="#fcedc1" stroke-linecap="round" stroke-miterlimit="10" stroke-width="2"/>
    <line id="Line_133" data-name="Line 133" x2="7.484" transform="translate(-6529.667 9186.044)" fill="none" stroke="#fcedc1" stroke-linecap="round" stroke-miterlimit="10" stroke-width="2"/>
    <line id="Line_134" data-name="Line 134" y2="7.484" transform="translate(-6447.468 9103.488)" fill="none" stroke="#fcedc1" stroke-linecap="round" stroke-miterlimit="10" stroke-width="2"/>
    <line id="Line_135" data-name="Line 135" y2="7.484" transform="translate(-6462.646 9103.488)" fill="none" stroke="#fcedc1" stroke-linecap="round" stroke-miterlimit="10" stroke-width="2"/>
    <line id="Line_136" data-name="Line 136" y2="7.484" transform="translate(-6477.51 9103.488)" fill="none" stroke="#fcedc1" stroke-linecap="round" stroke-miterlimit="10" stroke-width="2"/>
    <line id="Line_137" data-name="Line 137" y2="7.484" transform="translate(-6493.413 9103.488)" fill="none" stroke="#fcedc1" stroke-linecap="round" stroke-miterlimit="10" stroke-width="2"/>
    <line id="Line_138" data-name="Line 138" y2="7.484" transform="translate(-6508.181 9103.488)" fill="none" stroke="#fcedc1" stroke-linecap="round" stroke-miterlimit="10" stroke-width="2"/>
    <line id="Line_139" data-name="Line 139" y2="7.484" transform="translate(-6447.468 9199.839)" fill="none" stroke="#fcedc1" stroke-linecap="round" stroke-miterlimit="10" stroke-width="2"/>
    <line id="Line_140" data-name="Line 140" y2="7.484" transform="translate(-6462.646 9199.839)" fill="none" stroke="#fcedc1" stroke-linecap="round" stroke-miterlimit="10" stroke-width="2"/>
    <line id="Line_141" data-name="Line 141" y2="7.484" transform="translate(-6477.51 9199.839)" fill="none" stroke="#fcedc1" stroke-linecap="round" stroke-miterlimit="10" stroke-width="2"/>
    <line id="Line_142" data-name="Line 142" y2="7.484" transform="translate(-6493.413 9199.839)" fill="none" stroke="#fcedc1" stroke-linecap="round" stroke-miterlimit="10" stroke-width="2"/>
    <line id="Line_143" data-name="Line 143" y2="7.484" transform="translate(-6508.181 9199.839)" fill="none" stroke="#fcedc1" stroke-linecap="round" stroke-miterlimit="10" stroke-width="2"/>
    <path id="Path_69" data-name="Path 69" d="M21.6,26.386v5.587c-5.013-2.913-9.879-5.746-14.9-8.664,5.013-2.913,9.862-5.729,14.876-8.647v4.871a3.264,3.264,0,0,0,.642.074c2.657-.2,5.326-.341,7.972-.63A61.13,61.13,0,0,0,41.055,16.91a11.129,11.129,0,0,0,4.116-1.982A5.723,5.723,0,0,0,46.7,12.947a2.552,2.552,0,0,0-.738-2.555c-.664-.84-1.459-1.578-2.141-2.481.994.63,2,1.238,2.969,1.891A14.825,14.825,0,0,1,48,10.829c2.958,2.487,2.43,5.888-.261,8.153a25.51,25.51,0,0,1-8.619,4.372A76.315,76.315,0,0,1,25.185,26.17c-1.147.153-2.311.142-3.588.216" transform="translate(-6499.96 9143.195)" fill="#fee28e"/>
    <path id="Path_70" data-name="Path 70" d="M8.949,29.151a14,14,0,0,1-4.792-3.634,7.137,7.137,0,0,1-.943-1.527,3.969,3.969,0,0,1,.335-3.946A11.14,11.14,0,0,1,8.4,15.985a35.841,35.841,0,0,1,9.346-3.321q4.539-.894,9.118-1.607c1.385-.221,2.8-.233,4.3-.346V5.18c5.065,2.924,9.959,5.746,15.006,8.658-5,2.873-9.913,5.695-14.938,8.579V17.523c-.466,0-.835-.028-1.2.006-3.974.4-7.955.766-11.918,1.238a30.635,30.635,0,0,0-7.875,1.97,13.122,13.122,0,0,0-2.873,1.612,2.871,2.871,0,0,0-.539,4.463c.7.874,1.5,1.664,2.112,2.339" transform="translate(-6508.526 9131.755)" fill="#fee28e"/>
  </g>
</svg>
