<svg xmlns="http://www.w3.org/2000/svg" xmlns:xlink="http://www.w3.org/1999/xlink" width="233.384" height="234.666" viewBox="0 0 233.384 234.666">
  <defs>
    <clipPath id="clip-path">
      <rect id="Rectangle_584" data-name="Rectangle 584" width="4.905" height="62.116" fill="none"/>
    </clipPath>
  </defs>
  <g id="Group_3321" data-name="Group 3321" transform="translate(8735.827 -8763.693)">
    <g id="Group_3310" data-name="Group 3310" transform="translate(-1292.4 -213.361)">
      <path id="Path_3057" data-name="Path 3057" d="M62.962,0H4.818A4.817,4.817,0,0,0,0,4.818V108a4.817,4.817,0,0,0,4.818,4.818H81.606A4.815,4.815,0,0,0,86.418,108V25.338L66.658,1.725A4.822,4.822,0,0,0,62.962,0" transform="translate(-7325.741 9079.849)" fill="#fee28e"/>
      <text id="_16" data-name="16" transform="translate(-7319.979 9147.631)" fill="#fcedc1" font-size="40" font-family="Arial-BoldMT, Arial" font-weight="700"><tspan x="0" y="36">16</tspan></text>
      <path id="Union_4" data-name="Union 4" d="M-3318.107,4.308A4.9,4.9,0,0,1-3323-.585V-11.249h69.908a4.8,4.8,0,0,0,4.8-4.791V-46.455h-12.832v13.867l-28.343-28.432,28.343-26v12.608l12.832.038V-100l11.862,14.168A4.917,4.917,0,0,1-3235.3-82.7v8.366l8.8.026a3.732,3.732,0,0,1,3.717,3.73v34.113a4.916,4.916,0,0,1-4.915,4.915h-7.6V-.585a4.892,4.892,0,0,1-4.893,4.893Z" transform="translate(-3987.76 9206.912)" fill="#fcedc1" stroke="rgba(0,0,0,0)" stroke-miterlimit="10" stroke-width="1"/>
    </g>
    <g id="Group_3311" data-name="Group 3311" transform="translate(-8719.928 -1121.684)">
      <g id="Group_2939" data-name="Group 2939" transform="matrix(0.998, -0.07, 0.07, 0.998, -4570.335, 7111.523)">
        <g id="Group_2101" data-name="Group 2101" transform="matrix(-0.669, 0.743, -0.743, -0.669, 4394.339, 3193.528)">
          <g id="Group_2100" data-name="Group 2100" transform="translate(0 0)" clip-path="url(#clip-path)">
            <path id="Path_2922" data-name="Path 2922" d="M3.47,60.682C3.47,57.648,0,57.648,0,54.614s3.47-3.034,3.47-6.068S0,45.513,0,42.479s3.47-3.034,3.47-6.067S0,33.378,0,30.344s3.47-3.034,3.47-6.068S0,21.241,0,18.207s3.47-3.034,3.47-6.068S0,9.1,0,6.07,3.47,3.036,3.47,0" transform="translate(0.717 0.717)" fill="none" stroke="#f39321" stroke-linecap="round" stroke-miterlimit="10" stroke-width="1"/>
          </g>
        </g>
        <g id="Group_2102" data-name="Group 2102" transform="matrix(-0.996, 0.087, -0.087, -0.996, 4501.091, 3156.875)">
          <g id="Group_2100-2" data-name="Group 2100" transform="translate(0 0)" clip-path="url(#clip-path)">
            <path id="Path_2922-2" data-name="Path 2922" d="M3.47,60.682C3.47,57.648,0,57.648,0,54.614s3.47-3.034,3.47-6.068S0,45.513,0,42.479s3.47-3.034,3.47-6.067S0,33.378,0,30.344s3.47-3.034,3.47-6.068S0,21.241,0,18.207s3.47-3.034,3.47-6.068S0,9.1,0,6.07,3.47,3.036,3.47,0" transform="translate(0.717 0.717)" fill="none" stroke="#f39321" stroke-linecap="round" stroke-miterlimit="10" stroke-width="1"/>
          </g>
        </g>
      </g>
      <text id="ICON_" data-name="ICON  " transform="matrix(0.921, -0.391, 0.391, 0.921, 12.011, 9941.817)" fill="#f39321" stroke="#f39321" stroke-width="1" font-size="28" font-family="Impact" letter-spacing="0.02em"><tspan x="26.144" y="28" xml:space="preserve">ICON  </tspan></text>
    </g>
  </g>
</svg>
