<svg xmlns="http://www.w3.org/2000/svg" xmlns:xlink="http://www.w3.org/1999/xlink" width="107.12" height="125.108" viewBox="0 0 107.12 125.108">
  <defs>
    <clipPath id="clip-path">
      <rect id="Rectangle_95" data-name="Rectangle 95" width="107.12" height="125.108" fill="#fcedc1"/>
    </clipPath>
  </defs>
  <g id="Group_2961" data-name="Group 2961" transform="translate(8342.052 -10156.931)">
    <rect id="Rectangle_900" data-name="Rectangle 900" width="107" height="98" rx="18" transform="translate(-8342 10184)" fill="#fee28e"/>
    <rect id="Rectangle_898" data-name="Rectangle 898" width="54" height="71" transform="translate(-8313 10162)" fill="#fee28e"/>
    <rect id="Rectangle_899" data-name="Rectangle 899" width="82" height="20" transform="translate(-8329 10247)" fill="#fee28e"/>
    <g id="Group_105" data-name="Group 105" transform="translate(-8342.052 10156.931)" clip-path="url(#clip-path)">
      <path id="Path_33" data-name="Path 33" d="M89.634,9.581h-74.2A15.308,15.308,0,0,0,.136,24.89V37.9a15.3,15.3,0,0,0,15.3,15.3h74.2a15.3,15.3,0,0,0,15.309-15.3V24.89A15.31,15.31,0,0,0,89.634,9.581M21.526,34.62A3.225,3.225,0,1,1,24.647,31.4a3.174,3.174,0,0,1-3.121,3.223m63.081.34H33.025a3.568,3.568,0,0,1,0-7.136H84.607a3.568,3.568,0,0,1,0,7.136" transform="translate(1.021 71.908)" fill="#fcedc1"/>
      <path id="Path_34" data-name="Path 34" d="M91.973,0H15.147A15.233,15.233,0,0,0,0,15.309V92.67a15.231,15.231,0,0,1,15.147-15.3H91.973a15.225,15.225,0,0,1,15.147,15.3V15.309A15.227,15.227,0,0,0,91.973,0m-18.4,37.643L50.009,74.52,54.67,47.262a1.928,1.928,0,0,0-1.9-2.254h-17.6a1.932,1.932,0,0,1-1.624-2.977L57.647,4.746,51.974,32.293a1.924,1.924,0,0,0,1.88,2.313l18.107.068a1.929,1.929,0,0,1,1.616,2.968" transform="translate(0 0.003)" fill="#fcedc1"/>
    </g>
  </g>
</svg>
