<svg xmlns="http://www.w3.org/2000/svg" xmlns:xlink="http://www.w3.org/1999/xlink" width="238.198" height="239.443" viewBox="0 0 238.198 239.443">
  <defs>
    <clipPath id="clip-path">
      <rect id="Rectangle_105" data-name="Rectangle 105" width="93.664" height="122.277" fill="#fee28e"/>
    </clipPath>
    <clipPath id="clip-path-2">
      <rect id="Rectangle_584" data-name="Rectangle 584" width="4.905" height="62.116" fill="none"/>
    </clipPath>
  </defs>
  <g id="Group_3324" data-name="Group 3324" transform="translate(9278.829 -9054.693)">
    <g id="Group_3299" data-name="Group 3299" transform="translate(-11411.051 8894.237)">
      <g id="Group_141" data-name="Group 141" transform="translate(2276.755 277.623)">
        <g id="Group_140" data-name="Group 140" transform="translate(0 0)" clip-path="url(#clip-path)">
          <path id="Path_50" data-name="Path 50" d="M68.242,0H5.223A5.221,5.221,0,0,0,0,5.223V117.054a5.221,5.221,0,0,0,5.223,5.223H88.449a5.219,5.219,0,0,0,5.215-5.223V29.963a6.877,6.877,0,0,0-1.6-4.421L72.247,1.869A5.226,5.226,0,0,0,68.242,0" transform="translate(0 0.001)" fill="#fee28e"/>
        </g>
      </g>
      <text id="Txt" transform="translate(2288.136 355.921)" fill="#fcedc1" font-size="28" font-family="Arial-BoldMT, Arial" font-weight="700"><tspan x="0" y="25">Txt</tspan></text>
    </g>
    <g id="Group_3314" data-name="Group 3314" transform="translate(-9262.93 -830.684)">
      <g id="Group_2939" data-name="Group 2939" transform="matrix(0.998, -0.07, 0.07, 0.998, -4570.335, 7111.523)">
        <g id="Group_2101" data-name="Group 2101" transform="matrix(-0.669, 0.743, -0.743, -0.669, 4394.339, 3193.528)">
          <g id="Group_2100" data-name="Group 2100" transform="translate(0 0)" clip-path="url(#clip-path-2)">
            <path id="Path_2922" data-name="Path 2922" d="M3.47,60.682C3.47,57.648,0,57.648,0,54.614s3.47-3.034,3.47-6.068S0,45.513,0,42.479s3.47-3.034,3.47-6.067S0,33.378,0,30.344s3.47-3.034,3.47-6.068S0,21.241,0,18.207s3.47-3.034,3.47-6.068S0,9.1,0,6.07,3.47,3.036,3.47,0" transform="translate(0.717 0.717)" fill="none" stroke="#f39321" stroke-linecap="round" stroke-miterlimit="10" stroke-width="1"/>
          </g>
        </g>
        <g id="Group_2102" data-name="Group 2102" transform="matrix(-0.996, 0.087, -0.087, -0.996, 4501.091, 3156.875)">
          <g id="Group_2100-2" data-name="Group 2100" transform="translate(0 0)" clip-path="url(#clip-path-2)">
            <path id="Path_2922-2" data-name="Path 2922" d="M3.47,60.682C3.47,57.648,0,57.648,0,54.614s3.47-3.034,3.47-6.068S0,45.513,0,42.479s3.47-3.034,3.47-6.067S0,33.378,0,30.344s3.47-3.034,3.47-6.068S0,21.241,0,18.207s3.47-3.034,3.47-6.068S0,9.1,0,6.07,3.47,3.036,3.47,0" transform="translate(0.717 0.717)" fill="none" stroke="#f39321" stroke-linecap="round" stroke-miterlimit="10" stroke-width="1"/>
          </g>
        </g>
      </g>
      <text id="ICON_" data-name="ICON  " transform="matrix(0.921, -0.391, 0.391, 0.921, 12.011, 9941.817)" fill="#f39321" stroke="#f39321" stroke-width="1" font-size="28" font-family="Impact" letter-spacing="0.02em"><tspan x="26.144" y="28" xml:space="preserve">ICON  </tspan></text>
    </g>
  </g>
</svg>
