<svg xmlns="http://www.w3.org/2000/svg" xmlns:xlink="http://www.w3.org/1999/xlink" width="266.809" height="231.119" viewBox="0 0 266.809 231.119">
  <defs>
    <clipPath id="clip-path">
      <rect id="Rectangle_584" data-name="Rectangle 584" width="4.905" height="62.116" fill="none"/>
    </clipPath>
  </defs>
  <g id="Group_3319" data-name="Group 3319" transform="translate(9278.829 -8763.693)">
    <g id="Group_3306" data-name="Group 3306" transform="translate(-9588.533 -1215.684)">
      <rect id="Rectangle_901" data-name="Rectangle 901" width="85" height="67" rx="7" transform="translate(491.513 10118.811)" fill="#fcedc1"/>
      <g id="Group_2208" data-name="Group 2208" transform="translate(425.759 10082.068)">
        <line id="Line_96" data-name="Line 96" y1="1.371" x2="100.071" transform="translate(22.678 18.68)" fill="#868686"/>
        <path id="Path_20" data-name="Path 20" d="M117.045,0H4.969A4.968,4.968,0,0,0,0,4.969v71.91a4.968,4.968,0,0,0,4.969,4.969H21.944V18.82a4.968,4.968,0,0,1,4.969-4.969h95.1V4.969A4.968,4.968,0,0,0,117.045,0" transform="translate(0)" fill="#fee28e"/>
        <g id="Group_198" data-name="Group 198" transform="translate(27.261 20.048)">
          <path id="Path_71" data-name="Path 71" d="M29.7,27.1H10.4a4.225,4.225,0,0,1-4.223-4.231v-11.9h27.75v11.9A4.232,4.232,0,0,1,29.7,27.1" transform="translate(41.691 74.033)" fill="#fee28e"/>
          <line id="Line_123" data-name="Line 123" x2="48.247" transform="translate(37.622 106.879)" fill="none" stroke="#fee28e" stroke-linecap="round" stroke-miterlimit="10" stroke-width="3"/>
          <path id="Path_72" data-name="Path 72" d="M118.456,0H5.029A5.029,5.029,0,0,0,0,5.029V77.811A5.034,5.034,0,0,0,5.029,82.84H112.241L107.32,77.92l-4.9-4.9c-.163-.163-.333-.318-.511-.5a28.585,28.585,0,0,1-7.4,4.51A28.025,28.025,0,1,1,78.183,23.7,27.67,27.67,0,0,1,97,26.472a2.276,2.276,0,0,1,1.333,2.588,2.142,2.142,0,0,1-1.992,1.759,3.068,3.068,0,0,1-1.519-.356,23.344,23.344,0,0,0-8.207-2.588A23.525,23.525,0,0,0,60.476,47.86a23.494,23.494,0,0,0,46.349,7.672c1.5-8.307-.93-15.514-7-21.435a2.47,2.47,0,0,1-.86-2.5,2.124,2.124,0,0,1,1.627-1.573,2.1,2.1,0,0,1,2.069.535,27.942,27.942,0,0,1,2.743,38.382c-.062.093-.147.186-.209.279l-.054.155q2.3,2.313,4.626,4.642c2.666,2.65,5.339,5.293,7.974,7.959a2.252,2.252,0,0,1,.527.86h.186a5.03,5.03,0,0,0,5.037-5.029V5.029A5.025,5.025,0,0,0,118.456,0M93.031,60.832a2.251,2.251,0,0,1-3.092-.279Q87.172,57.787,84.406,55c-.17-.186-.333-.387-.535-.628-1.767,1.751-3.433,3.41-5.1,5.06-.4.4-.783.806-1.186,1.186a2.253,2.253,0,0,1-3.255,0,2.222,2.222,0,0,1,.07-3.193c1.906-1.922,3.82-3.82,5.742-5.734.147-.139.271-.294.473-.5l-1.6-1.581c-1.5-1.5-3.014-2.983-4.5-4.487a2.265,2.265,0,1,1,3.169-3.216q2.767,2.767,5.518,5.549a8.8,8.8,0,0,1,.566.674c.511-.542.945-.992,1.387-1.434,1.627-1.635,3.239-3.278,4.882-4.905a2.2,2.2,0,0,1,2.573-.449A2.127,2.127,0,0,1,93.837,43.7a3.106,3.106,0,0,1-.775,1.426c-1.806,1.86-3.65,3.673-5.494,5.494-.186.178-.4.318-.643.511.256.279.418.465.589.635,1.883,1.875,3.774,3.743,5.642,5.634a2.241,2.241,0,0,1-.124,3.433" fill="#fee28e"/>
        </g>
      </g>
    </g>
    <g id="Group_3307" data-name="Group 3307" transform="translate(-9262.93 -1121.684)">
      <g id="Group_2939" data-name="Group 2939" transform="matrix(0.998, -0.07, 0.07, 0.998, -4570.335, 7111.523)">
        <g id="Group_2101" data-name="Group 2101" transform="matrix(-0.669, 0.743, -0.743, -0.669, 4394.339, 3193.528)">
          <g id="Group_2100" data-name="Group 2100" transform="translate(0 0)" clip-path="url(#clip-path)">
            <path id="Path_2922" data-name="Path 2922" d="M3.47,60.682C3.47,57.648,0,57.648,0,54.614s3.47-3.034,3.47-6.068S0,45.513,0,42.479s3.47-3.034,3.47-6.067S0,33.378,0,30.344s3.47-3.034,3.47-6.068S0,21.241,0,18.207s3.47-3.034,3.47-6.068S0,9.1,0,6.07,3.47,3.036,3.47,0" transform="translate(0.717 0.717)" fill="none" stroke="#f39321" stroke-linecap="round" stroke-miterlimit="10" stroke-width="1"/>
          </g>
        </g>
        <g id="Group_2102" data-name="Group 2102" transform="matrix(-0.996, 0.087, -0.087, -0.996, 4501.091, 3156.875)">
          <g id="Group_2100-2" data-name="Group 2100" transform="translate(0 0)" clip-path="url(#clip-path)">
            <path id="Path_2922-2" data-name="Path 2922" d="M3.47,60.682C3.47,57.648,0,57.648,0,54.614s3.47-3.034,3.47-6.068S0,45.513,0,42.479s3.47-3.034,3.47-6.067S0,33.378,0,30.344s3.47-3.034,3.47-6.068S0,21.241,0,18.207s3.47-3.034,3.47-6.068S0,9.1,0,6.07,3.47,3.036,3.47,0" transform="translate(0.717 0.717)" fill="none" stroke="#f39321" stroke-linecap="round" stroke-miterlimit="10" stroke-width="1"/>
          </g>
        </g>
      </g>
      <text id="ICON_" data-name="ICON  " transform="matrix(0.921, -0.391, 0.391, 0.921, 12.011, 9941.817)" fill="#f39321" stroke="#f39321" stroke-width="1" font-size="28" font-family="Impact" letter-spacing="0.02em"><tspan x="26.144" y="28" xml:space="preserve">ICON  </tspan></text>
    </g>
  </g>
</svg>
