<svg xmlns="http://www.w3.org/2000/svg" xmlns:xlink="http://www.w3.org/1999/xlink" width="246.412" height="227.843" viewBox="0 0 246.412 227.843">
  <defs>
    <clipPath id="clip-path">
      <rect id="Rectangle_584" data-name="Rectangle 584" width="4.905" height="62.116" fill="none"/>
    </clipPath>
  </defs>
  <g id="Group_3318" data-name="Group 3318" transform="translate(9546.827 -8763.693)">
    <g id="Group_3304" data-name="Group 3304" transform="translate(-9860.057 -1552.684)">
      <g id="Group_2930" data-name="Group 2930" transform="translate(8563.642 407.851)">
        <rect id="Rectangle_901" data-name="Rectangle 901" width="85" height="67" rx="7" transform="translate(-8089 10042)" fill="#fcedc1"/>
        <g id="Group_2207" data-name="Group 2207" transform="translate(-8137.883 10019.145)">
          <path id="Path_71" data-name="Path 71" d="M31.643,28.43H10.75a4.575,4.575,0,0,1-4.573-4.581V10.969H36.224v12.88a4.582,4.582,0,0,1-4.581,4.581" transform="translate(45.653 81.068)" fill="#fee28e"/>
          <path id="Path_3056" data-name="Path 3056" d="M0,0H52.241" transform="translate(40.737 115.723)" fill="none" stroke="#fee28e" stroke-linecap="round" stroke-width="3"/>
          <path id="Path_72" data-name="Path 72" d="M128.26,0H5.446A5.445,5.445,0,0,0,0,5.446V84.251A5.45,5.45,0,0,0,5.446,89.7H121.531L116.2,84.369l-5.3-5.3c-.176-.176-.361-.344-.554-.537a30.95,30.95,0,0,1-8.013,4.883A30.344,30.344,0,1,1,84.654,25.659a29.96,29.96,0,0,1,20.373,3,2.465,2.465,0,0,1,1.443,2.8,2.319,2.319,0,0,1-2.156,1.9,3.321,3.321,0,0,1-1.645-.386,25.276,25.276,0,0,0-8.886-2.8,25.472,25.472,0,0,0-28.3,21.64,25.439,25.439,0,0,0,50.185,8.307c1.628-8.995-1.007-16.8-7.577-23.209a2.674,2.674,0,0,1-.931-2.7,2.3,2.3,0,0,1,1.762-1.7,2.271,2.271,0,0,1,2.24.579,30.254,30.254,0,0,1,2.97,41.559c-.067.1-.159.2-.227.3l-.059.168q2.492,2.5,5.009,5.026c2.886,2.87,5.781,5.731,8.634,8.617a2.438,2.438,0,0,1,.571.931h.2a5.447,5.447,0,0,0,5.454-5.446V5.446A5.441,5.441,0,0,0,128.26,0M100.73,65.867a2.438,2.438,0,0,1-3.348-.3q-3-3-5.991-6.008c-.185-.2-.361-.42-.579-.68-1.913,1.9-3.717,3.692-5.521,5.479-.436.428-.847.873-1.284,1.284a2.44,2.44,0,0,1-3.524,0,2.406,2.406,0,0,1,.076-3.457c2.064-2.081,4.137-4.137,6.218-6.209.159-.151.294-.319.512-.545l-1.737-1.712c-1.628-1.619-3.264-3.23-4.875-4.858a2.453,2.453,0,1,1,3.432-3.482q3,3,5.974,6.008a9.527,9.527,0,0,1,.613.73c.554-.587,1.024-1.074,1.5-1.552,1.762-1.77,3.507-3.549,5.286-5.311a2.382,2.382,0,0,1,2.786-.487,2.3,2.3,0,0,1,1.334,2.551,3.364,3.364,0,0,1-.839,1.544c-1.955,2.014-3.952,3.977-5.949,5.949-.2.193-.436.344-.7.554.277.3.453.5.638.688,2.039,2.031,4.086,4.053,6.108,6.1a2.427,2.427,0,0,1-.134,3.717" fill="#fee28e"/>
        </g>
      </g>
    </g>
    <g id="Group_3305" data-name="Group 3305" transform="translate(-9530.928 -1121.684)">
      <g id="Group_2939" data-name="Group 2939" transform="matrix(0.998, -0.07, 0.07, 0.998, -4570.335, 7111.523)">
        <g id="Group_2101" data-name="Group 2101" transform="matrix(-0.669, 0.743, -0.743, -0.669, 4394.339, 3193.528)">
          <g id="Group_2100" data-name="Group 2100" transform="translate(0 0)" clip-path="url(#clip-path)">
            <path id="Path_2922" data-name="Path 2922" d="M3.47,60.682C3.47,57.648,0,57.648,0,54.614s3.47-3.034,3.47-6.068S0,45.513,0,42.479s3.47-3.034,3.47-6.067S0,33.378,0,30.344s3.47-3.034,3.47-6.068S0,21.241,0,18.207s3.47-3.034,3.47-6.068S0,9.1,0,6.07,3.47,3.036,3.47,0" transform="translate(0.717 0.717)" fill="none" stroke="#f39321" stroke-linecap="round" stroke-miterlimit="10" stroke-width="1"/>
          </g>
        </g>
        <g id="Group_2102" data-name="Group 2102" transform="matrix(-0.996, 0.087, -0.087, -0.996, 4501.091, 3156.875)">
          <g id="Group_2100-2" data-name="Group 2100" transform="translate(0 0)" clip-path="url(#clip-path)">
            <path id="Path_2922-2" data-name="Path 2922" d="M3.47,60.682C3.47,57.648,0,57.648,0,54.614s3.47-3.034,3.47-6.068S0,45.513,0,42.479s3.47-3.034,3.47-6.067S0,33.378,0,30.344s3.47-3.034,3.47-6.068S0,21.241,0,18.207s3.47-3.034,3.47-6.068S0,9.1,0,6.07,3.47,3.036,3.47,0" transform="translate(0.717 0.717)" fill="none" stroke="#f39321" stroke-linecap="round" stroke-miterlimit="10" stroke-width="1"/>
          </g>
        </g>
      </g>
      <text id="ICON_" data-name="ICON  " transform="matrix(0.921, -0.391, 0.391, 0.921, 12.011, 9941.817)" fill="#f39321" stroke="#f39321" stroke-width="1" font-size="28" font-family="Impact" letter-spacing="0.02em"><tspan x="26.144" y="28" xml:space="preserve">ICON  </tspan></text>
    </g>
  </g>
</svg>
