<svg xmlns="http://www.w3.org/2000/svg" width="134.025" height="117.195" viewBox="0 0 134.025 117.195">
  <g id="Group_2967" data-name="Group 2967" transform="translate(-1340.787 -10588.952)">
    <path id="Path_3066" data-name="Path 3066" d="M128.591,89.91H5.433A5.431,5.431,0,0,1,0,84.476V5.433A5.431,5.431,0,0,1,5.433,0H128.591a5.431,5.431,0,0,1,5.433,5.433V84.476a5.431,5.431,0,0,1-5.433,5.433" transform="translate(1340.787 10588.951)" fill="#fcedc1"/>
    <path id="Path_3064" data-name="Path 3064" d="M31.7,28.453H10.761A4.586,4.586,0,0,1,6.177,23.86V10.95H36.3V23.86A4.593,4.593,0,0,1,31.7,28.453" transform="translate(1386.268 10669.871)" fill="#fcedc1"/>
    <path id="Path_3065" data-name="Path 3065" d="M0,0H52.365" transform="translate(1380.705 10704.647)" fill="none" stroke="#fcedc1" stroke-linecap="round" stroke-width="3"/>
    <path id="Path_3067" data-name="Path 3067" d="M13.836,30.034c4.7-1.581,4.281-6.56,4.281-6.56a8.442,8.442,0,0,1,2.439-6.1l-.008-.008a7.125,7.125,0,0,1,5.963-1.783,7.053,7.053,0,0,0,4.567-.942l.05-.034C35.8,11.775,33.9,6.165,33.9,6.165a5.712,5.712,0,0,0-3.482-3.751,7.749,7.749,0,0,0-5.156-.227c-4.76,1.413-4.525,6.4-4.525,6.4a8.426,8.426,0,0,1-2.658,6A7.106,7.106,0,0,1,12.087,16.7a7.046,7.046,0,0,0-4.525,1.11l-.059.034c-4.55,3.011-2.448,8.545-2.448,8.545A5.738,5.738,0,0,0,8.68,30a7.746,7.746,0,0,0,5.156.034" transform="translate(1374.656 10602.677)" fill="#fee28e"/>
    <path id="Path_3068" data-name="Path 3068" d="M25.013,31.8c-4.7-1.581-4.281-6.56-4.281-6.56a8.442,8.442,0,0,0-2.439-6.1l.008-.008a7.153,7.153,0,0,0-5.963-1.783,7.053,7.053,0,0,1-4.567-.942l-.05-.034C3.053,13.542,4.953,7.932,4.953,7.932A5.712,5.712,0,0,1,8.435,4.181a7.749,7.749,0,0,1,5.156-.227c4.76,1.413,4.525,6.4,4.525,6.4a8.427,8.427,0,0,0,2.658,6,7.106,7.106,0,0,0,5.988,2.111,7.046,7.046,0,0,1,4.525,1.11l.059.034c4.55,3.011,2.448,8.545,2.448,8.545a5.738,5.738,0,0,1-3.625,3.617,7.746,7.746,0,0,1-5.156.034" transform="translate(1374.66 10615.772)" fill="#fee28e"/>
    <path id="Path_3069" data-name="Path 3069" d="M28.281,31.851c-4.7-1.581-4.289-6.56-4.289-6.56a8.442,8.442,0,0,0-2.439-6.1l.008-.008A7.143,7.143,0,0,0,15.606,17.4a7.053,7.053,0,0,1-4.567-.942l-.059-.034c-4.66-2.834-2.767-8.444-2.767-8.444A5.731,5.731,0,0,1,11.7,4.231,7.749,7.749,0,0,1,16.851,4c4.76,1.413,4.525,6.4,4.525,6.4a8.467,8.467,0,0,0,2.658,6,7.106,7.106,0,0,0,5.988,2.111,7.033,7.033,0,0,1,4.525,1.11l.059.034c4.55,3.011,2.448,8.545,2.448,8.545a5.746,5.746,0,0,1-3.617,3.617,7.746,7.746,0,0,1-5.156.034" transform="translate(1398.834 10616.143)" fill="#fee28e"/>
    <path id="Path_3070" data-name="Path 3070" d="M17.1,33.618c4.7-1.581,4.281-6.56,4.281-6.56a8.442,8.442,0,0,1,2.439-6.1l-.008-.008a7.153,7.153,0,0,1,5.963-1.783,7.053,7.053,0,0,0,4.567-.942l.05-.034c4.668-2.834,2.767-8.444,2.767-8.444A5.712,5.712,0,0,0,33.676,6a7.749,7.749,0,0,0-5.156-.227c-4.76,1.413-4.525,6.4-4.525,6.4a8.426,8.426,0,0,1-2.658,6,7.106,7.106,0,0,1-5.988,2.111,7.046,7.046,0,0,0-4.525,1.11l-.059.034c-4.55,3.011-2.448,8.545-2.448,8.545a5.738,5.738,0,0,0,3.625,3.617,7.745,7.745,0,0,0,5.156.034" transform="translate(1398.832 10629.237)" fill="#fee28e"/>
  </g>
</svg>
