<svg xmlns="http://www.w3.org/2000/svg" width="35.408" height="32.927" viewBox="0 0 35.408 32.927">
  <g id="Group_1922" data-name="Group 1922" transform="translate(-694 47.205)">
    <path id="Path_2630" data-name="Path 2630" d="M2.228,0A3.861,3.861,0,0,1,5.892,3.754,2.443,2.443,0,0,1,3.494,6.4C1.719,6.524-.078,4.487,0,2.536A2.366,2.366,0,0,1,2.228,0" transform="matrix(0.788, 0.616, -0.616, 0.788, 716.261, -47.057)" fill="#703f2e"/>
    <path id="Path_2632" data-name="Path 2632" d="M6.09,3.852A2.253,2.253,0,0,1,3.664,6.1,3.753,3.753,0,0,1,0,2.432,2.241,2.241,0,0,1,2.5,0,3.858,3.858,0,0,1,6.09,3.852" transform="matrix(0.788, 0.616, -0.616, 0.788, 705.656, -47.205)" fill="#703f2e"/>
    <path id="Path_2628" data-name="Path 2628" d="M8.286,0c1.474.263,3.52.494,5.491,1.01a5.413,5.413,0,0,1,4.209,4.934C18.054,8.278,16.7,10.151,14.021,11a7.233,7.233,0,0,0-4.328,3.495c-1.4,2.423-3.588,3.392-5.769,2.787A5.568,5.568,0,0,1,0,11.9a38.591,38.591,0,0,1,.3-5.733C.777,2.748,4.277-.076,8.286,0" transform="matrix(0.788, 0.616, -0.616, 0.788, 710.086, -39.106)" fill="#703f2e"/>
    <path id="Path_2629" data-name="Path 2629" d="M6.321,3.808A2.257,2.257,0,0,1,3.807,5.973C1.861,6.021-.114,4.191.005,2.4A2.42,2.42,0,0,1,2.645,0,3.9,3.9,0,0,1,6.321,3.808" transform="matrix(0.788, 0.616, -0.616, 0.788, 697.678, -40.233)" fill="#703f2e"/>
    <path id="Path_2631" data-name="Path 2631" d="M5.887,4.071a2.3,2.3,0,0,1-2.4,2.323C1.789,6.458.032,4.533,0,2.681A2.483,2.483,0,0,1,2.552,0a3.849,3.849,0,0,1,3.335,4.07" transform="matrix(0.788, 0.616, -0.616, 0.788, 724.769, -40.246)" fill="#703f2e"/>
  </g>
</svg>
