<svg xmlns="http://www.w3.org/2000/svg" xmlns:xlink="http://www.w3.org/1999/xlink" width="101.642" height="89.485" viewBox="0 0 101.642 89.485">
  <defs>
    <clipPath id="clip-path">
      <rect id="Rectangle_942" data-name="Rectangle 942" width="62.74" height="65.609" fill="none"/>
    </clipPath>
    <clipPath id="clip-path-3">
      <rect id="Rectangle_933" data-name="Rectangle 933" width="1.088" height="2.491" fill="none"/>
    </clipPath>
    <clipPath id="clip-path-4">
      <rect id="Rectangle_934" data-name="Rectangle 934" width="3.453" height="2.549" fill="none"/>
    </clipPath>
    <clipPath id="clip-path-5">
      <rect id="Rectangle_935" data-name="Rectangle 935" width="3.038" height="4.575" fill="none"/>
    </clipPath>
    <clipPath id="clip-path-6">
      <rect id="Rectangle_936" data-name="Rectangle 936" width="4.747" height="7.573" fill="none"/>
    </clipPath>
    <clipPath id="clip-path-7">
      <rect id="Rectangle_937" data-name="Rectangle 937" width="2.407" height="3.819" fill="none"/>
    </clipPath>
    <clipPath id="clip-path-8">
      <rect id="Rectangle_938" data-name="Rectangle 938" width="4.103" height="1.957" fill="none"/>
    </clipPath>
    <clipPath id="clip-path-9">
      <rect id="Rectangle_939" data-name="Rectangle 939" width="2.923" height="2.923" fill="none"/>
    </clipPath>
    <clipPath id="clip-path-10">
      <rect id="Rectangle_940" data-name="Rectangle 940" width="9.436" height="15.715" fill="none"/>
    </clipPath>
    <clipPath id="clip-path-11">
      <rect id="Rectangle_943" data-name="Rectangle 943" width="101.642" height="16.125" fill="none"/>
    </clipPath>
  </defs>
  <g id="Group_3091" data-name="Group 3091" transform="translate(17830.486 6037.001)">
    <g id="Group_3088" data-name="Group 3088" transform="translate(-17811.035 -6037.001)">
      <g id="Group_3087" data-name="Group 3087" clip-path="url(#clip-path)">
        <g id="Group_3086" data-name="Group 3086">
          <g id="Group_3085" data-name="Group 3085" clip-path="url(#clip-path)">
            <path id="Path_3699" data-name="Path 3699" d="M56.519,59.826a5.271,5.271,0,0,0,3.106-2.8L58.8,56.74c-.816,2.35-5.128,3.035-5.488,3.089H49.307A5.655,5.655,0,0,0,51,56.537a9.048,9.048,0,0,0-1.83-6.018,15.617,15.617,0,0,0-.218-3.43l.009,0-.095-.386a18.168,18.168,0,0,0-.641-1.981l-.083-.229c-.272-.759-.6-1.675-.951-2.955-.1-.36-.172-.653-.232-.922a15.389,15.389,0,0,1-.36-2.182v0a4.852,4.852,0,0,1,.232-2.453c3.9-4.9,1.783-9.162,1.689-9.342l-.143-.272-.3.04a4.5,4.5,0,0,0-3.545,2.789,20.227,20.227,0,0,0-5.476,0A4.5,4.5,0,0,0,35.5,26.4l-.3-.04-.143.272c-.089.181-2.21,4.441,1.686,9.336.078.155.736,1.612-.358,5.569-.4,1.434-.759,2.425-1.045,3.218a12.57,12.57,0,0,0-.931,5.766,9.025,9.025,0,0,0-1.832,6.018,5.686,5.686,0,0,0,1.689,3.292H20.33v.87h3.782c.134.006,4.606.252,6.01,3.756l.807-.323A6.419,6.419,0,0,0,27.548,60.7h7.825a5.788,5.788,0,0,1,3.788,5.073c.158,4.126,0,10.654,0,10.733v.658a2.622,2.622,0,0,0,5.242.063l.017-.736c0-.066-.158-6.6,0-10.719A5.725,5.725,0,0,1,48.207,60.7h15.1v-.87H56.519ZM47.451,45.154c.037.1.074.2.112.3.014.043.031.089.046.135.037.109.074.212.112.315.014.046.029.089.046.138.034.109.069.218.1.326.008.031.02.063.029.095l.008.034a4.058,4.058,0,0,1-.853.091,3.893,3.893,0,0,1-1.271-7.573v.012c.031.249.071.5.12.767.012.066.023.132.034.195.029.146.057.289.089.438a2.49,2.49,0,0,0,1.028,4.758,2.111,2.111,0,0,0,.4-.031m-.862-2.548c.014.051.029.1.046.154.023.08.049.164.074.241.012.046.026.089.04.134.031.1.06.195.091.286a.511.511,0,0,0,.02.06c.034.115.072.223.112.329.008.029.017.054.025.083.029.083.057.169.086.246.006.023.014.043.02.063s.025.072.037.109c-.031,0-.063,0-.094,0A1.619,1.619,0,0,1,46.22,41.3c.006.023.014.049.02.074s.02.083.031.129c.023.08.046.166.069.255.04.149.08.289.123.432.014.049.028.1.043.149.032.089.057.177.083.263M33.44,56.422a6.89,6.89,0,0,1,.748-3.822,2.289,2.289,0,0,1-.049,4.578,2.327,2.327,0,0,1-.547-.072,4.649,4.649,0,0,1-.152-.684M43.526,77.2A1.767,1.767,0,0,1,43,78.413a1.749,1.749,0,0,1-2.972-1.251v-.65c0-.011.006-.214.011-.564a3.356,3.356,0,0,0,1.738.512,3.314,3.314,0,0,0,1.752-.533c.006.349.012.555.012.561Zm-3.47-2.308c.008-.53.017-1.156.023-1.85a3.921,3.921,0,0,0,1.721.41,3.71,3.71,0,0,0,1.684-.415c.006.687.014,1.308.023,1.835a2.522,2.522,0,0,1-2.457.6,2.972,2.972,0,0,1-.993-.581m7.861-15.022a6.7,6.7,0,0,0-4.377,5.864c-.069,1.884-.077,4.26-.063,6.3a2.916,2.916,0,0,1-3.387.006c.014-2.044.009-4.421-.063-6.307a6.7,6.7,0,0,0-4.378-5.864A5.819,5.819,0,0,1,33.99,58.04c.049,0,.1.006.149.006a3.16,3.16,0,0,0,.493-6.281,9.461,9.461,0,0,1,.555-.836l.1-.126,0-.158a11.983,11.983,0,0,1,.873-5.6c.295-.81.664-1.818,1.068-3.286.009-.029.014-.055.023-.083a2.209,2.209,0,0,0,.633-4.317,3.751,3.751,0,0,0-.415-1.884l-.02-.031C34.4,31.64,35.321,28.3,35.7,27.314a3.732,3.732,0,0,1,2.64,2.476l.112.387.4-.078c.006,0,.447-.086,1.194-.154l.321,1.268L40.7,29.9c.22-.012.458-.023.71-.026l.384,3.118.381-3.118c.252,0,.49.014.71.026l.332,1.311.321-1.268c.748.066,1.188.154,1.2.154l.392.078.111-.384a3.74,3.74,0,0,1,2.637-2.476c.372.988,1.283,4.357-1.732,8.128l-.023.031a4.623,4.623,0,0,0-.4,2.654,4.761,4.761,0,0,0,1.351,9.328,4.681,4.681,0,0,0,1.056-.12,15.359,15.359,0,0,1,.181,3.307l0,.158.1.126c.02.026,2.124,2.708,1.746,5.488a5.183,5.183,0,0,1-2.225,3.456M37.468,40.787A15.79,15.79,0,0,0,37.86,38.3a1.34,1.34,0,0,1-.392,2.491" transform="translate(-10.937 -14.181)" fill="#b25d1f"/>
            <g id="Group_3063" data-name="Group 3063" transform="translate(26.531 24.112)" opacity="0">
              <g id="Group_3062" data-name="Group 3062">
                <g id="Group_3061" data-name="Group 3061" clip-path="url(#clip-path-3)">
                  <path id="Path_3700" data-name="Path 3700" d="M58.511,53.364a1.339,1.339,0,0,1-1.088,1.314,15.791,15.791,0,0,0,.392-2.491,1.347,1.347,0,0,1,.7,1.177" transform="translate(-57.423 -52.187)" fill="#fff"/>
                </g>
              </g>
            </g>
            <g id="Group_3066" data-name="Group 3066" transform="translate(29.12 58.858)" opacity="0">
              <g id="Group_3065" data-name="Group 3065">
                <g id="Group_3064" data-name="Group 3064" clip-path="url(#clip-path-4)">
                  <path id="Path_3701" data-name="Path 3701" d="M66.478,129.224a2.522,2.522,0,0,1-2.457.6,2.967,2.967,0,0,1-1-.581c.009-.53.017-1.156.023-1.85a3.918,3.918,0,0,0,1.721.41,3.709,3.709,0,0,0,1.683-.415c.009.69.017,1.311.026,1.835" transform="translate(-63.025 -127.389)" fill="#fff"/>
                </g>
              </g>
            </g>
            <g id="Group_3069" data-name="Group 3069" transform="translate(22.454 38.419)" opacity="0">
              <g id="Group_3068" data-name="Group 3068">
                <g id="Group_3067" data-name="Group 3067" clip-path="url(#clip-path-5)">
                  <path id="Path_3702" data-name="Path 3702" d="M51.636,85.436a2.294,2.294,0,0,1-2.293,2.29,2.328,2.328,0,0,1-.547-.072,4.9,4.9,0,0,1-.152-.681,6.888,6.888,0,0,1,.747-3.822,2.287,2.287,0,0,1,2.245,2.285" transform="translate(-48.598 -83.151)" fill="#fff"/>
                </g>
              </g>
            </g>
            <g id="Group_3072" data-name="Group 3072" transform="translate(32.22 24.834)" opacity="0">
              <g id="Group_3071" data-name="Group 3071">
                <g id="Group_3070" data-name="Group 3070" clip-path="url(#clip-path-6)">
                  <path id="Path_3703" data-name="Path 3703" d="M74.483,61.229a4.059,4.059,0,0,1-.853.091,3.893,3.893,0,0,1-1.271-7.573v.012c.031.249.072.5.12.767.012.066.023.132.035.195.029.146.057.289.089.438a2.49,2.49,0,0,0,1.028,4.758,2.692,2.692,0,0,0,.4-.031c.037.1.074.2.112.3.014.043.031.089.046.135.037.109.074.212.111.315.014.046.029.089.046.138.034.109.068.218.1.326.009.031.02.063.029.095,0,.011.006.023.009.034" transform="translate(-69.736 -53.748)" fill="#fff"/>
                </g>
              </g>
            </g>
            <path id="Path_3704" data-name="Path 3704" d="M30.258,85.581l-.026-.633-.581.252c-1.495.647-4.143,2.657-3.467,5.617l.1.424.424-.094c2.963-.679,3.619-3.937,3.553-5.566m-1.191,2.179a3.543,3.543,0,0,1-2.107,2.408,3.548,3.548,0,0,1,1.248-2.943,6.733,6.733,0,0,1,1.148-.873,6.957,6.957,0,0,1-.289,1.409" transform="translate(-14.028 -45.699)" fill="#b25d1f"/>
            <g id="Group_3075" data-name="Group 3075" transform="translate(12.918 40.649)" opacity="0">
              <g id="Group_3074" data-name="Group 3074">
                <g id="Group_3073" data-name="Group 3073" clip-path="url(#clip-path-7)">
                  <path id="Path_3705" data-name="Path 3705" d="M30.367,87.979a6.915,6.915,0,0,1-.286,1.412A3.544,3.544,0,0,1,27.974,91.8a3.547,3.547,0,0,1,1.248-2.943,6.737,6.737,0,0,1,1.145-.876" transform="translate(-27.96 -87.979)" fill="#fff"/>
                </g>
              </g>
            </g>
            <path id="Path_3706" data-name="Path 3706" d="M101.47,104.36c-.839-1.4-3.178-3.756-6.024-2.694l-.409.154.154.407c.851,2.285,3.155,2.88,4.861,2.88a6.711,6.711,0,0,0,1.12-.091l.624-.109Zm-2.611-.241a3.54,3.54,0,0,1-2.663-1.772,3.544,3.544,0,0,1,3.084.851,6.691,6.691,0,0,1,1.019,1.022,7.005,7.005,0,0,1-1.44-.1" transform="translate(-51.127 -54.55)" fill="#b25d1f"/>
            <g id="Group_3078" data-name="Group 3078" transform="translate(45.069 47.717)" opacity="0">
              <g id="Group_3077" data-name="Group 3077">
                <g id="Group_3076" data-name="Group 3076" clip-path="url(#clip-path-8)">
                  <path id="Path_3707" data-name="Path 3707" d="M101.649,105.229a7.018,7.018,0,0,1-1.44-.1,3.54,3.54,0,0,1-2.663-1.772,3.545,3.545,0,0,1,3.084.851,6.817,6.817,0,0,1,1.019,1.022" transform="translate(-97.546 -103.275)" fill="#fff"/>
                </g>
              </g>
            </g>
            <path id="Path_3708" data-name="Path 3708" d="M59.483,62.783a1.062,1.062,0,1,0,1.062,1.062,1.062,1.062,0,0,0-1.062-1.062m0,1.251a.192.192,0,1,1,.192-.192.192.192,0,0,1-.192.192" transform="translate(-31.429 -33.775)" fill="#b25d1f"/>
            <path id="Path_3709" data-name="Path 3709" d="M74.266,83.27A2.332,2.332,0,1,0,76.6,85.6a2.332,2.332,0,0,0-2.333-2.33m0,3.793A1.462,1.462,0,1,1,75.729,85.6a1.463,1.463,0,0,1-1.463,1.463" transform="translate(-38.699 -44.797)" fill="#b25d1f"/>
            <g id="Group_3081" data-name="Group 3081" transform="translate(34.107 39.343)" opacity="0">
              <g id="Group_3080" data-name="Group 3080">
                <g id="Group_3079" data-name="Group 3079" clip-path="url(#clip-path-9)">
                  <path id="Path_3710" data-name="Path 3710" d="M76.742,86.613a1.462,1.462,0,1,1-1.463-1.46,1.464,1.464,0,0,1,1.463,1.46" transform="translate(-73.819 -85.153)" fill="#fff"/>
                </g>
              </g>
            </g>
            <path id="Path_3711" data-name="Path 3711" d="M63.888,72.871a1.148,1.148,0,1,0,1.148,1.148,1.15,1.15,0,0,0-1.148-1.148m0,1.426a.276.276,0,1,1,.278-.278.282.282,0,0,1-.278.278" transform="translate(-33.752 -39.202)" fill="#b25d1f"/>
            <path id="Path_3712" data-name="Path 3712" d="M103.571,6.952a8.752,8.752,0,0,0-2.995.527l-1.122.407,1.122.412a7.859,7.859,0,0,1,0,14.764l-1.116.409,1.116.41a8.729,8.729,0,1,0,2.995-16.929m0,16.586a7.874,7.874,0,0,1-1.58-.158,8.733,8.733,0,0,0,0-15.4,7.858,7.858,0,1,1,1.577,15.558" transform="translate(-53.503 -3.74)" fill="#b25d1f"/>
            <g id="Group_3084" data-name="Group 3084" transform="translate(48.488 4.083)" opacity="0">
              <g id="Group_3083" data-name="Group 3083">
                <g id="Group_3082" data-name="Group 3082" clip-path="url(#clip-path-10)">
                  <path id="Path_3713" data-name="Path 3713" d="M114.381,16.693a7.87,7.87,0,0,1-9.437,7.7,8.733,8.733,0,0,0,0-15.4,7.869,7.869,0,0,1,9.433,7.7" transform="translate(-104.944 -8.837)" fill="#fff"/>
                </g>
              </g>
            </g>
            <path id="Path_3714" data-name="Path 3714" d="M63.132,2.23l.169-.306.306-.166L63.3,1.589l-.169-.306-.166.306-.306.169.306.166Z" transform="translate(-33.709 -0.69)" fill="#b25d1f"/>
            <path id="Path_3715" data-name="Path 3715" d="M19.944,6.071l-1.472-.8-.807-1.474-.8,1.474-1.474.8,1.474.8.8,1.474.807-1.474Z" transform="translate(-8.277 -2.04)" fill="#b25d1f"/>
            <path id="Path_3716" data-name="Path 3716" d="M34.551,35.881,35.2,34.7l1.18-.644-1.18-.647-.647-1.18-.644,1.18-1.182.647,1.182.644Z" transform="translate(-17.605 -17.338)" fill="#b25d1f"/>
            <path id="Path_3717" data-name="Path 3717" d="M10.3,59.22l-.086.155-.152.083.152.083.086.155.083-.155.152-.083-.152-.083Z" transform="translate(-5.414 -31.859)" fill="#b25d1f"/>
            <path id="Path_3718" data-name="Path 3718" d="M103.237,67.212l.378-.69.693-.378-.693-.378-.378-.69-.378.69-.69.378.69.378Z" transform="translate(-54.964 -35.009)" fill="#b25d1f"/>
            <path id="Path_3719" data-name="Path 3719" d="M131.976.384,131.767,0l-.212.383-.381.209.381.209.212.383L131.976.8l.383-.209Z" transform="translate(-70.568 0)" fill="#b25d1f"/>
            <path id="Path_3720" data-name="Path 3720" d="M134.381,43.069l-.169-.306-.166.306-.306.169.306.169.166.306.169-.306.306-.169Z" transform="translate(-71.948 -23.005)" fill="#b25d1f"/>
            <path id="Path_3721" data-name="Path 3721" d="M.856,45.1l-.3.553-.553.3.553.3.3.553.3-.553.553-.3-.553-.3Z" transform="translate(0 -24.265)" fill="#b25d1f"/>
          </g>
        </g>
      </g>
    </g>
    <g id="Group_3090" data-name="Group 3090" transform="translate(-17830.486 -5963.641)">
      <g id="Group_3089" data-name="Group 3089" transform="translate(0 0)" clip-path="url(#clip-path-11)">
        <path id="Path_3722" data-name="Path 3722" d="M11.914,14.079H3.354V10.623h8.56ZM2.045,16.125H3.354v-.837h8.56v.837h1.379V9.434H2.045ZM15.125,3.669V2.448H8.213V0H6.885V2.448H0V3.669H6.885V6.237h-5.8v1.24H14.255V6.237H8.213V3.669Zm2.517-1.346H32.508V1.12H17.642ZM17.309,15.3H32.8V14.079h-15.5Zm10.725-5.15a21.244,21.244,0,0,1-1.448,3.336l1.134.347a37.025,37.025,0,0,0,1.712-3.3Zm-7.088.453a12.2,12.2,0,0,1,1.184,3.23l1.24-.384a12.465,12.465,0,0,0-1.254-3.179Zm-.069-5.256h8.435V8.735H20.876ZM19.618,9.888h11V4.178h-11ZM46.833,8.439H39.546V6.677h7.287ZM39.546,9.554h7.287v1.837H39.546Zm10.6-6.075V2.253H41.257c.264-.629.472-1.291.68-1.939L40.647,0a22.318,22.318,0,0,1-.768,2.253H34.951V3.479h4.386a14.63,14.63,0,0,1-4.8,5.816,6.678,6.678,0,0,1,.837.995,14.447,14.447,0,0,0,2.9-2.744v8.4h1.272V12.506h7.287v1.818c0,.264-.106.352-.4.366-.315,0-1.365.019-2.517-.032a5.011,5.011,0,0,1,.421,1.272,10.6,10.6,0,0,0,3.04-.227c.555-.208.731-.592.731-1.379V5.506H39.684c.384-.648.736-1.346,1.069-2.027ZM57.225.7l-.213.056H52.737V15.949h1.221V1.939h2.568c-.421,1.189-.995,2.795-1.555,4.053a4.85,4.85,0,0,1,1.744,3.461,1.384,1.384,0,0,1-.4,1.184,1.482,1.482,0,0,1-.611.157,6.509,6.509,0,0,1-1.134-.032,2.87,2.87,0,0,1,.333,1.189,8.487,8.487,0,0,0,1.291-.019,2.259,2.259,0,0,0,.976-.333,2.2,2.2,0,0,0,.717-2.008,5.1,5.1,0,0,0-1.73-3.757c.666-1.36,1.383-3.142,1.925-4.608Zm3.054,4.456h5.279V7.32H60.278Zm5.279-1.1H60.278V1.925h5.279Zm1.009,4.84a19.484,19.484,0,0,1-2.323,2.1,12.95,12.95,0,0,1-.958-2.517h3.563V.773H59.025V14.079c-.736.139-1.4.264-1.957.366l.416,1.258c1.7-.384,4.021-.888,6.2-1.4L63.6,13.191c-1.12.227-2.253.453-3.322.662V8.472h1.888c.837,3.41,2.429,6.117,5,7.426a4.126,4.126,0,0,1,.856-1.064A7.524,7.524,0,0,1,64.771,11.9,24.78,24.78,0,0,0,67.58,9.61ZM74.288.509a17.234,17.234,0,0,1-4.645,6.635,8.583,8.583,0,0,1,1.24.93A21.436,21.436,0,0,0,75.7.911Zm5.085,9.573c.819.976,1.712,2.165,2.5,3.3-2.637.125-5.33.245-7.69.333a74.055,74.055,0,0,0,3.354-7.037l-1.5-.37a51.933,51.933,0,0,1-3.3,7.477c-.874.019-1.675.051-2.392.069l.176,1.365c3.109-.157,7.755-.37,12.155-.629.333.523.629,1.027.856,1.448l1.277-.717a39.01,39.01,0,0,0-4.229-5.8ZM79.2,1.032a37.429,37.429,0,0,0,5.117,7.042,5.957,5.957,0,0,1,1.083-1.1A27.036,27.036,0,0,1,80.456.509Zm16.68,10.6H90.27V8.384h5.608Zm1.277,1.152V7.232H89v6.829H90.27V12.789Zm1.189-8.6H87.9V5.362H98.343Zm3.3-3.054H87.776v1.24h12.557v11.65c0,.333-.088.416-.421.435s-1.555.019-2.758-.019a4.685,4.685,0,0,1,.453,1.4,11.425,11.425,0,0,0,3.248-.245c.6-.227.787-.685.787-1.573Z" transform="translate(0 0)" fill="#b25d1f"/>
      </g>
    </g>
  </g>
</svg>
