<svg xmlns="http://www.w3.org/2000/svg" xmlns:xlink="http://www.w3.org/1999/xlink" width="123.631" height="103.969" viewBox="0 0 123.631 103.969">
  <defs>
    <clipPath id="clip-path">
      <rect id="Rectangle_942" data-name="Rectangle 942" width="72.08" height="75.376" fill="none"/>
    </clipPath>
    <clipPath id="clip-path-3">
      <rect id="Rectangle_933" data-name="Rectangle 933" width="1.25" height="2.862" fill="none"/>
    </clipPath>
    <clipPath id="clip-path-4">
      <rect id="Rectangle_934" data-name="Rectangle 934" width="3.967" height="2.929" fill="none"/>
    </clipPath>
    <clipPath id="clip-path-5">
      <rect id="Rectangle_935" data-name="Rectangle 935" width="3.491" height="5.256" fill="none"/>
    </clipPath>
    <clipPath id="clip-path-6">
      <rect id="Rectangle_936" data-name="Rectangle 936" width="5.454" height="8.7" fill="none"/>
    </clipPath>
    <clipPath id="clip-path-7">
      <rect id="Rectangle_937" data-name="Rectangle 937" width="2.766" height="4.388" fill="none"/>
    </clipPath>
    <clipPath id="clip-path-8">
      <rect id="Rectangle_938" data-name="Rectangle 938" width="4.714" height="2.248" fill="none"/>
    </clipPath>
    <clipPath id="clip-path-9">
      <rect id="Rectangle_939" data-name="Rectangle 939" width="3.358" height="3.358" fill="none"/>
    </clipPath>
    <clipPath id="clip-path-10">
      <rect id="Rectangle_940" data-name="Rectangle 940" width="10.841" height="18.055" fill="none"/>
    </clipPath>
    <clipPath id="clip-path-11">
      <rect id="Rectangle_943" data-name="Rectangle 943" width="123.631" height="19.613" fill="none"/>
    </clipPath>
  </defs>
  <g id="Group_3296" data-name="Group 3296" transform="translate(-6.686 -17.516)">
    <text id="MENU" transform="translate(40.5 97.484)" fill="#b25d1f" font-size="18" font-family="SegoeUI-Bold, Segoe UI" letter-spacing="0.02em" font-weight="700"><tspan x="0" y="19">MENU</tspan></text>
    <g id="Group_3091" data-name="Group 3091" transform="translate(17848.166 6063.516)">
      <g id="Group_3088" data-name="Group 3088" transform="translate(-17815.705 -6046)">
        <g id="Group_3087" data-name="Group 3087" clip-path="url(#clip-path)">
          <g id="Group_3086" data-name="Group 3086">
            <g id="Group_3085" data-name="Group 3085" clip-path="url(#clip-path)">
              <path id="Path_3699" data-name="Path 3699" d="M61.906,64.809a6.055,6.055,0,0,0,3.569-3.217l-.948-.329c-.937,2.7-5.891,3.486-6.305,3.549h-4.6a6.5,6.5,0,0,0,1.941-3.783c.437-3.227-1.589-6.216-2.1-6.914a17.942,17.942,0,0,0-.25-3.94l.01,0-.109-.444a20.873,20.873,0,0,0-.737-2.276l-.1-.263c-.313-.872-.684-1.924-1.092-3.395-.111-.414-.2-.75-.266-1.059a17.679,17.679,0,0,1-.414-2.507v0a5.575,5.575,0,0,1,.266-2.819c4.483-5.628,2.049-10.526,1.94-10.733l-.164-.312-.349.046a5.172,5.172,0,0,0-4.072,3.2,23.239,23.239,0,0,0-6.292,0,5.166,5.166,0,0,0-4.072-3.2l-.349-.046-.164.312c-.1.208-2.539,5.1,1.937,10.726.089.178.846,1.852-.411,6.4-.454,1.648-.872,2.786-1.2,3.7a14.441,14.441,0,0,0-1.069,6.625c-.516.7-2.543,3.684-2.105,6.914a6.532,6.532,0,0,0,1.941,3.783H20.33v1h4.345c.154.007,5.292.289,6.9,4.316l.927-.372a7.374,7.374,0,0,0-3.885-3.944h8.989a6.65,6.65,0,0,1,4.352,5.828c.181,4.74,0,12.24,0,12.331v.756a3.012,3.012,0,0,0,6.023.073l.02-.846c0-.075-.181-7.578,0-12.315a6.577,6.577,0,0,1,4.352-5.828H69.708v-1h-7.8ZM51.489,47.951c.043.115.085.234.128.345.016.049.036.1.053.155.043.125.085.243.128.361.016.053.033.1.053.158.039.125.079.25.115.375.01.036.023.072.033.109l.01.039a4.662,4.662,0,0,1-.98.105,4.472,4.472,0,0,1-1.46-8.7v.013c.036.286.082.579.138.882.013.075.026.151.039.223.033.168.066.332.1.5a2.861,2.861,0,0,0,1.181,5.467,2.425,2.425,0,0,0,.46-.036m-.99-2.927c.016.059.033.115.053.177.027.092.056.188.085.277.013.053.03.1.046.154.036.112.069.224.105.329a.588.588,0,0,0,.023.069c.039.132.082.256.128.378.01.033.02.062.029.1.033.1.066.194.1.283.007.027.016.049.023.072.016.04.029.082.042.125-.036,0-.072,0-.108,0a1.86,1.86,0,0,1-.951-3.46c.006.027.016.056.023.085.013.046.023.1.036.148.027.092.053.191.079.293.046.171.092.332.142.5.016.056.032.112.049.171.037.1.066.2.1.3M35.391,60.9a7.916,7.916,0,0,1,.859-4.391,2.63,2.63,0,0,1-.056,5.259,2.673,2.673,0,0,1-.628-.082,5.341,5.341,0,0,1-.175-.786M46.98,84.771a2.031,2.031,0,0,1-.608,1.391,2.01,2.01,0,0,1-3.414-1.437v-.747c0-.013.006-.246.013-.648a3.855,3.855,0,0,0,2,.589,3.807,3.807,0,0,0,2.013-.612c.006.4.013.638.013.645Zm-3.986-2.651c.01-.609.02-1.329.026-2.125A4.5,4.5,0,0,0,45,80.465a4.262,4.262,0,0,0,1.934-.477c.006.789.016,1.5.027,2.108a2.9,2.9,0,0,1-2.822.691,3.414,3.414,0,0,1-1.141-.668m9.032-17.258c-.648.244-4.848,2-5.029,6.737-.079,2.164-.089,4.894-.072,7.239a3.35,3.35,0,0,1-3.891.007c.016-2.349.01-5.079-.072-7.246-.181-4.733-4.381-6.493-5.029-6.737a6.685,6.685,0,0,1-1.908-2.105c.056,0,.112.007.171.007a3.63,3.63,0,0,0,.566-7.216,10.868,10.868,0,0,1,.638-.961l.112-.144,0-.181a13.766,13.766,0,0,1,1-6.431c.339-.931.763-2.088,1.227-3.776.01-.033.016-.063.027-.1A2.538,2.538,0,0,0,40.49,39a4.31,4.31,0,0,0-.477-2.165L39.99,36.8c-3.5-4.371-2.437-8.206-2-9.341A4.288,4.288,0,0,1,41.026,30.3l.128.444.454-.089c.006,0,.513-.1,1.372-.177l.368,1.457.382-1.506c.253-.013.526-.027.815-.03l.441,3.582.437-3.582c.289,0,.563.016.816.03l.381,1.506.368-1.457c.859.075,1.365.177,1.375.177l.451.089.128-.441a4.3,4.3,0,0,1,3.029-2.845c.428,1.135,1.474,5.006-1.99,9.338l-.026.036a5.312,5.312,0,0,0-.464,3.05A5.47,5.47,0,0,0,51.045,50.6a5.378,5.378,0,0,0,1.213-.138,17.646,17.646,0,0,1,.208,3.8l0,.181.112.144c.023.03,2.441,3.112,2.006,6.306a5.955,5.955,0,0,1-2.556,3.97M40.02,42.935a18.141,18.141,0,0,0,.451-2.862,1.539,1.539,0,0,1-.451,2.862" transform="translate(-9.539 -12.368)" fill="#b25d1f"/>
              <g id="Group_3063" data-name="Group 3063" transform="translate(30.481 27.702)" opacity="0">
                <g id="Group_3062" data-name="Group 3062">
                  <g id="Group_3061" data-name="Group 3061" clip-path="url(#clip-path-3)">
                    <path id="Path_3700" data-name="Path 3700" d="M58.673,53.539a1.539,1.539,0,0,1-1.25,1.51,18.142,18.142,0,0,0,.451-2.862,1.548,1.548,0,0,1,.8,1.352" transform="translate(-57.423 -52.187)" fill="#fff"/>
                  </g>
                </g>
              </g>
              <g id="Group_3066" data-name="Group 3066" transform="translate(33.455 67.62)" opacity="0">
                <g id="Group_3065" data-name="Group 3065">
                  <g id="Group_3064" data-name="Group 3064" clip-path="url(#clip-path-4)">
                    <path id="Path_3701" data-name="Path 3701" d="M66.992,129.5a2.9,2.9,0,0,1-2.822.691,3.408,3.408,0,0,1-1.144-.668c.01-.608.02-1.329.027-2.125a4.5,4.5,0,0,0,1.977.471,4.261,4.261,0,0,0,1.934-.477c.01.793.02,1.506.03,2.108" transform="translate(-63.025 -127.389)" fill="#fff"/>
                  </g>
                </g>
              </g>
              <g id="Group_3069" data-name="Group 3069" transform="translate(25.797 44.138)" opacity="0">
                <g id="Group_3068" data-name="Group 3068">
                  <g id="Group_3067" data-name="Group 3067" clip-path="url(#clip-path-5)">
                    <path id="Path_3702" data-name="Path 3702" d="M52.089,85.776a2.635,2.635,0,0,1-2.634,2.631,2.674,2.674,0,0,1-.628-.082,5.628,5.628,0,0,1-.174-.782,7.913,7.913,0,0,1,.858-4.391,2.627,2.627,0,0,1,2.579,2.625" transform="translate(-48.598 -83.151)" fill="#fff"/>
                  </g>
                </g>
              </g>
              <g id="Group_3072" data-name="Group 3072" transform="translate(37.017 28.531)" opacity="0">
                <g id="Group_3071" data-name="Group 3071">
                  <g id="Group_3070" data-name="Group 3070" clip-path="url(#clip-path-6)">
                    <path id="Path_3703" data-name="Path 3703" d="M75.19,62.343a4.663,4.663,0,0,1-.98.105,4.472,4.472,0,0,1-1.46-8.7v.013c.036.286.082.579.138.882.013.075.027.151.04.223.033.168.066.332.1.5a2.861,2.861,0,0,0,1.181,5.467,3.093,3.093,0,0,0,.461-.036c.043.115.085.234.128.345.016.049.036.1.053.155.042.125.085.243.128.361.016.053.033.1.053.158.039.125.079.25.115.375.01.036.023.072.033.109,0,.013.007.026.01.039" transform="translate(-69.736 -53.748)" fill="#fff"/>
                  </g>
                </g>
              </g>
              <path id="Path_3704" data-name="Path 3704" d="M30.881,85.675l-.03-.727-.668.289c-1.717.744-4.759,3.053-3.983,6.454l.112.487.487-.108c3.4-.78,4.157-4.523,4.082-6.395m-1.368,2.5a4.07,4.07,0,0,1-2.421,2.766,4.076,4.076,0,0,1,1.434-3.381,7.735,7.735,0,0,1,1.319-1,7.992,7.992,0,0,1-.332,1.618" transform="translate(-12.234 -39.856)" fill="#b25d1f"/>
              <g id="Group_3075" data-name="Group 3075" transform="translate(14.842 46.7)" opacity="0">
                <g id="Group_3074" data-name="Group 3074">
                  <g id="Group_3073" data-name="Group 3073" clip-path="url(#clip-path-7)">
                    <path id="Path_3705" data-name="Path 3705" d="M30.726,87.979A7.945,7.945,0,0,1,30.4,89.6a4.072,4.072,0,0,1-2.421,2.766,4.076,4.076,0,0,1,1.434-3.381,7.74,7.74,0,0,1,1.316-1.006" transform="translate(-27.96 -87.979)" fill="#fff"/>
                  </g>
                </g>
              </g>
              <path id="Path_3706" data-name="Path 3706" d="M102.428,104.8c-.963-1.605-3.651-4.316-6.92-3.1l-.47.177.177.467c.977,2.625,3.625,3.309,5.585,3.309a7.71,7.71,0,0,0,1.286-.105l.717-.125Zm-3-.277a4.067,4.067,0,0,1-3.059-2.036,4.071,4.071,0,0,1,3.543.977,7.687,7.687,0,0,1,1.171,1.174,8.048,8.048,0,0,1-1.655-.115" transform="translate(-44.59 -47.575)" fill="#b25d1f"/>
              <g id="Group_3078" data-name="Group 3078" transform="translate(51.779 54.82)" opacity="0">
                <g id="Group_3077" data-name="Group 3077">
                  <g id="Group_3076" data-name="Group 3076" clip-path="url(#clip-path-8)">
                    <path id="Path_3707" data-name="Path 3707" d="M102.26,105.52a8.061,8.061,0,0,1-1.655-.115,4.067,4.067,0,0,1-3.059-2.036,4.073,4.073,0,0,1,3.543.977,7.833,7.833,0,0,1,1.171,1.174" transform="translate(-97.546 -103.275)" fill="#fff"/>
                  </g>
                </g>
              </g>
              <path id="Path_3708" data-name="Path 3708" d="M59.641,62.783A1.22,1.22,0,1,0,60.862,64a1.22,1.22,0,0,0-1.22-1.22m0,1.437a.22.22,0,1,1,.22-.22.22.22,0,0,1-.22.22" transform="translate(-27.41 -29.457)" fill="#b25d1f"/>
              <path id="Path_3709" data-name="Path 3709" d="M74.613,83.27a2.679,2.679,0,1,0,2.681,2.677,2.68,2.68,0,0,0-2.681-2.677m0,4.358a1.679,1.679,0,1,1,1.681-1.681,1.681,1.681,0,0,1-1.681,1.681" transform="translate(-33.751 -39.069)" fill="#b25d1f"/>
              <g id="Group_3081" data-name="Group 3081" transform="translate(39.184 45.201)" opacity="0">
                <g id="Group_3080" data-name="Group 3080">
                  <g id="Group_3079" data-name="Group 3079" clip-path="url(#clip-path-9)">
                    <path id="Path_3710" data-name="Path 3710" d="M77.177,86.83A1.679,1.679,0,1,1,75.5,85.153a1.682,1.682,0,0,1,1.681,1.677" transform="translate(-73.819 -85.153)" fill="#fff"/>
                  </g>
                </g>
              </g>
              <path id="Path_3711" data-name="Path 3711" d="M64.059,72.871a1.319,1.319,0,1,0,1.319,1.319,1.321,1.321,0,0,0-1.319-1.319m0,1.638a.317.317,0,1,1,.319-.319.324.324,0,0,1-.319.319" transform="translate(-29.437 -34.19)" fill="#b25d1f"/>
              <path id="Path_3712" data-name="Path 3712" d="M104.184,6.952a10.055,10.055,0,0,0-3.441.606l-1.289.467,1.289.473a9.029,9.029,0,0,1,0,16.962l-1.282.47,1.282.471a10.029,10.029,0,1,0,3.441-19.45m0,19.055a9.046,9.046,0,0,1-1.815-.181,10.033,10.033,0,0,0,0-17.693,9.028,9.028,0,1,1,1.812,17.874" transform="translate(-46.662 -3.262)" fill="#b25d1f"/>
              <g id="Group_3084" data-name="Group 3084" transform="translate(55.706 4.69)" opacity="0">
                <g id="Group_3083" data-name="Group 3083">
                  <g id="Group_3082" data-name="Group 3082" clip-path="url(#clip-path-10)">
                    <path id="Path_3713" data-name="Path 3713" d="M115.785,17.862a9.041,9.041,0,0,1-10.841,8.848,10.033,10.033,0,0,0,0-17.693,9.04,9.04,0,0,1,10.838,8.845" transform="translate(-104.945 -8.836)" fill="#fff"/>
                  </g>
                </g>
              </g>
              <path id="Path_3714" data-name="Path 3714" d="M63.2,2.371l.194-.352.352-.191L63.4,1.635,63.2,1.283l-.191.352-.352.194.352.191Z" transform="translate(-29.399 -0.602)" fill="#b25d1f"/>
              <path id="Path_3715" data-name="Path 3715" d="M20.622,6.411l-1.691-.924L18,3.793,17.08,5.487l-1.694.924,1.694.924L18,9.029l.927-1.694Z" transform="translate(-7.219 -1.779)" fill="#b25d1f"/>
              <path id="Path_3716" data-name="Path 3716" d="M34.823,36.425l.743-1.358,1.355-.74-1.355-.744-.743-1.355-.74,1.355-1.358.744,1.358.74Z" transform="translate(-15.354 -15.121)" fill="#b25d1f"/>
              <path id="Path_3717" data-name="Path 3717" d="M10.336,59.22l-.1.178-.174.1.174.1.1.178.1-.178.174-.1-.174-.1Z" transform="translate(-4.722 -27.785)" fill="#b25d1f"/>
              <path id="Path_3718" data-name="Path 3718" d="M103.4,67.53l.434-.793.8-.434-.8-.434-.434-.793-.434.793-.793.434.793.434Z" transform="translate(-47.936 -30.532)" fill="#b25d1f"/>
              <path id="Path_3719" data-name="Path 3719" d="M132.1.441,131.856,0l-.244.441-.437.24.437.24.244.441.24-.441.441-.24Z" transform="translate(-61.545 0)" fill="#b25d1f"/>
              <path id="Path_3720" data-name="Path 3720" d="M134.477,43.114l-.194-.352-.191.352-.352.194.352.194.191.352.194-.352.352-.194Z" transform="translate(-62.749 -20.063)" fill="#b25d1f"/>
              <path id="Path_3721" data-name="Path 3721" d="M.983,45.1l-.349.635L0,46.088l.635.349.349.635.346-.635.635-.349-.635-.349Z" transform="translate(0 -21.162)" fill="#b25d1f"/>
            </g>
          </g>
        </g>
      </g>
      <g id="Group_3090" data-name="Group 3090" transform="translate(-17841.48 -5964.644)" opacity="0">
        <g id="Group_3089" data-name="Group 3089" transform="translate(0 0)" clip-path="url(#clip-path-11)">
          <path id="Path_3722" data-name="Path 3722" d="M14.492,17.125H4.08v-4.2H14.492Zm-12,2.487H4.08V18.594H14.492v1.019h1.677V11.475H2.487ZM18.4,4.463V2.977H9.989V0H8.374V2.977H0V4.463H8.374V7.586H1.317V9.094H17.339V7.586H9.989V4.463Zm3.062-1.638H39.541V1.362H21.459Zm-.405,15.786H39.9V17.125H21.054ZM34.1,12.347A25.84,25.84,0,0,1,32.337,16.4l1.379.422A45.035,45.035,0,0,0,35.8,12.814Zm-8.622.552a14.836,14.836,0,0,1,1.441,3.928l1.508-.467A15.162,15.162,0,0,0,26.9,12.494Zm-.084-6.393H35.652v4.12H25.393Zm-1.531,5.521H37.245V5.082H23.862Zm33.1-1.761H48.1V8.121h8.864ZM48.1,11.621h8.864v2.234H48.1ZM61,4.232V2.741H50.183c.321-.765.574-1.57.827-2.358L49.44,0a27.145,27.145,0,0,1-.934,2.741H42.512V4.232h5.335a17.8,17.8,0,0,1-5.842,7.074,8.123,8.123,0,0,1,1.019,1.21,17.572,17.572,0,0,0,3.529-3.337V19.4H48.1V15.212h8.864v2.212c0,.321-.129.428-.49.445-.383,0-1.66.023-3.062-.039a6.1,6.1,0,0,1,.512,1.548,12.9,12.9,0,0,0,3.7-.276c.675-.253.889-.72.889-1.677V6.7H48.269c.467-.788.895-1.638,1.3-2.465ZM69.6.85l-.259.068h-5.2V19.4h1.486V2.358h3.123c-.512,1.446-1.21,3.4-1.891,4.93a5.9,5.9,0,0,1,2.122,4.21,1.683,1.683,0,0,1-.49,1.441,1.8,1.8,0,0,1-.743.191,7.917,7.917,0,0,1-1.379-.039,3.491,3.491,0,0,1,.405,1.446,10.323,10.323,0,0,0,1.57-.023,2.748,2.748,0,0,0,1.187-.405,2.677,2.677,0,0,0,.872-2.442A6.2,6.2,0,0,0,68.3,7.1c.81-1.655,1.683-3.821,2.341-5.605Zm3.714,5.42H79.74V8.9H73.319ZM79.74,4.93H73.319V2.341H79.74Zm1.227,5.887a23.7,23.7,0,0,1-2.825,2.549A15.752,15.752,0,0,1,76.977,10.3H81.31V.94H71.794V17.125c-.895.169-1.7.321-2.381.445L69.92,19.1c2.065-.467,4.891-1.081,7.547-1.7l-.107-1.356c-1.362.276-2.741.552-4.041.8V10.3h2.3c1.019,4.148,2.955,7.44,6.078,9.033a5.018,5.018,0,0,1,1.041-1.294,9.151,9.151,0,0,1-3.951-3.574,30.141,30.141,0,0,0,3.416-2.78ZM90.36.619a20.962,20.962,0,0,1-5.65,8.07A10.44,10.44,0,0,1,86.218,9.82a26.073,26.073,0,0,0,5.864-8.712Zm6.185,11.644c1,1.187,2.082,2.634,3.039,4.013-3.208.152-6.483.3-9.353.405a90.075,90.075,0,0,0,4.08-8.56l-1.823-.45a63.169,63.169,0,0,1-4.018,9.094c-1.064.023-2.037.062-2.91.084l.214,1.66c3.782-.191,9.432-.45,14.784-.765.405.636.765,1.249,1.041,1.761l1.553-.872a47.45,47.45,0,0,0-5.144-7.052ZM96.331,1.255a45.527,45.527,0,0,0,6.224,8.565,7.246,7.246,0,0,1,1.317-1.339A32.885,32.885,0,0,1,97.861.619Zm20.288,12.9H109.8V10.2h6.821Zm1.553,1.4V8.8H108.25V17.1H109.8V15.555ZM119.618,5.1H106.911V6.523h12.708Zm4.013-3.714H106.765V2.893h15.274V17.063c0,.405-.107.507-.512.529-.422.023-1.891.023-3.354-.023a5.7,5.7,0,0,1,.552,1.705,13.9,13.9,0,0,0,3.951-.3c.726-.276.957-.833.957-1.913Z" transform="translate(0 0)" fill="#b25d1f"/>
        </g>
      </g>
    </g>
  </g>
</svg>
