<svg xmlns="http://www.w3.org/2000/svg" width="365.797" height="191.868" viewBox="0 0 365.797 191.868">
  <g id="Group_3298" data-name="Group 3298" transform="translate(23693.5 -2090.589)">
    <g id="Group_3296" data-name="Group 3296" transform="translate(-24367.559 1848.698)">
      <path id="Polygon_4" data-name="Polygon 4" d="M8.409,2.9a2,2,0,0,1,3.439,0l6.616,11.142a2,2,0,0,1-1.72,3.021H3.513a2,2,0,0,1-1.72-3.021Z" transform="translate(931.618 413.5) rotate(90)" fill="#6c3625"/>
      <path id="Polygon_6" data-name="Polygon 6" d="M8.409,2.9a2,2,0,0,1,3.439,0l6.616,11.142a2,2,0,0,1-1.72,3.021H3.513a2,2,0,0,1-1.72-3.021Z" transform="translate(982.797 413.5) rotate(90)" fill="#6c3625"/>
      <path id="Polygon_5" data-name="Polygon 5" d="M8.409,2.9a2,2,0,0,1,3.439,0l6.616,11.142a2,2,0,0,1-1.72,3.021H3.513a2,2,0,0,1-1.72-3.021Z" transform="translate(957.207 413.5) rotate(90)" fill="#86533e"/>
    </g>
    <g id="Group_3297" data-name="Group 3297" transform="translate(-907 -81.552)">
      <path id="Path_3739" data-name="Path 3739" d="M305.36.5H13.338C6.247.5.5,6.846.5,14.673V60.06c0,7.827,5.747,14.173,12.838,14.173H33.171v59.813c0,7.827,5.747,14.173,12.837,14.173H339.285c7.09,0,12.838-6.346,12.838-14.173V88.406c0-7.828-5.747-14.173-12.838-14.173H327.2V14.673C327.2,6.846,312.45.5,305.36.5Z" transform="translate(-22777 2181.641)" fill="#fbf3ee" stroke="#6c3625" stroke-width="2"/>
      <path id="Path_3738" data-name="Path 3738" d="M303.849.5H13.276C6.22.5.5,6.846.5,14.673V60.06c0,7.827,5.72,14.173,12.776,14.173H33.013v59.813c0,7.827,5.72,14.173,12.775,14.173H337.611c7.056,0,12.776-6.346,12.776-14.173V88.406c0-7.828-5.72-14.173-12.776-14.173H325.624V14.673C325.624,6.846,310.9.5,303.849.5Z" transform="translate(-22786 2172.641)" fill="#fbf3ee" stroke="#6c3625" stroke-width="2"/>
      <rect id="Rectangle_947" data-name="Rectangle 947" width="365.296" height="148.719" transform="translate(-22786 2172.641)" fill="none"/>
      <text id="吉豆GATO網頁設計" transform="translate(-22767.434 2223)" fill="#86533e" font-size="32" font-family="YuGothicUI-Bold, Yu Gothic UI" letter-spacing="0.02em" font-weight="700"><tspan x="0" y="0">吉豆</tspan><tspan y="0" font-family="SegoeUI-Bold, Segoe UI">GATO</tspan><tspan y="0">網頁設計</tspan></text>
      <text id="服務流程怎麼走_" data-name="服務流程怎麼走? " transform="translate(-22732.434 2292)" fill="#86533e" font-size="36" font-family="YuGothicUI-Bold, Yu Gothic UI" letter-spacing="0.02em" font-weight="700"><tspan x="0" y="0">服務流程怎麼走</tspan><tspan y="0" font-family="SegoeUI-Bold, Segoe UI">? </tspan></text>
    </g>
  </g>
</svg>
