<svg xmlns="http://www.w3.org/2000/svg" width="602.242" height="555.396" viewBox="0 0 602.242 555.396">
  <g id="Group_3299" data-name="Group 3299" transform="translate(-171.865 -161.172)">
    <path id="Path_34" data-name="Path 34" d="M139.767.026c24.871,4.432,59.38,8.326,92.62,17.04,42.341,11.08,69.922,45.89,71,83.218,1.14,39.35-21.687,70.933-66.889,85.2-32.982,10.391-55.83,29.174-73,58.95-23.558,40.878-60.52,57.207-97.31,47.009C28.6,281.027.589,244.474.073,200.692c-.387-32.229.688-64.823,5.1-96.708C13.111,46.347,72.147-1.286,139.767.026" transform="matrix(0.788, 0.616, -0.616, 0.788, 448.196, 297.774)" fill="#f7cfa6"/>
    <path id="Path_35" data-name="Path 35" d="M106.626,64.236c-1.355,21.923-15.856,35.843-42.405,36.51C31.389,101.564-1.915,70.69.086,40.505,1.872,13.677,19.148.661,44.621.015c30.852-.8,61.811,29.819,62,64.221" transform="matrix(0.788, 0.616, -0.616, 0.788, 233.9, 278.778)" fill="#f7cfa6"/>
    <path id="Path_36" data-name="Path 36" d="M37.587,0c33.627.71,62.865,32.035,61.79,63.317-.882,25.559-13.941,42.835-40.447,44.664C29,110.047-1.312,75.688.044,42.771,1.141,16.394,15.513,2.194,37.587,0" transform="matrix(0.788, 0.616, -0.616, 0.788, 552.357, 163.663)" fill="#f7cfa6"/>
    <path id="Path_37" data-name="Path 37" d="M99.3,68.674c-1.571,21-13.274,38.167-40.512,39.178C30.171,108.928.546,76.462.008,45.223-.444,18.739,18.1-.732,43.037.021,72.942.925,99.9,31.561,99.3,68.674" transform="matrix(0.788, 0.616, -0.616, 0.788, 695.852, 278.559)" fill="#f7cfa6"/>
    <path id="Path_38" data-name="Path 38" d="M102.723,64.975c-1.312,21.192-13.769,37-40.921,37.952C29.853,104.045-.719,73.344.013,41.029.615,13.878,15.5.173,42.224,0c30.723-.215,59.832,29.174,60.5,64.974" transform="matrix(0.788, 0.616, -0.616, 0.788, 373.465, 161.172)" fill="#f7cfa6"/>
  </g>
</svg>
