<svg id="Group_2728" data-name="Group 2728" xmlns="http://www.w3.org/2000/svg" xmlns:xlink="http://www.w3.org/1999/xlink" width="157" height="3.842" viewBox="0 0 157 3.842">
  <defs>
    <clipPath id="clip-path">
      <rect id="Rectangle_596" data-name="Rectangle 596" width="157" height="3.842" fill="none"/>
    </clipPath>
  </defs>
  <g id="Group_2110" data-name="Group 2110" clip-path="url(#clip-path)">
    <path id="Path_2925" data-name="Path 2925" d="M0,.5C3.27.5,3.27,3.381,6.54,3.381S9.81.5,13.081.5s3.268,2.881,6.537,2.881S22.888.5,26.157.5,29.426,3.381,32.7,3.381,35.965.5,39.236.5,42.5,3.381,45.774,3.381,49.045.5,52.315.5s3.27,2.881,6.54,2.881S62.126.5,65.4.5s3.272,2.881,6.542,2.881S75.209.5,78.48.5s3.271,2.881,6.542,2.881S88.293.5,91.563.5s3.272,2.881,6.544,2.881S101.378.5,104.649.5s3.272,2.881,6.543,2.881S114.462.5,117.733.5,121,3.381,124.274,3.381,127.545.5,130.817.5s3.272,2.881,6.545,2.881S140.633.5,143.9.5s3.274,2.881,6.547,2.881S153.726.5,157,.5" transform="translate(0 -0.02)" fill="none" stroke="#86533e" stroke-miterlimit="10" stroke-width="1"/>
  </g>
</svg>
