<svg id="Group_1883" data-name="Group 1883" xmlns="http://www.w3.org/2000/svg" width="31.291" height="30.012" viewBox="0 0 31.291 30.012">
  <g id="Group_1882" data-name="Group 1882" transform="translate(0 0)">
    <path id="Path_34" data-name="Path 34" d="M23.681,14.907c1.608.287,3.839.538,5.988,1.1a5.9,5.9,0,0,1,4.59,5.38c.074,2.544-1.4,4.586-4.325,5.508a7.888,7.888,0,0,0-4.72,3.811c-1.523,2.643-3.913,3.7-6.291,3.039a6.072,6.072,0,0,1-4.274-5.867,42.084,42.084,0,0,1,.33-6.252c.513-3.726,4.33-6.806,8.7-6.721" transform="translate(-2.971 -3.928)" fill="#703f2e"/>
    <path id="Path_35" data-name="Path 35" d="M13.146,24.5c-.088,1.417-1.025,2.317-2.742,2.36-2.123.053-4.276-1.943-4.146-3.895a2.639,2.639,0,0,1,2.879-2.618A4.254,4.254,0,0,1,13.146,24.5" transform="translate(-6.252 -1.802)" fill="#703f2e"/>
    <path id="Path_36" data-name="Path 36" d="M17.052,7.013a4.211,4.211,0,0,1,3.995,4.094,2.664,2.664,0,0,1-2.615,2.888c-1.935.134-3.895-2.088-3.807-4.216a2.58,2.58,0,0,1,2.427-2.765" transform="translate(-2.98 -7.013)" fill="#703f2e"/>
    <path id="Path_37" data-name="Path 37" d="M29.585,11.555a2.51,2.51,0,0,1-2.619,2.533c-1.85.07-3.765-2.029-3.8-4.049a2.708,2.708,0,0,1,2.782-2.922c1.933.058,3.676,2.039,3.637,4.439" transform="translate(0.361 -6.973)" fill="#703f2e"/>
    <path id="Path_38" data-name="Path 38" d="M14.64,16.242A2.457,2.457,0,0,1,11.994,18.7a4.093,4.093,0,0,1-3.995-4,2.444,2.444,0,0,1,2.729-2.653,4.207,4.207,0,0,1,3.911,4.2" transform="translate(-5.569 -5.047)" fill="#703f2e"/>
  </g>
</svg>
