<svg xmlns="http://www.w3.org/2000/svg" xmlns:xlink="http://www.w3.org/1999/xlink" width="1296.281" height="2470.352" viewBox="0 0 1296.281 2470.352">
  <defs>
    <clipPath id="clip-path">
      <rect id="Rectangle_430" data-name="Rectangle 430" width="67.048" height="114.342" fill="none"/>
    </clipPath>
    <clipPath id="clip-path-2">
      <rect id="Rectangle_431" data-name="Rectangle 431" width="105.411" height="50.939" fill="none"/>
    </clipPath>
    <clipPath id="clip-path-3">
      <rect id="Rectangle_432" data-name="Rectangle 432" width="111.778" height="55.6" fill="none"/>
    </clipPath>
    <clipPath id="clip-path-4">
      <rect id="Rectangle_433" data-name="Rectangle 433" width="131.545" height="51.006" transform="translate(0 0)" fill="none"/>
    </clipPath>
    <clipPath id="clip-path-5">
      <rect id="Rectangle_434" data-name="Rectangle 434" width="118.29" height="63.7" fill="none"/>
    </clipPath>
    <clipPath id="clip-path-6">
      <rect id="Rectangle_435" data-name="Rectangle 435" width="141.629" height="50.705" fill="none"/>
    </clipPath>
    <clipPath id="clip-path-7">
      <rect id="Rectangle_436" data-name="Rectangle 436" width="142.052" height="51.126" fill="none"/>
    </clipPath>
    <clipPath id="clip-path-8">
      <rect id="Rectangle_437" data-name="Rectangle 437" width="115.04" height="72.139" fill="none"/>
    </clipPath>
    <clipPath id="clip-path-9">
      <rect id="Rectangle_438" data-name="Rectangle 438" width="72.234" height="122.371" transform="translate(0 0)" fill="none"/>
    </clipPath>
    <clipPath id="clip-path-10">
      <rect id="Rectangle_439" data-name="Rectangle 439" width="65.328" height="163.719" fill="none"/>
    </clipPath>
    <clipPath id="clip-path-11">
      <rect id="Rectangle_440" data-name="Rectangle 440" width="118.291" height="63.7" fill="none"/>
    </clipPath>
    <clipPath id="clip-path-12">
      <rect id="Rectangle_444" data-name="Rectangle 444" width="399.767" height="529.318" fill="none"/>
    </clipPath>
    <clipPath id="clip-path-13">
      <path id="Path_2588" data-name="Path 2588" d="M183.687,69.076H113.772L67.182,220.323l55.086,47.722c-8.1,10.084-12.686,22.838-14.326,35.587-1.673,13.007,3.612,26.557,12.008,36.444,2.5,2.948,9.457,6.949,12.934,8.988,9.585,5.623,19.54,13.536,23.578,24.3,3.863,10.291,3.815,21.072,3.888,31.925q.064,9.444-.253,18.89v84.914l40.892-15.673-.668-69.24q-.32-9.44-.252-18.89c.071-10.852.025-21.633,3.886-31.925,4.039-10.759,13.994-18.673,23.579-24.3,3.478-2.039,10.429-6.04,12.932-8.988,8.4-9.888,13.681-23.437,12.008-36.444-1.641-12.749-6.223-25.5-14.326-35.587l55.086-47.722L246.645,69.076Z" transform="translate(-67.182 -69.076)" fill="none"/>
    </clipPath>
    <clipPath id="clip-path-14">
      <rect id="Rectangle_445" data-name="Rectangle 445" width="37.251" height="59.426" fill="none"/>
    </clipPath>
    <clipPath id="clip-path-15">
      <rect id="Rectangle_446" data-name="Rectangle 446" width="22.939" height="22.941" fill="none"/>
    </clipPath>
    <clipPath id="clip-path-16">
      <rect id="Rectangle_447" data-name="Rectangle 447" width="81.835" height="111.225" fill="#b25d1f"/>
    </clipPath>
    <clipPath id="clip-path-17">
      <rect id="Rectangle_449" data-name="Rectangle 449" width="60.127" height="100.133" fill="none"/>
    </clipPath>
    <clipPath id="clip-path-19">
      <rect id="Rectangle_450" data-name="Rectangle 450" width="6.039" height="6.038" fill="#b25d1f"/>
    </clipPath>
    <clipPath id="clip-path-20">
      <rect id="Rectangle_451" data-name="Rectangle 451" width="29.042" height="29.043" fill="#b25d1f"/>
    </clipPath>
    <clipPath id="clip-path-21">
      <rect id="Rectangle_452" data-name="Rectangle 452" width="23.277" height="23.278" fill="#b25d1f"/>
    </clipPath>
    <clipPath id="clip-path-22">
      <rect id="Rectangle_453" data-name="Rectangle 453" width="3.01" height="3.028" fill="#b25d1f"/>
    </clipPath>
    <clipPath id="clip-path-23">
      <rect id="Rectangle_454" data-name="Rectangle 454" width="13.627" height="13.609" fill="#b25d1f"/>
    </clipPath>
    <clipPath id="clip-path-24">
      <rect id="Rectangle_455" data-name="Rectangle 455" width="7.552" height="7.553" fill="#b25d1f"/>
    </clipPath>
    <clipPath id="clip-path-25">
      <rect id="Rectangle_456" data-name="Rectangle 456" width="6.039" height="6.057" fill="#b25d1f"/>
    </clipPath>
    <clipPath id="clip-path-26">
      <rect id="Rectangle_457" data-name="Rectangle 457" width="10.891" height="10.909" fill="#b25d1f"/>
    </clipPath>
  </defs>
  <g id="Group_3309" data-name="Group 3309" transform="translate(18252.98 -8823)">
    <path id="Path_3908" data-name="Path 3908" d="M1249,0c1.455,25.323-2.5,50.665-8.4,75.416C1185.811,289.273,964.009,429.952,745.624,511.25c-43.206,16.07-87.644,30.678-132.229,43.434-22.8,6.893-59.141,16.069-82.534,22.691-33.941,9.82-67.712,20.295-100.707,32.3C285.859,661.9,128.431,745.858,62.291,875.223a256.482,256.482,0,0,0-26.413,87.585c-.358,4.763-.775,11.315-1.09,15.85.08,4.475-.1,11.5-.006,15.878,5.479,134.041,118.017,241.551,235.631,316.746,63.109,40.3,132.192,74.275,202.761,103.417,38.3,15.925,78.676,30.792,118.247,44.185,88.174,28.595,176.732,58.035,260.188,96.42,87.538,39.619,170.853,88.9,239.922,151.143,110.208,99.224,146.712,229.7,102.322,362.7-96.3,282.268-417,415.2-735.756,400.047-116.161-5.67-231.706-30.668-335.415-77.354-40.415-19.076-88.542-40.809-111.881-77.021-23.145-36.176-6.156-71.883,23.233-100.276,76.722-72.433,235.638-127.308,343.164-157.333-13.656,4.034-27.194,8.359-40.66,12.843-40.367,13.437-80.154,28.336-118.954,44.913-51.351,22.131-102.191,46.71-146.105,78.98-37.6,27.884-80.382,71.493-50.511,115.841,22.377,33.329,70.014,53.638,108.116,70.885,115.392,49.539,244.5,72.746,372.678,71.973,217.421-.915,446.11-75.126,576.952-233.28,127.9-156.2,153.424-349.171-8.732-494.586-4.23-3.684-18.106-15.534-22.661-19.478-8.931-7-18.52-14.777-27.7-21.594-11.314-8.132-25.653-18.563-37.395-26-5.26-3.489-11.8-7.9-17.1-11.037-6.934-4.138-19.647-12.161-26.29-15.832-4.473-2.563-13.431-7.554-17.9-10.1-5.155-3.127-21.543-11.471-27.3-14.563-9.937-5.354-26.733-13.254-37.134-18.416-6.844-3.169-21.918-10.035-28.39-13.026-5.674-2.428-22.771-9.86-28.776-12.425-51.547-21.561-104.614-40.747-158.038-58.475-19.022-6.289-52.43-17.031-70.967-23.456-70.74-24.413-140.979-52.577-207.009-85.7C192.192,1309.477,3.116,1168.036,7.554,980.308l.029-2.471c.034-.824.118-1.646.175-2.469l.383-4.935.775-9.867,1.427-9.809.72-4.9C24.6,866.1,76.691,795.1,142.685,740.695c85.212-70.488,190.989-119.158,299.78-155.332,45.81-15.536,97.406-28.827,144.615-40.882,51.325-13.605,102.372-29.165,152.062-46.867,217.456-77.5,438.873-212.579,499.14-422.661C1244.86,50.429,1249.592,25.268,1249,0" transform="translate(-18206 8822.997)" fill="#ffb76d"/>
    <g id="Group_3297" data-name="Group 3297" transform="matrix(0.875, -0.485, 0.485, 0.875, -17187.168, 9023.927)">
      <g id="Group_1768" data-name="Group 1768" transform="translate(0 0)">
        <g id="Group_1767" data-name="Group 1767" clip-path="url(#clip-path)">
          <path id="Path_2569" data-name="Path 2569" d="M58.382,91.142c-6.175-8.473-16.706-28.613-11.264-43.122-3.6,5.893-3.892,9.011-5.576,14.956-4.9-12.9-6.565-18.205-16.574-27.709,6.3,17.481,9.8,26.025,19.539,41.852-6.516-2.29-8.6-3.287-17.336-3.565C38.126,78.7,47.02,83.383,55.89,91.622c6.265,5.819,8.842,14.488,11.158,22.72C59.091,86.054,18.23,94.76,9.533,65.405c-3.9-13.148-3.289-21.132-1.091-34.138C10.351,19.976,10.619,7.118,0,0,4.545,3.048,14.356,7.551,19.371,9.546,45.666,20.01,58.561,37.4,58.958,66.876c.127,9.429,1.164,15.7-.431,24.441-.048-.058-.1-.114-.145-.175" transform="translate(0 0)" fill="#959a46"/>
        </g>
      </g>
    </g>
    <g id="Group_3298" data-name="Group 3298" transform="translate(-17333.09 9167.092)">
      <g id="Group_1771" data-name="Group 1771" transform="translate(0 0)">
        <g id="Group_1770" data-name="Group 1770" clip-path="url(#clip-path-2)">
          <path id="Path_2570" data-name="Path 2570" d="M636.56,279.08c-8.636-2.57-26.33-10.84-30.175-23.589.615,5.9,2.038,8.185,3.988,13.125C600.3,262.355,596.4,259.6,584.6,258.325c13.417,8.659,20.265,12.669,35.166,18.408-5.647,1.832-7.592,2.24-13.7,6.6,10.168-2.195,18.685-3.632,29.04-2.629,7.314.709,13.594,5.289,19.467,9.706-20.182-15.178-43.559,12.07-64.8-3.452-9.514-6.952-13.262-12.723-18.539-22.754-4.584-8.71-11.1-17.634-22.067-16.961,4.693-.288,13.744-2.326,18.209-3.576,23.42-6.559,41.3-1.4,56.931,18.532,5,6.377,8.978,10.117,12.446,16.922-.063-.014-.128-.025-.19-.044" transform="translate(-549.163 -240.98)" fill="#959a46"/>
        </g>
      </g>
    </g>
    <g id="Group_3299" data-name="Group 3299" transform="translate(-17615.777 9277.5)">
      <g id="Group_1774" data-name="Group 1774" transform="translate(0 0)">
        <g id="Group_1773" data-name="Group 1773" clip-path="url(#clip-path-3)">
          <path id="Path_2571" data-name="Path 2571" d="M467.442,371.41c-9.192-3.066-27.917-12.577-31.6-26.415.452,6.365,1.9,8.869,3.823,14.247-10.608-7.084-14.7-10.181-27.333-11.967,14.116,9.778,21.335,14.33,37.15,21.021-6.134,1.771-8.238,2.14-14.962,6.615,11.006-2,20.211-3.248,31.305-1.8,7.836,1.02,14.425,6.162,20.581,11.116-21.158-17.023-47.242,11.441-69.53-5.989-9.982-7.806-13.807-14.141-19.127-25.108-4.62-9.523-11.313-19.343-23.121-19.006,5.054-.144,14.854-2.016,19.7-3.2,25.4-6.226,44.435-.05,60.539,21.921,5.152,7.028,9.294,11.189,12.783,18.625-.068-.018-.137-.032-.2-.054" transform="translate(-374.627 -328.619)" fill="#959a46"/>
        </g>
      </g>
    </g>
    <g id="Group_3300" data-name="Group 3300" transform="translate(-18070.148 9568.309) rotate(11)">
      <g id="Group_1777" data-name="Group 1777" transform="translate(0 0)">
        <g id="Group_1776" data-name="Group 1776" clip-path="url(#clip-path-4)">
          <path id="Path_2572" data-name="Path 2572" d="M24.7,34.519c10.235-2.225,32.889-3.723,43.953,7.1-3.935-5.666-6.664-7.192-11.419-11.131,13.769.728,19.286,1.346,32.01-3.965-18.517-1.3-27.739-1.542-46.131.969,4.723-5.031,6.475-6.536,10.253-14.4-9.124,7.936-16.992,14.174-28.1,18.957C17.419,35.426,8.457,34.284,0,33.079,29.06,37.22,37.59-3.633,67.926.262,81.514,2.007,88.566,5.784,99.564,13.039c9.55,6.3,21.192,11.731,31.981,4.9-4.618,2.924-12.693,10.073-16.538,13.85C94.834,51.6,73.736,56.366,46.641,44.836c-8.669-3.688-14.815-5.269-22.162-10.254.072-.021.144-.046.218-.062" transform="translate(0.001 0)" fill="#959a46"/>
        </g>
      </g>
    </g>
    <g id="Group_3301" data-name="Group 3301" transform="translate(-18175.467 9777.5)">
      <g id="Group_1780" data-name="Group 1780" transform="translate(0 0)">
        <g id="Group_1779" data-name="Group 1779" clip-path="url(#clip-path-5)">
          <path id="Path_2573" data-name="Path 2573" d="M58.009,691.622c9.778-3.754,29.542-14.928,32.852-30.051-.182,6.9-1.627,9.669-3.442,15.57,11.113-8.161,15.388-11.7,28.94-14.242-14.771,11.241-22.347,16.5-39.1,24.494,6.71,1.615,9,1.913,16.476,6.419-11.982-1.629-21.983-2.53-33.892-.436-8.414,1.48-15.28,7.352-21.691,13,22.026-19.405,51.569,10.075,74.8-9.824,10.4-8.913,14.227-15.938,19.443-28.038,4.529-10.506,11.283-21.435,24.051-21.64-5.464.087-16.138-1.461-21.426-2.508-27.731-5.5-47.987,2.09-64.317,26.594-5.225,7.84-9.5,12.532-12.9,20.732.071-.023.144-.042.215-.068" transform="translate(-38.15 -642.671)" fill="#959a46"/>
        </g>
      </g>
    </g>
    <g id="Group_3302" data-name="Group 3302" transform="matrix(0.985, -0.174, 0.174, 0.985, -17873.238, 10267.343)">
      <g id="Group_1783" data-name="Group 1783" transform="translate(0 0)">
        <g id="Group_1782" data-name="Group 1782" clip-path="url(#clip-path-6)">
          <path id="Path_2574" data-name="Path 2574" d="M116.292,18.041s-11.684,4.929-36.746-7.209c0,0,5.528,7.972,11.58,11.587,0,0-11.2,4.615-37.183,2.832,0,0,39.086,5.033,44.1,1.119,0,0-4.3,7.425-2.689,11.551,0,0,5.436-5.915,9.521-9.643,0,0,8.893-10.556,22.919-9.131l13.835,1.711s-23-.361-27.326,10.912c-4.367,11.376-22.052,21.884-39.91,18.177C63.267,47.638,55.9,44.6,49,39.756c-10.887-7.641-21.8-8.8-35.105-8.975A48.1,48.1,0,0,0,0,32.428c3.752-1.089,8.874-6.757,12.346-9.107,4.639-3.139,9.424-6.067,14.353-8.732A132.355,132.355,0,0,1,57.752,2.332c16.194-4,32.184-3.373,46.449,5.975a84.564,84.564,0,0,1,12.092,9.734" transform="translate(0 0)" fill="#959a46"/>
        </g>
      </g>
    </g>
    <g id="Group_3303" data-name="Group 3303" transform="translate(-17590.686 10383.505) rotate(-16)">
      <g id="Group_1786" data-name="Group 1786" transform="translate(0 0)">
        <g id="Group_1785" data-name="Group 1785" transform="translate(0)" clip-path="url(#clip-path-7)">
          <path id="Path_2575" data-name="Path 2575" d="M116.912,20.37s-11.94,4.272-36.289-9.241c0,0,5.076,8.267,10.917,12.214,0,0-11.442,3.985-37.282.76,0,0,38.746,7.2,43.97,3.569,0,0-4.7,7.176-3.327,11.384,0,0,5.757-5.6,10.041-9.1,0,0,9.467-10.045,23.392-7.843l13.718,2.478s-22.944-1.64-27.89,9.375C109.17,45.083,90.927,54.592,73.3,49.9c-10.98-2.925-18.169-6.371-24.789-11.589-10.445-8.233-21.282-10-34.552-10.912A48.068,48.068,0,0,0,0,28.271c3.807-.878,9.235-6.254,12.833-8.407,4.807-2.876,9.747-5.535,14.816-7.92A132.313,132.313,0,0,1,59.335,1.432C75.727-1.662,91.657-.147,105.38,9.981a84.51,84.51,0,0,1,11.532,10.39" transform="translate(0 0)" fill="#959a46"/>
        </g>
      </g>
    </g>
    <g id="Group_3304" data-name="Group 3304" transform="translate(-17206.559 10591.66) rotate(-21)">
      <g id="Group_1789" data-name="Group 1789" transform="translate(0 0)">
        <g id="Group_1788" data-name="Group 1788" clip-path="url(#clip-path-8)">
          <path id="Path_2576" data-name="Path 2576" d="M91.548,62.559c-8.488-6.582-28.79-17.98-43.813-12.848C53.88,46.206,57.08,46,63.22,44.456c-13.063-5.41-18.441-7.277-27.869-17.816,17.708,6.984,26.35,10.832,42.26,21.283-2.146-6.743-3.1-8.91-3.122-17.861,4.936,11.376,9.459,20.626,17.625,29.959,5.769,6.593,14.567,9.5,22.926,12.118C86.316,63.13,96.477,21.555,66.682,11.754,53.338,7.365,45.143,7.743,31.759,9.6,20.137,11.207,6.965,11.089,0,0,2.98,4.746,7.294,14.93,9.184,20.124,19.1,47.37,36.514,61.1,66.682,62.408c9.652.417,16.037,1.671,25.039.3-.057-.052-.113-.107-.174-.153" transform="translate(0 0)" fill="#959a46"/>
        </g>
      </g>
    </g>
    <g id="Group_3305" data-name="Group 3305" transform="translate(-17093.623 10760.2) rotate(8)">
      <g id="Group_1792" data-name="Group 1792" transform="translate(0 0)">
        <g id="Group_1791" data-name="Group 1791" clip-path="url(#clip-path-9)">
          <path id="Path_2577" data-name="Path 2577" d="M63.709,98.346s-9.535-8.36-9.554-36.207c0,0-4.759,8.453-5.371,15.476,0,0-9.042-8.064-18.779-32.216,0,0,12.533,37.362,18.245,40.165,0,0-8.557-.624-11.567,2.623,0,0,7.694,2.309,12.831,4.356,0,0,13.379,3.393,18.22,16.635l4.5,13.195s-9.715-20.851-21.746-19.822c-12.141,1.037-29.315-10.287-33.775-27.972-5.438-21.558.7-41.766-9.167-62.8A48.094,48.094,0,0,0,0,0C2.617,2.9,9.953,5.033,13.583,7.133c4.85,2.8,9.572,5.829,14.121,9.1A132.262,132.262,0,0,1,52.286,38.821C62.955,51.646,69.37,66.3,67.186,83.22a84.48,84.48,0,0,1-3.478,15.127" transform="translate(0 -0.001)" fill="#959a46"/>
        </g>
      </g>
    </g>
    <g id="Group_3306" data-name="Group 3306" transform="translate(-18252.98 10927.044) rotate(-13)" opacity="0.9">
      <g id="Group_1795" data-name="Group 1795" transform="translate(0 0)">
        <g id="Group_1794" data-name="Group 1794" clip-path="url(#clip-path-10)">
          <path id="Path_2578" data-name="Path 2578" d="M26.747,136.152s-1.441-14.906,21.072-38.881c0,0-10.933,3.423-17.141,8.969,0,0-1.255-14.252,9.907-42.908,0,0-19.444,42.284-16.8,49.315,0,0-6.855-7.46-12.073-7.1,0,0,4.753,8.21,7.515,14.128,0,0,8.765,13.744,2.219,29.052l-6.8,14.992s8.509-25.8-2.673-34.646c-11.285-8.93-16.9-32.565-6.429-51.388C18.3,54.738,39.934,42.317,48.46,16.24A56.73,56.73,0,0,0,51.5,0c-.1,4.612,4.491,12.383,5.916,17.126,1.9,6.335,3.52,12.759,4.785,19.254A156.286,156.286,0,0,1,65.077,75.7c-1.2,19.664-7.536,37.466-23.1,50.253a99.963,99.963,0,0,1-15.231,10.2" transform="translate(0.001 0)" fill="#959a46"/>
        </g>
      </g>
    </g>
    <g id="Group_3307" data-name="Group 3307" transform="translate(-18053.311 9981.256)">
      <g id="Group_1798" data-name="Group 1798" transform="translate(0 0)">
        <g id="Group_1797" data-name="Group 1797" clip-path="url(#clip-path-11)">
          <path id="Path_2579" data-name="Path 2579" d="M66.944,821.943c9.778-3.754,29.542-14.928,32.852-30.051-.182,6.9-1.627,9.669-3.442,15.57,11.113-8.161,15.388-11.7,28.94-14.243-14.771,11.241-22.347,16.5-39.1,24.494,6.71,1.615,9,1.913,16.476,6.419-11.982-1.629-21.983-2.53-33.892-.436-8.414,1.48-15.28,7.352-21.691,13,22.026-19.405,51.569,10.074,74.8-9.824,10.4-8.913,14.227-15.938,19.443-28.038,4.529-10.506,11.283-21.435,24.051-21.64-5.464.087-16.138-1.461-21.426-2.509-27.731-5.5-47.987,2.09-64.317,26.594-5.225,7.84-9.5,12.532-12.9,20.732.071-.023.144-.042.215-.068" transform="translate(-47.084 -772.99)" fill="#959a46"/>
        </g>
      </g>
    </g>
    <g id="Group_3308" data-name="Group 3308" transform="translate(-18231.094 10558.998)">
      <g id="Group_1801" data-name="Group 1801" transform="translate(0 0)">
        <g id="Group_1800" data-name="Group 1800" clip-path="url(#clip-path-12)">
          <path id="Path_2581" data-name="Path 2581" d="M213.381,340.595c-4.265,1.7-31.917,14-33.108,47.09-.52,15.13-.584,34.214-.477,50.609-11.584,8.415-21.935,2.69-25.615.045.109-16.417.065-35.5-.476-50.654-1.192-33.087-28.842-45.388-33.109-47.09a45.906,45.906,0,0,1-12.559-14.715c.368.022.737.045,1.126.045,13.187,0,23.927-11.381,23.927-25.384,0-12.67-8.791-23.154-20.2-25.063a75.634,75.634,0,0,1,4.2-6.714l.737-1.011-.022-1.264c-.606-23.868,1.948-31.363,6.6-44.953,2.23-6.507,5.024-14.6,8.076-26.4.065-.23.109-.437.173-.667,9.116-.114,16.5-8.023,16.5-17.75,0-7.864-4.872-14.67-11.713-16.924-.3-10.117-2.685-14.417-3.14-15.129l-.151-.253c-23.039-30.558-16.046-57.368-13.143-65.3,15.329,3.656,19.769,19.2,19.964,19.889l.844,3.1,2.988-.621c.043,0,3.378-.69,9.029-1.242l2.425,10.186,2.512-10.53c1.666-.093,3.464-.185,5.369-.207l2.9,25.039,2.879-25.039c1.906.022,3.7.114,5.371.207l2.511,10.53,2.425-10.186c5.652.529,8.987,1.242,9.051,1.242l2.967.621.844-3.081c.194-.69,4.656-16.233,19.942-19.889,2.815,7.933,9.7,35-13.1,65.278l-.173.253c-.411.644-3.745,6.484-3.052,21.314-15.136,4.737-25.811,19.683-25.811,36.675,0,21.085,16.153,38.238,36.031,38.238a33.358,33.358,0,0,0,7.99-.966c1.255,7.082,1.668,15.129,1.364,26.558l-.022,1.264.737,1.011c.151.207,16.066,21.752,13.208,44.079-1.471,10.807-7.124,20.141-16.824,27.753" transform="translate(31.64 23.17)" fill="#fbf3ee"/>
        </g>
      </g>
      <g id="Group_1809" data-name="Group 1809" transform="translate(86.857 89.306)">
        <g id="Group_1808" data-name="Group 1808" clip-path="url(#clip-path-13)">
          <path id="Path_2582" data-name="Path 2582" d="M133.7,338.988H24.324v6.83H54c1.055.045,36.15,1.977,47.158,29.477l6.336-2.539c-4.7-11.773-13.818-21.006-26.535-26.938h61.4m0,0c3.685,1.37,28.691,11.751,29.724,39.812,1.236,32.376.023,83.6,0,84.231v5.168a20.572,20.572,0,0,0,41.139.494l.134-5.774c0-.516-1.236-51.765,0-84.119,1.078-28.241,25.816-38.42,29.725-39.812H361.608v-6.83H308.315v-.045c10.245-4.382,20.647-11.279,24.377-21.973l-6.471-2.247c-6.4,18.447-40.239,23.816-43.07,24.244H251.719c7.46-7.438,11.93-16.087,13.256-25.838,2.988-22.041-10.852-42.464-14.357-47.227.248-11.415-.247-19.547-1.707-26.917l.067-.022-.742-3.033a142.968,142.968,0,0,0-5.032-15.548l-.652-1.8c-2.135-5.954-4.674-13.143-7.46-23.186-.764-2.831-1.348-5.124-1.82-7.235a120.434,120.434,0,0,1-2.83-17.12v-.023c-1.078-13.188,1.5-18.625,1.819-19.255,30.624-38.442,14-71.9,13.257-73.312l-1.123-2.135-2.381.314c-17.66,2.4-25.255,15.862-27.816,21.884a158.785,158.785,0,0,0-42.98,0c-2.561-6.044-10.155-19.48-27.815-21.884l-2.383-.314L139.9,78.454c-.7,1.416-17.345,34.848,13.232,73.266.606,1.214,5.774,12.649-2.808,43.7-3.1,11.257-5.954,19.03-8.2,25.253-4.9,13.391-7.863,21.547-7.3,45.25-3.527,4.763-17.367,25.164-14.379,47.227,1.348,9.751,5.819,18.4,13.256,25.838M237.16,223.8c.292.786.584,1.6.877,2.359.111.336.247.7.359,1.055.292.855.584,1.663.875,2.472.112.359.225.7.359,1.078.27.853.54,1.708.787,2.561.067.247.156.494.224.742.023.089.045.18.069.269a31.821,31.821,0,0,1-6.7.719,30.549,30.549,0,0,1-9.976-59.426v.089c.247,1.955.561,3.955.944,6.022.089.516.18,1.033.269,1.527.225,1.147.45,2.27.7,3.438a19.541,19.541,0,0,0,8.066,37.342,16.4,16.4,0,0,0,3.146-.247m-6.763-20c.113.4.225.786.359,1.214.18.628.383,1.28.584,1.886.089.359.2.7.314,1.056.247.764.472,1.528.719,2.247a3.96,3.96,0,0,0,.158.472c.27.9.561,1.752.877,2.583.067.225.134.428.2.652.225.652.45,1.326.674,1.933.045.18.112.337.158.494.112.27.2.562.292.855-.247.022-.494.022-.741.022a12.707,12.707,0,0,1-6.494-23.636c.045.18.112.383.158.584.089.314.156.652.247,1.011.18.63.359,1.3.539,2,.314,1.167.63,2.269.966,3.392.112.381.225.764.337,1.167.247.7.45,1.394.652,2.067M127.2,312.229c-1.528-11.054,2-21.928,5.864-29.993a17.964,17.964,0,0,1-.383,35.925,18.249,18.249,0,0,1-4.291-.561,36.252,36.252,0,0,1-1.191-5.371M206.356,475.3a13.865,13.865,0,0,1-4.157,9.5,13.728,13.728,0,0,1-23.321-9.819v-5.1c0-.089.045-1.685.089-4.425a26.322,26.322,0,0,0,13.638,4.022,26.017,26.017,0,0,0,13.75-4.18c.045,2.741.091,4.36.091,4.4Zm-27.23-18.109c.067-4.156.134-9.077.18-14.515a30.755,30.755,0,0,0,13.5,3.214,29.1,29.1,0,0,0,13.212-3.258c.044,5.391.112,10.268.18,14.4-6.358,5.191-12.852,6.808-19.278,4.719a23.382,23.382,0,0,1-7.8-4.561m61.7-117.888c-4.427,1.663-33.118,13.684-34.354,46.014-.539,14.784-.606,33.432-.494,49.451-12.02,8.224-22.76,2.63-26.58.045.112-16.042.069-34.69-.494-49.5-1.236-32.331-29.927-44.352-34.353-46.014a45.684,45.684,0,0,1-13.032-14.379c.383.023.764.045,1.169.045a24.8,24.8,0,0,0,3.864-49.294,72.854,72.854,0,0,1,4.36-6.56l.763-.989-.022-1.236c-.63-23.321,2.022-30.646,6.852-43.924,2.314-6.358,5.213-14.267,8.38-25.793.069-.225.112-.428.18-.652a17.338,17.338,0,0,0,4.966-33.882c-.314-9.885-2.786-14.087-3.258-14.784l-.156-.247C134.707,117.75,141.964,91.553,144.975,83.8c15.907,3.572,20.513,18.761,20.715,19.434l.875,3.033,3.1-.606c.044,0,3.5-.674,9.368-1.213l2.517,9.952,2.606-10.29c1.73-.091,3.594-.18,5.571-.2l3.011,24.466,2.988-24.466c1.978.022,3.842.111,5.572.2l2.606,10.29,2.516-9.952c5.864.516,9.324,1.213,9.393,1.213l3.077.606.877-3.01c.2-.675,4.83-15.862,20.692-19.436,2.922,7.752,10.066,34.2-13.592,63.786l-.18.247c-.428.63-3.888,6.336-3.169,20.828a37.365,37.365,0,0,0,10.605,73.2,36.613,36.613,0,0,0,8.29-.944c1.3,6.921,1.73,14.784,1.416,25.95l-.022,1.236.764.989c.156.2,16.67,21.253,13.7,43.07-1.527,10.56-7.391,19.681-17.456,27.118M158.815,189.534a124.121,124.121,0,0,0,3.078-19.547,10.514,10.514,0,0,1-3.078,19.547" transform="translate(-79.733 -66.955)" fill="#b25d1f"/>
          <g id="Group_1804" data-name="Group 1804" transform="translate(123.725 108.671)" opacity="0">
            <g id="Group_1803" data-name="Group 1803">
              <g id="Group_1802" data-name="Group 1802" clip-path="url(#clip-path-14)">
                <path id="Path_2583" data-name="Path 2583" d="M200.132,211.839a31.821,31.821,0,0,1-6.7.719,30.549,30.549,0,0,1-9.976-59.426v.089c.248,1.955.562,3.955.944,6.022.09.516.18,1.033.27,1.527.225,1.147.449,2.27.7,3.438a19.54,19.54,0,0,0,8.065,37.342,21.06,21.06,0,0,0,3.146-.247c.292.786.584,1.594.877,2.358.112.337.247.7.359,1.056.292.855.584,1.663.877,2.472.113.359.225.7.359,1.078.269.853.539,1.708.786,2.561.067.247.158.494.225.742.022.089.045.178.067.269" transform="translate(-162.881 -153.131)" fill="#fff"/>
              </g>
            </g>
          </g>
          <path id="Path_2584" data-name="Path 2584" d="M139.484,178.468a8.335,8.335,0,1,0,8.334,8.335,8.333,8.333,0,0,0-8.334-8.335m0,9.818a1.506,1.506,0,1,1,1.5-1.5,1.5,1.5,0,0,1-1.5,1.5" transform="translate(-48.449 -37.039)" fill="#b25d1f"/>
          <path id="Path_2585" data-name="Path 2585" d="M187.339,235.921A18.3,18.3,0,1,0,205.65,254.21a18.3,18.3,0,0,0-18.311-18.289m0,29.769a11.47,11.47,0,1,1,11.481-11.481,11.483,11.483,0,0,1-11.481,11.481" transform="translate(-37.349 -20.214)" fill="#b25d1f"/>
          <g id="Group_1807" data-name="Group 1807" transform="translate(138.531 222.536)" opacity="0">
            <g id="Group_1806" data-name="Group 1806">
              <g id="Group_1805" data-name="Group 1805" clip-path="url(#clip-path-15)">
                <path id="Path_2586" data-name="Path 2586" d="M197.272,252.662A11.47,11.47,0,1,1,185.792,241.2a11.487,11.487,0,0,1,11.481,11.459" transform="translate(-174.333 -241.203)" fill="#fff"/>
              </g>
            </g>
          </g>
          <path id="Path_2587" data-name="Path 2587" d="M152.27,206.76a9.009,9.009,0,1,0,9.01,9.009,9.023,9.023,0,0,0-9.01-9.009m0,11.188a2.168,2.168,0,1,1,2.18-2.18,2.212,2.212,0,0,1-2.18,2.18" transform="translate(-44.902 -28.754)" fill="#b25d1f"/>
        </g>
      </g>
      <g id="Group_1812" data-name="Group 1812" transform="translate(292.793 20.469)">
        <g id="Group_1811" data-name="Group 1811">
          <g id="Group_1810" data-name="Group 1810" clip-path="url(#clip-path-16)">
            <path id="Path_2589" data-name="Path 2589" d="M252.7,15.832a55.736,55.736,0,0,0-19.081,3.356l-7.151,2.591L233.62,24.4a50.082,50.082,0,0,1,0,94.078l-7.115,2.608,7.115,2.609A55.619,55.619,0,1,0,252.7,15.832m0,105.678a50.149,50.149,0,0,1-10.07-1,55.641,55.641,0,0,0,.018-98.127A50.073,50.073,0,1,1,252.7,121.51" transform="translate(-226.469 -15.832)" fill="#b25d1f"/>
          </g>
        </g>
      </g>
      <g id="Group_1818" data-name="Group 1818" transform="translate(308.955 26.014)" opacity="0.59">
        <g id="Group_1817" data-name="Group 1817">
          <g id="Group_1816" data-name="Group 1816" clip-path="url(#clip-path-17)">
            <g id="Group_1815" data-name="Group 1815" opacity="0">
              <g id="Group_1814" data-name="Group 1814">
                <g id="Group_1813" data-name="Group 1813" clip-path="url(#clip-path-17)">
                  <path id="Path_2590" data-name="Path 2590" d="M299.1,70.179a50.146,50.146,0,0,1-60.127,49.072,55.641,55.641,0,0,0,.018-98.126A50.13,50.13,0,0,1,299.1,70.179" transform="translate(-238.97 -20.121)" fill="#fff"/>
                </g>
              </g>
            </g>
          </g>
        </g>
      </g>
      <g id="Group_1821" data-name="Group 1821" transform="translate(184.468 3.776)">
        <g id="Group_1820" data-name="Group 1820">
          <g id="Group_1819" data-name="Group 1819" clip-path="url(#clip-path-19)">
            <path id="Path_2591" data-name="Path 2591" d="M145.692,8.959l1.076-1.952,1.952-1.058-1.952-1.077-1.076-1.951-1.058,1.951-1.952,1.077,1.952,1.058Z" transform="translate(-142.682 -2.921)" fill="#b25d1f"/>
          </g>
        </g>
      </g>
      <g id="Group_1824" data-name="Group 1824" transform="translate(45.296 93.164)">
        <g id="Group_1823" data-name="Group 1823" transform="translate(0 0)">
          <g id="Group_1822" data-name="Group 1822" clip-path="url(#clip-path-20)">
            <path id="Path_2592" data-name="Path 2592" d="M64.078,23.157,54.7,18.03l-5.144-9.4-5.126,9.4-9.394,5.126,9.394,5.126,5.126,9.4,5.144-9.4Z" transform="translate(-35.035 -8.635)" fill="#b25d1f"/>
          </g>
        </g>
      </g>
      <g id="Group_1827" data-name="Group 1827" transform="translate(96.339 176.879)">
        <g id="Group_1826" data-name="Group 1826" transform="translate(0 0)">
          <g id="Group_1825" data-name="Group 1825" clip-path="url(#clip-path-21)">
            <path id="Path_2593" data-name="Path 2593" d="M86.155,96.665l4.123-7.535,7.515-4.1L90.277,80.9l-4.123-7.517L82.05,80.9l-7.534,4.123,7.534,4.1Z" transform="translate(-74.516 -73.387)" fill="#b25d1f"/>
          </g>
        </g>
      </g>
      <g id="Group_1830" data-name="Group 1830" transform="translate(29.626 256.344)">
        <g id="Group_1829" data-name="Group 1829" transform="translate(0 0)">
          <g id="Group_1828" data-name="Group 1828" clip-path="url(#clip-path-22)">
            <path id="Path_2594" data-name="Path 2594" d="M24.429,134.851l-.547.985-.967.529.967.529.547.985.529-.985.967-.529-.967-.529Z" transform="translate(-22.915 -134.851)" fill="#b25d1f"/>
          </g>
        </g>
      </g>
      <g id="Group_1833" data-name="Group 1833" transform="translate(300.783 191.582)">
        <g id="Group_1832" data-name="Group 1832" transform="translate(0 0)">
          <g id="Group_1831" data-name="Group 1831" clip-path="url(#clip-path-23)">
            <path id="Path_2595" data-name="Path 2595" d="M239.453,161.794l2.409-4.4,4.414-2.407-4.414-2.409-2.409-4.4-2.409,4.4-4.4,2.409,4.4,2.407Z" transform="translate(-232.649 -148.185)" fill="#b25d1f"/>
          </g>
        </g>
      </g>
      <g id="Group_1836" data-name="Group 1836" transform="translate(386.176 0)">
        <g id="Group_1835" data-name="Group 1835">
          <g id="Group_1834" data-name="Group 1834" clip-path="url(#clip-path-24)">
            <path id="Path_2596" data-name="Path 2596" d="M303.807,2.445,302.475,0l-1.35,2.445L298.7,3.776l2.427,1.332,1.35,2.445,1.332-2.445,2.445-1.332Z" transform="translate(-298.699 0)" fill="#b25d1f"/>
          </g>
        </g>
      </g>
      <g id="Group_1839" data-name="Group 1839" transform="translate(393.728 125.891)">
        <g id="Group_1838" data-name="Group 1838" transform="translate(0 0)">
          <g id="Group_1837" data-name="Group 1837" clip-path="url(#clip-path-25)">
            <path id="Path_2597" data-name="Path 2597" d="M308.627,99.326l-1.076-1.952-1.059,1.952L304.54,100.4l1.952,1.076,1.059,1.952,1.076-1.952,1.952-1.076Z" transform="translate(-304.54 -97.374)" fill="#b25d1f"/>
          </g>
        </g>
      </g>
      <g id="Group_1842" data-name="Group 1842" transform="translate(0 214.787)">
        <g id="Group_1841" data-name="Group 1841" transform="translate(0 0)">
          <g id="Group_1840" data-name="Group 1840" clip-path="url(#clip-path-26)">
            <path id="Path_2598" data-name="Path 2598" d="M5.454,102.708l-1.934,3.52L0,108.163,3.52,110.1l1.934,3.52L7.37,110.1l3.52-1.934-3.52-1.934Z" transform="translate(0 -102.708)" fill="#b25d1f"/>
          </g>
        </g>
      </g>
      <rect id="Rectangle_458" data-name="Rectangle 458" width="399.767" height="529.318" transform="translate(0 0)" fill="none"/>
      <rect id="Rectangle_459" data-name="Rectangle 459" width="399.767" height="529.318" transform="translate(0 0)" fill="none"/>
    </g>
  </g>
</svg>
