<svg xmlns="http://www.w3.org/2000/svg" width="101.954" height="154.963" viewBox="0 0 101.954 154.963">
  <g id="Group_3308" data-name="Group 3308" transform="translate(-1074.607 -165.468)">
    <text id="國家定向" transform="translate(1081.084 314.431)" fill="#86533e" font-size="22" font-family="YuGothicUI-Bold, Yu Gothic UI" letter-spacing="0.02em" font-weight="700"><tspan x="0" y="0">國家定向</tspan></text>
    <g id="Group_2620" data-name="Group 2620" transform="translate(40.943 10.799)">
      <g id="Group_2615" data-name="Group 2615" transform="translate(1033.664 154.668)">
        <path id="Path_3481" data-name="Path 3481" d="M144.7,118.67c1.1,0,2.111,2.264,3.19,2.334s2.392-2.043,3.464-1.9,1.8,2.518,2.859,2.729,2.636-1.713,3.683-1.434,1.452,2.731,2.477,3.08,2.838-1.352,3.84-.937,1.077,2.9,2.05,3.379,2.989-.969,3.929-.425.687,3.014,1.59,3.618,3.089-.571,3.952.091.288,3.078,1.107,3.795,3.137-.165,3.906.6-.115,3.088.6,3.906,3.132.243,3.795,1.108-.515,3.046.091,3.952,3.072.647,3.618,1.59-.908,2.952-.425,3.93,2.962,1.042,3.379,2.05-1.287,2.806-.937,3.84,2.8,1.421,3.08,2.476-1.646,2.611-1.433,3.683,2.587,1.775,2.728,2.86-1.974,2.371-1.9,3.464,2.334,2.094,2.334,3.19-2.264,2.111-2.334,3.19,2.043,2.392,1.9,3.464-2.518,1.8-2.728,2.859,1.713,2.635,1.433,3.683-2.731,1.452-3.08,2.477,1.352,2.838.937,3.84-2.9,1.077-3.379,2.051.969,2.989.425,3.93-3.014.687-3.618,1.59.571,3.089-.091,3.951-3.077.289-3.795,1.108.165,3.137-.6,3.906-3.088-.115-3.906.6-.243,3.132-1.108,3.795-3.046-.515-3.952.091-.647,3.072-1.59,3.618-2.952-.908-3.929-.425-1.043,2.961-2.05,3.379-2.806-1.288-3.84-.937-1.422,2.8-2.477,3.08-2.611-1.646-3.683-1.434-1.775,2.587-2.86,2.729-2.371-1.974-3.464-1.9-2.094,2.334-3.19,2.334-2.111-2.264-3.19-2.334-2.392,2.043-3.464,1.9-1.8-2.518-2.859-2.729-2.635,1.713-3.683,1.434-1.452-2.731-2.477-3.08-2.838,1.352-3.84.937-1.077-2.9-2.051-3.379-2.989.969-3.929.425-.687-3.014-1.59-3.618-3.089.571-3.951-.091-.289-3.077-1.108-3.795-3.137.165-3.906-.6.115-3.088-.6-3.906-3.132-.243-3.795-1.108.515-3.046-.091-3.952-3.072-.647-3.618-1.59.908-2.952.425-3.929-2.961-1.043-3.379-2.05,1.29-2.809.939-3.84-2.8-1.421-3.08-2.476,1.646-2.611,1.434-3.683-2.587-1.775-2.728-2.86,1.974-2.371,1.9-3.464-2.334-2.1-2.334-3.191,2.264-2.111,2.334-3.19-2.043-2.392-1.9-3.464,2.518-1.8,2.728-2.859-1.713-2.635-1.434-3.683,2.732-1.452,3.08-2.477-1.352-2.837-.936-3.84,2.9-1.077,3.379-2.05-.969-2.99-.425-3.93,3.014-.687,3.618-1.59-.571-3.089.092-3.951,3.077-.289,3.795-1.108-.166-3.136.6-3.9,3.088.114,3.906-.6.242-3.132,1.108-3.794,3.046.514,3.951-.091.647-3.072,1.59-3.618,2.952.908,3.929.425,1.042-2.961,2.051-3.379,2.8,1.287,3.837.936,1.421-2.8,2.477-3.08,2.61,1.646,3.683,1.434,1.774-2.587,2.859-2.729,2.371,1.974,3.464,1.9,2.093-2.334,3.19-2.334" transform="translate(-93.724 -118.67)" fill="#e38f45"/>
      </g>
      <g id="Group_2617" data-name="Group 2617" transform="translate(195.656 83.622)">
        <path id="Path_4012" data-name="Path 4012" d="M77.913,41.649A36.264,36.264,0,1,1,41.65,5.385,36.264,36.264,0,0,1,77.913,41.649Z" transform="translate(847.459 80.493)" fill="none" stroke="#d67236" stroke-miterlimit="10" stroke-width="2"/>
        <g id="Group_2618" data-name="Group 2618" transform="translate(0.36)">
          <line id="Line_168" data-name="Line 168" y2="6.869" transform="translate(888.985 82.327)" fill="none" stroke="#d67236" stroke-linecap="round" stroke-miterlimit="10" stroke-width="2"/>
          <line id="Line_169" data-name="Line 169" y2="6.869" transform="translate(888.985 154.854)" fill="none" stroke="#d67236" stroke-linecap="round" stroke-miterlimit="10" stroke-width="2"/>
        </g>
        <g id="Group_2619" data-name="Group 2619" transform="translate(0 0.271)">
          <line id="Line_170" data-name="Line 170" x1="6.869" transform="translate(921.815 122.107)" fill="none" stroke="#d67236" stroke-linecap="round" stroke-miterlimit="10" stroke-width="2"/>
          <line id="Line_171" data-name="Line 171" x1="6.869" transform="translate(849.287 122.107)" fill="none" stroke="#d67236" stroke-linecap="round" stroke-miterlimit="10" stroke-width="2"/>
        </g>
        <path id="Path_4013" data-name="Path 4013" d="M61.552,44.12A17.432,17.432,0,1,1,44.12,26.688,17.432,17.432,0,0,1,61.552,44.12" transform="translate(844.866 77.905)" fill="#d67236"/>
        <g id="Group_2616" data-name="Group 2616" transform="translate(870.65 103.689)">
          <path id="Path_4014" data-name="Path 4014" d="M44,62.337A18.336,18.336,0,1,1,62.335,44,18.356,18.356,0,0,1,44,62.337m0-34.865A16.529,16.529,0,1,0,60.529,44,16.547,16.547,0,0,0,44,27.472" transform="translate(-25.666 -25.665)" fill="#e38f45"/>
          <path id="Path_4015" data-name="Path 4015" d="M60.926,46.923H26.789a.595.595,0,0,1,0-1.189H60.926a.595.595,0,0,1,0,1.189" transform="translate(-25.73 -27.992)" fill="#e38f45"/>
          <path id="Path_4016" data-name="Path 4016" d="M46.328,61.782a.582.582,0,0,1-.595-.568V27.256a.6.6,0,0,1,1.189,0V61.214a.581.581,0,0,1-.594.568" transform="translate(-27.993 -25.784)" fill="#e38f45"/>
          <path id="Path_4017" data-name="Path 4017" d="M43.135,61.729a.594.594,0,0,1-.444-.2c-5.614-6.232-8.251-12.686-7.838-19.18.607-9.585,7.594-15.719,7.891-15.975a.6.6,0,0,1,.838.057.583.583,0,0,1-.057.83c-.069.06-6.917,6.087-7.487,15.176-.387,6.164,2.15,12.324,7.54,18.309a.585.585,0,0,1-.048.831.6.6,0,0,1-.4.149" transform="translate(-26.727 -25.731)" fill="#e38f45"/>
          <path id="Path_4018" data-name="Path 4018" d="M48.508,61.729a.6.6,0,0,1-.4-.149.585.585,0,0,1-.048-.831c5.39-5.985,7.927-12.145,7.54-18.309-.57-9.089-7.418-15.116-7.487-15.176a.583.583,0,0,1-.057-.83.6.6,0,0,1,.838-.057c.3.256,7.284,6.391,7.891,15.975.413,6.494-2.224,12.947-7.838,19.18a.594.594,0,0,1-.444.2" transform="translate(-28.246 -25.731)" fill="#e38f45"/>
        </g>
        <path id="Path_4019" data-name="Path 4019" d="M72.5,42.467A30.029,30.029,0,1,1,42.467,12.438,30.029,30.029,0,0,1,72.5,42.467Z" transform="translate(846.518 79.558)" fill="none" stroke="#d67236" stroke-linecap="round" stroke-miterlimit="10" stroke-width="2" stroke-dasharray="4 9.699"/>
        <rect id="Rectangle_854" data-name="Rectangle 854" width="82.049" height="82.049" transform="translate(847.961 81)" fill="none"/>
      </g>
    </g>
  </g>
</svg>
