<svg xmlns="http://www.w3.org/2000/svg" xmlns:xlink="http://www.w3.org/1999/xlink" width="321.471" height="847.208" viewBox="0 0 321.471 847.208">
  <defs>
    <linearGradient id="linear-gradient" x1="0.423" y1="0.024" x2="0.162" y2="0.867" gradientUnits="objectBoundingBox">
      <stop offset="0" stop-color="#ec9b43"/>
      <stop offset="1" stop-color="#ffcf97"/>
    </linearGradient>
    <filter id="Path_3942" x="0" y="0" width="321.471" height="847.208" filterUnits="userSpaceOnUse">
      <feOffset dy="12" input="SourceAlpha"/>
      <feGaussianBlur stdDeviation="10" result="blur"/>
      <feFlood flood-color="#e68c48"/>
      <feComposite operator="in" in2="blur"/>
      <feComposite in="SourceGraphic"/>
    </filter>
  </defs>
  <g transform="matrix(1, 0, 0, 1, 0, 0)" filter="url(#Path_3942)">
    <path id="Path_3942-2" data-name="Path 3942" d="M355.17,960.54c-8.648-4.275-26.572,8.609-34.929,3.777s-6.109-26.788-14.136-32.163-27.459,5.074-35.121-.809-2.569-27.356-9.847-33.731-27.883,1.464-34.722-5.37,1.021-27.449-5.365-34.717-27.844-2.16-33.731-9.847,4.576-27.079-.809-35.126S159.2,806.8,154.347,798.418s8.072-26.241,3.777-34.929-26.32-9.27-30.038-18.224,11.469-24.969,8.348-34.135c-3.1-9.122-24.875-12.632-27.38-22.011-2.485-9.3,14.629-23.209,12.746-32.74-1.869-9.442-22.992-15.778-24.249-25.423-1.243-9.531,17.543-21.079,16.917-30.792-.616-9.6-20.744-18.623-20.744-28.366s20.127-18.766,20.744-28.352c.626-9.713-18.16-21.261-16.917-30.792,1.252-9.639,22.381-15.981,24.249-25.418,1.884-9.531-15.231-23.426-12.746-32.74,2.5-9.383,24.284-12.9,27.38-22.016,3.121-9.186-12.021-25.221-8.323-34.13s25.763-9.576,30.033-18.224-8.609-26.576-3.777-34.934,26.793-6.109,32.163-14.136-5.074-27.459.814-35.121,27.351-2.569,33.731-9.847-1.474-27.873,5.365-34.7,27.449,1.016,34.722-5.37,2.155-27.839,9.847-33.726,27.074,4.571,35.121-.814,5.749-27.311,14.136-32.163,26.241,8.072,34.929,3.777" transform="translate(-63.72 -160.21)" fill="url(#linear-gradient)"/>
  </g>
</svg>
