<svg xmlns="http://www.w3.org/2000/svg" width="101.954" height="180.558" viewBox="0 0 101.954 180.558">
  <g id="Group_3311" data-name="Group 3311" transform="translate(-1075 -743.68)">
    <text id="時間定向" transform="translate(1081 767.68)" fill="#86533e" font-size="22" font-family="YuGothicUI-Bold, Yu Gothic UI" letter-spacing="0.02em" font-weight="700"><tspan x="0" y="0">時間定向</tspan></text>
    <g id="Group_2627" data-name="Group 2627" transform="translate(-8695.438 -4238.187)">
      <g id="Group_2615" data-name="Group 2615" transform="translate(9770.438 5060.468)">
        <path id="Path_3481" data-name="Path 3481" d="M144.7,118.67c1.1,0,2.111,2.264,3.19,2.334s2.392-2.043,3.464-1.9,1.8,2.518,2.859,2.729,2.636-1.713,3.683-1.434,1.452,2.731,2.477,3.08,2.838-1.352,3.84-.937,1.077,2.9,2.05,3.379,2.989-.969,3.929-.425.687,3.014,1.59,3.618,3.089-.571,3.952.091.288,3.078,1.107,3.795,3.137-.165,3.906.6-.115,3.088.6,3.906,3.132.243,3.795,1.108-.515,3.046.091,3.952,3.072.647,3.618,1.59-.908,2.952-.425,3.93,2.962,1.042,3.379,2.05-1.287,2.806-.937,3.84,2.8,1.421,3.08,2.476-1.646,2.611-1.433,3.683,2.587,1.775,2.728,2.86-1.974,2.371-1.9,3.464,2.334,2.094,2.334,3.19-2.264,2.111-2.334,3.19,2.043,2.392,1.9,3.464-2.518,1.8-2.728,2.859,1.713,2.635,1.433,3.683-2.731,1.452-3.08,2.477,1.352,2.838.937,3.84-2.9,1.077-3.379,2.051.969,2.989.425,3.93-3.014.687-3.618,1.59.571,3.089-.091,3.951-3.077.289-3.795,1.108.165,3.137-.6,3.906-3.088-.115-3.906.6-.243,3.132-1.108,3.795-3.046-.515-3.952.091-.647,3.072-1.59,3.618-2.952-.908-3.929-.425-1.043,2.961-2.05,3.379-2.806-1.288-3.84-.937-1.422,2.8-2.477,3.08-2.611-1.646-3.683-1.434-1.775,2.587-2.86,2.729-2.371-1.974-3.464-1.9-2.094,2.334-3.19,2.334-2.111-2.264-3.19-2.334-2.392,2.043-3.464,1.9-1.8-2.518-2.859-2.729-2.635,1.713-3.683,1.434-1.452-2.731-2.477-3.08-2.838,1.352-3.84.937-1.077-2.9-2.051-3.379-2.989.969-3.929.425-.687-3.014-1.59-3.618-3.089.571-3.951-.091-.289-3.077-1.108-3.795-3.137.165-3.906-.6.115-3.088-.6-3.906-3.132-.243-3.795-1.108.515-3.046-.091-3.952-3.072-.647-3.618-1.59.908-2.952.425-3.929-2.961-1.043-3.379-2.05,1.29-2.809.939-3.84-2.8-1.421-3.08-2.476,1.646-2.611,1.434-3.683-2.587-1.775-2.728-2.86,1.974-2.371,1.9-3.464-2.334-2.1-2.334-3.191,2.264-2.111,2.334-3.19-2.043-2.392-1.9-3.464,2.518-1.8,2.728-2.859-1.713-2.635-1.434-3.683,2.732-1.452,3.08-2.477-1.352-2.837-.936-3.84,2.9-1.077,3.379-2.05-.969-2.99-.425-3.93,3.014-.687,3.618-1.59-.571-3.089.092-3.951,3.077-.289,3.795-1.108-.166-3.136.6-3.9,3.088.114,3.906-.6.242-3.132,1.108-3.794,3.046.514,3.951-.091.647-3.072,1.59-3.618,2.952.908,3.929.425,1.042-2.961,2.051-3.379,2.8,1.287,3.837.936,1.421-2.8,2.477-3.08,2.61,1.646,3.683,1.434,1.774-2.587,2.859-2.729,2.371,1.974,3.464,1.9,2.093-2.334,3.19-2.334" transform="translate(-93.724 -118.67)" fill="#e38f45"/>
      </g>
      <g id="Group_2626" data-name="Group 2626" transform="translate(-111.805 -74.552)">
        <path id="Rectangle_868" data-name="Rectangle 868" d="M2.9,0H60.631a2.9,2.9,0,0,1,2.9,2.9v44.51a2.9,2.9,0,0,1-2.9,2.9H2.9a2.9,2.9,0,0,1-2.9-2.9V2.9A2.9,2.9,0,0,1,2.9,0Z" transform="translate(9898.391 5162.352)" fill="#e38f45" stroke="#d67236" stroke-miterlimit="10" stroke-width="2"/>
        <line id="Line_176" data-name="Line 176" x2="61.464" transform="translate(9899.293 5174.825)" fill="none" stroke="#d67236" stroke-linecap="round" stroke-miterlimit="10" stroke-width="2"/>
        <line id="Line_177" data-name="Line 177" x2="40.233" transform="translate(9899.824 5187.51)" fill="none" stroke="#d67236" stroke-linecap="round" stroke-miterlimit="10" stroke-width="2"/>
        <line id="Line_178" data-name="Line 178" x2="40.233" transform="translate(9899.293 5199.559)" fill="none" stroke="#d67236" stroke-linecap="round" stroke-miterlimit="10" stroke-width="2"/>
        <line id="Line_179" data-name="Line 179" y2="37.366" transform="translate(9911.076 5174.825)" fill="none" stroke="#d67236" stroke-linecap="round" stroke-miterlimit="10" stroke-width="2"/>
        <line id="Line_180" data-name="Line 180" y2="37.366" transform="translate(9923.814 5174.825)" fill="none" stroke="#d67236" stroke-linecap="round" stroke-miterlimit="10" stroke-width="2"/>
        <line id="Line_181" data-name="Line 181" y2="37.366" transform="translate(9936.553 5174.825)" fill="none" stroke="#d67236" stroke-linecap="round" stroke-miterlimit="10" stroke-width="2"/>
        <line id="Line_182" data-name="Line 182" y2="37.366" transform="translate(9949.293 5174.825)" fill="none" stroke="#d67236" stroke-linecap="round" stroke-miterlimit="10" stroke-width="2"/>
        <path id="Path_4033" data-name="Path 4033" d="M78.984,50.581A16.613,16.613,0,1,1,62.37,33.967,16.614,16.614,0,0,1,78.984,50.581Z" transform="translate(9889.455 5148.978)" fill="#d67236" stroke="#d67236" stroke-linecap="round" stroke-miterlimit="10" stroke-width="2"/>
        <circle id="Ellipse_36" data-name="Ellipse 36" cx="11.73" cy="11.73" r="11.73" transform="translate(9940.096 5187.829)" fill="none" stroke="#e38f45" stroke-linecap="round" stroke-miterlimit="10" stroke-width="2"/>
        <path id="Path_4038" data-name="Path 4038" d="M65.951,45.9v8.326a.591.591,0,0,0,.59.592h8.341" transform="translate(9885.875 5146.862)" fill="none" stroke="#e38f45" stroke-linecap="round" stroke-miterlimit="10" stroke-width="2"/>
        <rect id="Rectangle_869" data-name="Rectangle 869" width="64" height="12" transform="translate(9898 5163)" fill="#d67236"/>
        <path id="Path_4034" data-name="Path 4034" d="M13.266,15.225h0a3.557,3.557,0,0,1-3.557-3.557V4.556a3.557,3.557,0,0,1,7.113,0v7.112A3.557,3.557,0,0,1,13.266,15.225Z" transform="translate(9895.846 5154.823)" fill="#e38f45" stroke="#d67236" stroke-linecap="round" stroke-miterlimit="10" stroke-width="2"/>
        <path id="Path_4035" data-name="Path 4035" d="M30.04,15.225h0a3.557,3.557,0,0,1-3.557-3.557V4.556a3.557,3.557,0,0,1,7.113,0v7.112A3.557,3.557,0,0,1,30.04,15.225Z" transform="translate(9892.873 5154.823)" fill="#e38f45" stroke="#d67236" stroke-linecap="round" stroke-miterlimit="10" stroke-width="2"/>
        <path id="Path_4036" data-name="Path 4036" d="M46.815,15.225h0a3.557,3.557,0,0,1-3.557-3.557V4.556a3.557,3.557,0,0,1,7.113,0v7.112A3.557,3.557,0,0,1,46.815,15.225Z" transform="translate(9889.898 5154.823)" fill="#e38f45" stroke="#d67236" stroke-linecap="round" stroke-miterlimit="10" stroke-width="2"/>
        <path id="Path_4037" data-name="Path 4037" d="M63.589,15.225h0a3.557,3.557,0,0,1-3.557-3.557V4.556a3.557,3.557,0,0,1,7.113,0v7.112A3.557,3.557,0,0,1,63.589,15.225Z" transform="translate(9886.924 5154.823)" fill="#e38f45" stroke="#d67236" stroke-linecap="round" stroke-miterlimit="10" stroke-width="2"/>
      </g>
    </g>
  </g>
</svg>
