<svg xmlns="http://www.w3.org/2000/svg" width="112" height="156.103" viewBox="0 0 112 156.103">
  <g id="Group_3310" data-name="Group 3310" transform="translate(-656 -768.135)">
    <text id="瀏覽器定向" transform="translate(656 792.135)" fill="#86533e" font-size="22" font-family="YuGothicUI-Bold, Yu Gothic UI" letter-spacing="0.02em" font-weight="700"><tspan x="0" y="0">瀏覽器定向</tspan></text>
    <g id="Group_2625" data-name="Group 2625" transform="translate(-8783.438 -4496.083)">
      <g id="Group_2615" data-name="Group 2615" transform="translate(9444.438 5318.364)">
        <path id="Path_3481" data-name="Path 3481" d="M144.7,118.67c1.1,0,2.111,2.264,3.19,2.334s2.392-2.043,3.464-1.9,1.8,2.518,2.859,2.729,2.636-1.713,3.683-1.434,1.452,2.731,2.477,3.08,2.838-1.352,3.84-.937,1.077,2.9,2.05,3.379,2.989-.969,3.929-.425.687,3.014,1.59,3.618,3.089-.571,3.952.091.288,3.078,1.107,3.795,3.137-.165,3.906.6-.115,3.088.6,3.906,3.132.243,3.795,1.108-.515,3.046.091,3.952,3.072.647,3.618,1.59-.908,2.952-.425,3.93,2.962,1.042,3.379,2.05-1.287,2.806-.937,3.84,2.8,1.421,3.08,2.476-1.646,2.611-1.433,3.683,2.587,1.775,2.728,2.86-1.974,2.371-1.9,3.464,2.334,2.094,2.334,3.19-2.264,2.111-2.334,3.19,2.043,2.392,1.9,3.464-2.518,1.8-2.728,2.859,1.713,2.635,1.433,3.683-2.731,1.452-3.08,2.477,1.352,2.838.937,3.84-2.9,1.077-3.379,2.051.969,2.989.425,3.93-3.014.687-3.618,1.59.571,3.089-.091,3.951-3.077.289-3.795,1.108.165,3.137-.6,3.906-3.088-.115-3.906.6-.243,3.132-1.108,3.795-3.046-.515-3.952.091-.647,3.072-1.59,3.618-2.952-.908-3.929-.425-1.043,2.961-2.05,3.379-2.806-1.288-3.84-.937-1.422,2.8-2.477,3.08-2.611-1.646-3.683-1.434-1.775,2.587-2.86,2.729-2.371-1.974-3.464-1.9-2.094,2.334-3.19,2.334-2.111-2.264-3.19-2.334-2.392,2.043-3.464,1.9-1.8-2.518-2.859-2.729-2.635,1.713-3.683,1.434-1.452-2.731-2.477-3.08-2.838,1.352-3.84.937-1.077-2.9-2.051-3.379-2.989.969-3.929.425-.687-3.014-1.59-3.618-3.089.571-3.951-.091-.289-3.077-1.108-3.795-3.137.165-3.906-.6.115-3.088-.6-3.906-3.132-.243-3.795-1.108.515-3.046-.091-3.952-3.072-.647-3.618-1.59.908-2.952.425-3.929-2.961-1.043-3.379-2.05,1.29-2.809.939-3.84-2.8-1.421-3.08-2.476,1.646-2.611,1.434-3.683-2.587-1.775-2.728-2.86,1.974-2.371,1.9-3.464-2.334-2.1-2.334-3.191,2.264-2.111,2.334-3.19-2.043-2.392-1.9-3.464,2.518-1.8,2.728-2.859-1.713-2.635-1.434-3.683,2.732-1.452,3.08-2.477-1.352-2.837-.936-3.84,2.9-1.077,3.379-2.05-.969-2.99-.425-3.93,3.014-.687,3.618-1.59-.571-3.089.092-3.951,3.077-.289,3.795-1.108-.166-3.136.6-3.9,3.088.114,3.906-.6.242-3.132,1.108-3.794,3.046.514,3.951-.091.647-3.072,1.59-3.618,2.952.908,3.929.425,1.042-2.961,2.051-3.379,2.8,1.287,3.837.936,1.421-2.8,2.477-3.08,2.61,1.646,3.683,1.434,1.774-2.587,2.859-2.729,2.371,1.974,3.464,1.9,2.093-2.334,3.19-2.334" transform="translate(-93.724 -118.67)" fill="#e38f45"/>
      </g>
      <g id="Group_2624" data-name="Group 2624" transform="translate(-137.134 86.207)">
        <rect id="Rectangle_862" data-name="Rectangle 862" width="75.097" height="46.954" rx="3.003" transform="translate(9595 5258.801)" fill="#e38f45" stroke="#d67236" stroke-miterlimit="10" stroke-width="2"/>
        <rect id="Rectangle_863" data-name="Rectangle 863" width="27.968" height="4.839" transform="translate(9618.564 5305.755)" fill="#e38f45" stroke="#d67236" stroke-miterlimit="10" stroke-width="2"/>
        <rect id="Rectangle_864" data-name="Rectangle 864" width="38.71" height="6.097" transform="translate(9613.193 5311.174)" fill="#e38f45" stroke="#d67236" stroke-miterlimit="10" stroke-width="2"/>
        <path id="Rectangle_865" data-name="Rectangle 865" d="M3.5,0H39.623a3.5,3.5,0,0,1,3.5,3.5V46.463a3.5,3.5,0,0,1-3.5,3.5H3.5a3.5,3.5,0,0,1-3.5-3.5V3.5A3.5,3.5,0,0,1,3.5,0Z" transform="translate(9610.987 5249)" fill="#d67236" stroke="#d67236" stroke-miterlimit="10" stroke-width="2"/>
        <path id="Path_4030" data-name="Path 4030" d="M41.645,5.253A1.549,1.549,0,1,1,40.1,3.7a1.548,1.548,0,0,1,1.548,1.548" transform="translate(9597.077 5248)" fill="#e38f45"/>
        <path id="Path_4031" data-name="Path 4031" d="M47.387,5.253A1.549,1.549,0,1,1,45.839,3.7a1.548,1.548,0,0,1,1.548,1.548" transform="translate(9597.077 5248)" fill="#e38f45"/>
        <path id="Path_4032" data-name="Path 4032" d="M53.129,5.253A1.549,1.549,0,1,1,51.581,3.7a1.548,1.548,0,0,1,1.548,1.548" transform="translate(9597.077 5248)" fill="#e38f45"/>
        <text id="www" transform="translate(9619.367 5281.124)" fill="#e38f45" stroke="#e38f45" stroke-width="0.5" font-size="10" font-family="SegoeUI, Segoe UI"><tspan x="0" y="0">www</tspan></text>
        <line id="Line_174" data-name="Line 174" x2="18.342" transform="translate(9614.206 5253.898)" fill="none" stroke="#e38f45" stroke-linecap="round" stroke-miterlimit="10" stroke-width="2"/>
        <line id="Line_175" data-name="Line 175" x2="42.735" transform="translate(9610.987 5258.801)" fill="none" stroke="#e38f45" stroke-linecap="round" stroke-miterlimit="10" stroke-width="2"/>
        <rect id="Rectangle_867" data-name="Rectangle 867" width="77.097" height="70.271" transform="translate(9594 5248)" fill="none"/>
      </g>
    </g>
  </g>
</svg>
