<svg xmlns="http://www.w3.org/2000/svg" xmlns:xlink="http://www.w3.org/1999/xlink" width="3441" height="3441" viewBox="0 0 3441 3441">
  <defs>
    <linearGradient id="linear-gradient" x1="0.5" x2="0.5" y2="1" gradientUnits="objectBoundingBox">
      <stop offset="0" stop-color="#ffb76d"/>
      <stop offset="1" stop-color="#fbf3ee"/>
    </linearGradient>
  </defs>
  <path id="Path_3907" data-name="Path 3907" d="M1720.5,0c40.748,0,79.613,45.38,119.643,48.2,40.606,2.863,85.469-36.573,125.236-30.9,40.26,5.737,72.3,56.168,111.6,64.677,39.708,8.6,89.743-24.028,128.363-12.707,38.953,11.42,63.446,65.92,101.184,80,38,14.179,92.2-10.938,128.857,5.83,36.859,16.859,53.3,74.305,88.684,93.667,35.535,19.444,92.769,2.324,126.7,24.177,34.036,21.918,42.13,81.118,74.441,105.343,32.373,24.273,91.462,15.452,121.987,41.924,30.553,26.5,30.18,86.243,58.764,114.827s88.33,28.211,114.827,58.765c26.472,30.524,17.651,89.613,41.923,121.986,24.226,32.311,83.425,40.4,105.343,74.441,21.852,33.935,4.733,91.169,24.176,126.7,19.363,35.386,76.808,51.825,93.668,88.684,16.767,36.657-8.35,90.856,5.829,128.857,14.081,37.737,68.582,62.23,80,101.183,11.321,38.62-21.306,88.655-12.708,128.363,8.509,39.3,58.94,71.342,64.677,111.6,5.668,39.768-33.768,84.63-30.9,125.236,2.822,40.029,48.2,78.895,48.2,119.643s-45.38,79.613-48.2,119.643c-2.863,40.606,36.573,85.469,30.9,125.236-5.737,40.26-56.168,72.3-64.677,111.6-8.6,39.708,24.028,89.743,12.707,128.363-11.42,38.953-65.92,63.446-80,101.184-14.179,38,10.938,92.2-5.83,128.857-16.859,36.859-74.3,53.3-93.667,88.684-19.444,35.534-2.324,92.769-24.177,126.7-21.918,34.036-81.118,42.13-105.343,74.441-24.273,32.373-15.452,91.462-41.924,121.987-26.5,30.553-86.243,30.18-114.827,58.764s-28.211,88.33-58.765,114.827c-30.524,26.472-89.613,17.651-121.986,41.923-32.311,24.226-40.405,83.425-74.441,105.343-33.935,21.852-91.169,4.733-126.7,24.176-35.386,19.363-51.825,76.808-88.684,93.668-36.657,16.767-90.856-8.35-128.857,5.829-37.737,14.081-62.23,68.582-101.183,80-38.62,11.321-88.655-21.306-128.363-12.708-39.3,8.509-71.342,58.94-111.6,64.677-39.768,5.668-84.63-33.768-125.236-30.9-40.029,2.822-78.895,48.2-119.643,48.2s-79.613-45.38-119.643-48.2c-40.606-2.863-85.469,36.573-125.236,30.9-40.26-5.737-72.3-56.168-111.6-64.677-39.708-8.6-89.743,24.028-128.363,12.707-38.953-11.42-63.446-65.92-101.184-80-38-14.179-92.2,10.938-128.857-5.83-36.859-16.859-53.3-74.3-88.684-93.667-35.535-19.444-92.769-2.324-126.7-24.177-34.036-21.918-42.13-81.118-74.441-105.343-32.373-24.273-91.462-15.452-121.987-41.924-30.553-26.5-30.18-86.243-58.764-114.827s-88.33-28.211-114.827-58.765c-26.472-30.524-17.651-89.613-41.923-121.987-24.226-32.31-83.425-40.4-105.343-74.44-21.852-33.935-4.733-91.169-24.176-126.7-19.363-35.386-76.808-51.825-93.668-88.684-16.767-36.657,8.35-90.856-5.829-128.857-14.081-37.737-68.582-62.23-80-101.184-11.321-38.619,21.306-88.654,12.708-128.362-8.509-39.3-58.94-71.342-64.677-111.6-5.667-39.768,33.768-84.63,30.9-125.236C45.38,1800.114,0,1761.248,0,1720.5s45.38-79.613,48.2-119.643c2.863-40.606-36.572-85.469-30.9-125.236,5.737-40.26,56.168-72.3,64.677-111.6,8.6-39.708-24.028-89.743-12.707-128.363,11.42-38.953,65.92-63.446,80-101.184,14.179-38-10.938-92.2,5.83-128.857,16.859-36.859,74.305-53.3,93.667-88.684,19.444-35.535,2.324-92.769,24.177-126.7,21.918-34.036,81.118-42.13,105.343-74.441,24.272-32.373,15.452-91.462,41.924-121.987,26.5-30.553,86.243-30.18,114.827-58.764S563.248,446.7,593.8,420.207c30.524-26.472,89.613-17.651,121.986-41.923,32.311-24.226,40.4-83.425,74.441-105.343,33.935-21.852,91.169-4.733,126.7-24.176,35.386-19.363,51.825-76.808,88.684-93.668,36.657-16.767,90.856,8.35,128.857-5.829,37.738-14.081,62.23-68.582,101.184-80,38.619-11.321,88.654,21.306,128.362,12.708,39.3-8.509,71.342-58.94,111.6-64.677,39.768-5.668,84.63,33.768,125.236,30.9C1640.886,45.38,1679.752,0,1720.5,0" fill="url(#linear-gradient)"/>
</svg>
