<svg xmlns="http://www.w3.org/2000/svg" width="665.949" height="665.95" viewBox="0 0 665.949 665.95">
  <path id="Path_3908" data-name="Path 3908" d="M332.975,0c7.158,0,13.792,14.789,20.835,15.244,7.137.461,15.623-13.345,22.627-12.432,7.086.924,11.744,16.449,18.679,17.821,7,1.385,17.223-11.192,24.058-9.365,6.893,1.842,9.472,17.844,16.177,20.12,6.752,2.291,18.536-8.833,25.081-6.119C467.013,28,467.468,44.2,473.823,47.339c6.385,3.154,19.527-6.328,25.667-2.776,6.161,3.564,4.491,19.687,10.388,23.635s20.18-3.729,25.81.6,1.885,20.1,7.223,24.786S563.4,92.5,568.424,97.526s-.743,20.171,3.945,25.513,20.452,1.585,24.785,7.223-3.36,19.9.6,25.81,20.07,4.227,23.635,10.388c3.552,6.139-5.93,19.282-2.776,25.667,3.14,6.356,19.342,6.81,22.072,13.392,2.714,6.544-8.411,18.329-6.12,25.08,2.275,6.7,18.278,9.284,20.12,16.177,1.827,6.835-10.75,17.054-9.365,24.058,1.372,6.935,16.9,11.593,17.821,18.679.913,7-12.893,15.49-12.432,22.627.455,7.043,15.244,13.677,15.244,20.835s-14.789,13.792-15.244,20.835c-.461,7.137,13.345,15.623,12.432,22.627-.924,7.086-16.449,11.744-17.821,18.679-1.385,7,11.192,17.223,9.365,24.058-1.842,6.893-17.845,9.472-20.12,16.177-2.291,6.752,8.833,18.536,6.119,25.081-2.729,6.582-18.932,7.036-22.072,13.392-3.154,6.384,6.328,19.527,2.776,25.667-3.564,6.161-19.687,4.491-23.635,10.388s3.729,20.18-.6,25.81-20.1,1.885-24.786,7.223,1.079,20.489-3.946,25.513-20.171-.743-25.513,3.945-1.585,20.452-7.223,24.785-19.9-3.36-25.81.6-4.227,20.07-10.388,23.635c-6.139,3.552-19.282-5.93-25.667-2.776-6.356,3.14-6.81,19.342-13.392,22.072-6.544,2.714-18.329-8.411-25.08-6.12-6.7,2.275-9.284,18.278-16.177,20.12-6.835,1.827-17.054-10.75-24.058-9.365-6.935,1.372-11.593,16.9-18.679,17.821-7,.913-15.49-12.893-22.627-12.432-7.043.455-13.677,15.244-20.835,15.244s-13.792-14.789-20.835-15.244c-7.137-.461-15.623,13.345-22.627,12.432-7.086-.924-11.744-16.449-18.679-17.821-7-1.385-17.223,11.192-24.058,9.365-6.893-1.842-9.472-17.845-16.177-20.12-6.752-2.291-18.536,8.833-25.081,6.119-6.582-2.729-7.036-18.932-13.392-22.072-6.385-3.154-19.527,6.328-25.667,2.776-6.161-3.564-4.491-19.687-10.388-23.635s-20.18,3.729-25.81-.6-1.885-20.1-7.223-24.786-20.489,1.079-25.513-3.946.743-20.171-3.945-25.513-20.452-1.585-24.785-7.223,3.36-19.9-.6-25.81-20.07-4.227-23.635-10.388c-3.552-6.139,5.93-19.282,2.776-25.667-3.14-6.356-19.342-6.81-22.072-13.392-2.714-6.544,8.411-18.329,6.119-25.08-2.275-6.7-18.277-9.284-20.119-16.177-1.827-6.835,10.75-17.054,9.365-24.058-1.372-6.935-16.9-11.593-17.821-18.679-.913-7,12.893-15.49,12.432-22.627C14.789,346.767,0,340.133,0,332.975s14.789-13.792,15.244-20.835C15.7,305,1.9,296.517,2.812,289.513c.924-7.086,16.449-11.744,17.821-18.679,1.385-7-11.192-17.223-9.365-24.058,1.842-6.893,17.844-9.472,20.12-16.177,2.291-6.752-8.833-18.536-6.119-25.081C28,198.937,44.2,198.482,47.339,192.127c3.154-6.385-6.328-19.527-2.776-25.667,3.564-6.161,19.687-4.491,23.635-10.388s-3.729-20.18.6-25.81,20.1-1.885,24.786-7.223S92.5,102.55,97.526,97.526s20.171.743,25.513-3.945,1.585-20.452,7.223-24.785,19.9,3.36,25.81-.6,4.227-20.07,10.388-23.635c6.139-3.552,19.282,5.93,25.667,2.776,6.356-3.14,6.81-19.342,13.392-22.072,6.544-2.714,18.329,8.411,25.08,6.12,6.7-2.275,9.284-18.277,16.177-20.12,6.835-1.827,17.054,10.75,24.058,9.365,6.935-1.372,11.593-16.9,18.679-17.821,7-.913,15.49,12.893,22.627,12.432C319.183,14.789,325.817,0,332.975,0" fill="#f7a156"/>
</svg>
