<svg xmlns="http://www.w3.org/2000/svg" width="101.954" height="156.104" viewBox="0 0 101.954 156.104">
  <g id="Group_3312" data-name="Group 3312" transform="translate(-1454 -768.134)">
    <g id="Group_2629" data-name="Group 2629" transform="translate(-8346.5 -4730.719)">
      <g id="Group_2628" data-name="Group 2628" transform="translate(310.009 224.979)">
        <g id="Group_2615" data-name="Group 2615" transform="translate(9490.491 5328.021)">
          <path id="Path_3481" data-name="Path 3481" d="M144.7,118.67c1.1,0,2.111,2.264,3.19,2.334s2.392-2.043,3.464-1.9,1.8,2.518,2.859,2.729,2.636-1.713,3.683-1.434,1.452,2.731,2.477,3.08,2.838-1.352,3.84-.937,1.077,2.9,2.05,3.379,2.989-.969,3.929-.425.687,3.014,1.59,3.618,3.089-.571,3.952.091.288,3.078,1.107,3.795,3.137-.165,3.906.6-.115,3.088.6,3.906,3.132.243,3.795,1.108-.515,3.046.091,3.952,3.072.647,3.618,1.59-.908,2.952-.425,3.93,2.962,1.042,3.379,2.05-1.287,2.806-.937,3.84,2.8,1.421,3.08,2.476-1.646,2.611-1.433,3.683,2.587,1.775,2.728,2.86-1.974,2.371-1.9,3.464,2.334,2.094,2.334,3.19-2.264,2.111-2.334,3.19,2.043,2.392,1.9,3.464-2.518,1.8-2.728,2.859,1.713,2.635,1.433,3.683-2.731,1.452-3.08,2.477,1.352,2.838.937,3.84-2.9,1.077-3.379,2.051.969,2.989.425,3.93-3.014.687-3.618,1.59.571,3.089-.091,3.951-3.077.289-3.795,1.108.165,3.137-.6,3.906-3.088-.115-3.906.6-.243,3.132-1.108,3.795-3.046-.515-3.952.091-.647,3.072-1.59,3.618-2.952-.908-3.929-.425-1.043,2.961-2.05,3.379-2.806-1.288-3.84-.937-1.422,2.8-2.477,3.08-2.611-1.646-3.683-1.434-1.775,2.587-2.86,2.729-2.371-1.974-3.464-1.9-2.094,2.334-3.19,2.334-2.111-2.264-3.19-2.334-2.392,2.043-3.464,1.9-1.8-2.518-2.859-2.729-2.635,1.713-3.683,1.434-1.452-2.731-2.477-3.08-2.838,1.352-3.84.937-1.077-2.9-2.051-3.379-2.989.969-3.929.425-.687-3.014-1.59-3.618-3.089.571-3.951-.091-.289-3.077-1.108-3.795-3.137.165-3.906-.6.115-3.088-.6-3.906-3.132-.243-3.795-1.108.515-3.046-.091-3.952-3.072-.647-3.618-1.59.908-2.952.425-3.929-2.961-1.043-3.379-2.05,1.29-2.809.939-3.84-2.8-1.421-3.08-2.476,1.646-2.611,1.434-3.683-2.587-1.775-2.728-2.86,1.974-2.371,1.9-3.464-2.334-2.1-2.334-3.191,2.264-2.111,2.334-3.19-2.043-2.392-1.9-3.464,2.518-1.8,2.728-2.859-1.713-2.635-1.434-3.683,2.732-1.452,3.08-2.477-1.352-2.837-.936-3.84,2.9-1.077,3.379-2.05-.969-2.99-.425-3.93,3.014-.687,3.618-1.59-.571-3.089.092-3.951,3.077-.289,3.795-1.108-.166-3.136.6-3.9,3.088.114,3.906-.6.242-3.132,1.108-3.794,3.046.514,3.951-.091.647-3.072,1.59-3.618,2.952.908,3.929.425,1.042-2.961,2.051-3.379,2.8,1.287,3.837.936,1.421-2.8,2.477-3.08,2.61,1.646,3.683,1.434,1.774-2.587,2.859-2.729,2.371,1.974,3.464,1.9,2.093-2.334,3.19-2.334" transform="translate(-93.724 -118.67)" fill="#e38f45"/>
        </g>
        <path id="Icon_awesome-heart" data-name="Icon awesome-heart" d="M57.112,6.032C50.342.263,40.274,1.3,34.06,7.712L31.626,10.22,29.192,7.712C22.991,1.3,12.91.263,6.14,6.032A17.739,17.739,0,0,0,4.917,31.716L28.822,56.4a3.873,3.873,0,0,0,5.6,0l23.9-24.683A17.728,17.728,0,0,0,57.112,6.032Z" transform="translate(9509.844 5349.079)" fill="#d67236"/>
      </g>
      <path id="Icon_material-people" data-name="Icon material-people" d="M31.413,19.465a5.983,5.983,0,1,0-5.983-5.983A5.958,5.958,0,0,0,31.413,19.465Zm-15.954,0a5.983,5.983,0,1,0-5.983-5.983A5.958,5.958,0,0,0,15.459,19.465Zm0,3.988c-4.647,0-13.959,2.333-13.959,6.98v4.986H29.419V30.434C29.419,25.787,20.106,23.454,15.459,23.454Zm15.954,0c-.578,0-1.236.04-1.934.1,2.313,1.675,3.929,3.929,3.929,6.88v4.986H45.373V30.434C45.373,25.787,36.06,23.454,31.413,23.454Z" transform="translate(9828.041 5582.518)" fill="#e38f45"/>
    </g>
    <text id="興趣類別" transform="translate(1460 792.134)" fill="#86533e" font-size="22" font-family="YuGothicUI-Bold, Yu Gothic UI" letter-spacing="0.02em" font-weight="700"><tspan x="0" y="0">興趣類別</tspan></text>
  </g>
</svg>
