<svg xmlns="http://www.w3.org/2000/svg" width="101.954" height="154.963" viewBox="0 0 101.954 154.963">
  <g id="Group_3309" data-name="Group 3309" transform="translate(-1455 -165.468)">
    <g id="Group_2623" data-name="Group 2623" transform="translate(-8468.607 -4255.79)">
      <g id="Group_2615" data-name="Group 2615" transform="translate(9923.607 4421.257)">
        <path id="Path_3481" data-name="Path 3481" d="M144.7,118.67c1.1,0,2.111,2.264,3.19,2.334s2.392-2.043,3.464-1.9,1.8,2.518,2.859,2.729,2.636-1.713,3.683-1.434,1.452,2.731,2.477,3.08,2.838-1.352,3.84-.937,1.077,2.9,2.05,3.379,2.989-.969,3.929-.425.687,3.014,1.59,3.618,3.089-.571,3.952.091.288,3.078,1.107,3.795,3.137-.165,3.906.6-.115,3.088.6,3.906,3.132.243,3.795,1.108-.515,3.046.091,3.952,3.072.647,3.618,1.59-.908,2.952-.425,3.93,2.962,1.042,3.379,2.05-1.287,2.806-.937,3.84,2.8,1.421,3.08,2.476-1.646,2.611-1.433,3.683,2.587,1.775,2.728,2.86-1.974,2.371-1.9,3.464,2.334,2.094,2.334,3.19-2.264,2.111-2.334,3.19,2.043,2.392,1.9,3.464-2.518,1.8-2.728,2.859,1.713,2.635,1.433,3.683-2.731,1.452-3.08,2.477,1.352,2.838.937,3.84-2.9,1.077-3.379,2.051.969,2.989.425,3.93-3.014.687-3.618,1.59.571,3.089-.091,3.951-3.077.289-3.795,1.108.165,3.137-.6,3.906-3.088-.115-3.906.6-.243,3.132-1.108,3.795-3.046-.515-3.952.091-.647,3.072-1.59,3.618-2.952-.908-3.929-.425-1.043,2.961-2.05,3.379-2.806-1.288-3.84-.937-1.422,2.8-2.477,3.08-2.611-1.646-3.683-1.434-1.775,2.587-2.86,2.729-2.371-1.974-3.464-1.9-2.094,2.334-3.19,2.334-2.111-2.264-3.19-2.334-2.392,2.043-3.464,1.9-1.8-2.518-2.859-2.729-2.635,1.713-3.683,1.434-1.452-2.731-2.477-3.08-2.838,1.352-3.84.937-1.077-2.9-2.051-3.379-2.989.969-3.929.425-.687-3.014-1.59-3.618-3.089.571-3.951-.091-.289-3.077-1.108-3.795-3.137.165-3.906-.6.115-3.088-.6-3.906-3.132-.243-3.795-1.108.515-3.046-.091-3.952-3.072-.647-3.618-1.59.908-2.952.425-3.929-2.961-1.043-3.379-2.05,1.29-2.809.939-3.84-2.8-1.421-3.08-2.476,1.646-2.611,1.434-3.683-2.587-1.775-2.728-2.86,1.974-2.371,1.9-3.464-2.334-2.1-2.334-3.191,2.264-2.111,2.334-3.19-2.043-2.392-1.9-3.464,2.518-1.8,2.728-2.859-1.713-2.635-1.434-3.683,2.732-1.452,3.08-2.477-1.352-2.837-.936-3.84,2.9-1.077,3.379-2.05-.969-2.99-.425-3.93,3.014-.687,3.618-1.59-.571-3.089.092-3.951,3.077-.289,3.795-1.108-.166-3.136.6-3.9,3.088.114,3.906-.6.242-3.132,1.108-3.794,3.046.514,3.951-.091.647-3.072,1.59-3.618,2.952.908,3.929.425,1.042-2.961,2.051-3.379,2.8,1.287,3.837.936,1.421-2.8,2.477-3.08,2.61,1.646,3.683,1.434,1.774-2.587,2.859-2.729,2.371,1.974,3.464,1.9,2.093-2.334,3.19-2.334" transform="translate(-93.724 -118.67)" fill="#e38f45"/>
      </g>
      <g id="Group_2622" data-name="Group 2622" transform="translate(145.584 54.318)">
        <rect id="Rectangle_855" data-name="Rectangle 855" width="60.109" height="37.583" rx="3.003" transform="translate(9799.1 4392)" fill="#e38f45" stroke="#d67236" stroke-miterlimit="10" stroke-width="2"/>
        <rect id="Rectangle_856" data-name="Rectangle 856" width="21.069" height="30.054" rx="1.645" transform="translate(9792.594 4413.781)" fill="#e38f45" stroke="#d67236" stroke-miterlimit="10" stroke-width="2"/>
        <path id="Path_4020" data-name="Path 4020" d="M12.818,43.72a.1.1,0,0,1-.086.007c-.53-.21-6.075-2.265-5.485,3.735.612,6.215,3.234,6.05,5.436,4.184a.108.108,0,0,1,.156.011c.436.555,2.918,3.342,4.836-2.178a.118.118,0,0,0-.1-.156c-.431-.02-1.589-.264-1.546-2.326.041-1.988,1.069-2.414,1.509-2.505a.111.111,0,0,0,.056-.184A3.82,3.82,0,0,0,12.818,43.72Z" transform="translate(9790.356 4382.585)" fill="#d67236" stroke="#d67236" stroke-miterlimit="10" stroke-width="2"/>
        <path id="Path_4021" data-name="Path 4021" d="M13.736,40.516c-.014-.547.147-2.432,2.959-3.066a.166.166,0,0,1,.2.13c.115.68.321,3.211-3,3.094A.168.168,0,0,1,13.736,40.516Z" transform="translate(9789.052 4383.725)" fill="#d67236" stroke="#d67236" stroke-miterlimit="10" stroke-width="0.75"/>
        <path id="Path_4022" data-name="Path 4022" d="M33.806,15.922l7.048-1.162v6.972H33.806Z" transform="translate(9785.046 4388.253)" fill="#d67236" stroke="#d67236" stroke-miterlimit="10" stroke-width="1"/>
        <path id="Path_4023" data-name="Path 4023" d="M33.806,25.405h7.048v7.281l-7.048-1.24Z" transform="translate(9785.046 4386.128)" fill="#d67236" stroke="#d67236" stroke-miterlimit="10" stroke-width="1"/>
        <path id="Path_4024" data-name="Path 4024" d="M45.129,14.451v6.972h9.527V13.212Z" transform="translate(9782.787 4388.563)" fill="#d67236" stroke="#d67236" stroke-miterlimit="10" stroke-width="1"/>
        <path id="Path_4025" data-name="Path 4025" d="M45.129,25.405h9.527v8.908l-9.527-1.626Z" transform="translate(9782.787 4386.128)" fill="#d67236" stroke="#d67236" stroke-miterlimit="10" stroke-width="1"/>
        <rect id="Rectangle_859" data-name="Rectangle 859" width="22.386" height="3.873" transform="translate(9817.38 4429.582)" fill="#e38f45" stroke="#d67236" stroke-miterlimit="10" stroke-width="2"/>
        <rect id="Rectangle_860" data-name="Rectangle 860" width="30.984" height="4.88" transform="translate(9813.043 4433.92)" fill="#e38f45" stroke="#d67236" stroke-miterlimit="10" stroke-width="2"/>
        <g id="Group_2621" data-name="Group 2621" transform="translate(9838.605 4408.823)">
          <path id="Rectangle_857" data-name="Rectangle 857" d="M1.935,0h22.93A1.935,1.935,0,0,1,26.8,1.935V33.076a1.936,1.936,0,0,1-1.936,1.936H1.935A1.935,1.935,0,0,1,0,33.077V1.935A1.935,1.935,0,0,1,1.935,0Z" transform="translate(0 0)" fill="#e38f45" stroke="#d67236" stroke-miterlimit="10" stroke-width="2"/>
          <rect id="Rectangle_861" data-name="Rectangle 861" width="20.45" height="26.491" rx="0.581" transform="translate(3.098 2.711)" fill="none" stroke="#d67236" stroke-miterlimit="10" stroke-width="2"/>
          <path id="Path_4026" data-name="Path 4026" d="M75.914,61.483a1.046,1.046,0,1,1-1.046-1.045,1.046,1.046,0,0,1,1.046,1.045" transform="translate(-61.546 -29.686)" fill="#d67236"/>
          <line id="Line_172" data-name="Line 172" x1="2.031" y1="2.455" transform="translate(7.576 12.043)" fill="none" stroke="#d67236" stroke-linecap="round" stroke-miterlimit="10" stroke-width="1"/>
          <line id="Line_173" data-name="Line 173" x1="2.031" y2="2.455" transform="translate(17.193 12.043)" fill="none" stroke="#d67236" stroke-linecap="round" stroke-miterlimit="10" stroke-width="1"/>
          <path id="Path_4029" data-name="Path 4029" d="M79.581,45.318v-1.38a5.662,5.662,0,0,0-11.323,0v1.38Z" transform="translate(-60.598 -25.006)" fill="#d67236" stroke="#d67236" stroke-linecap="round" stroke-miterlimit="10" stroke-width="1"/>
          <path id="Path_4027" data-name="Path 4027" d="M72.859,44.162c0,.554-.25,1-.558,1s-.559-.449-.559-1,.25-1,.559-1,.558.449.558,1" transform="translate(-61.13 -26.237)" fill="#e38f45"/>
          <path id="Path_4028" data-name="Path 4028" d="M78.428,44.162c0,.554-.25,1-.558,1s-.559-.449-.559-1,.25-1,.559-1,.558.449.558,1" transform="translate(-62.242 -26.237)" fill="#e38f45"/>
        </g>
      </g>
    </g>
    <text id="設備定向" transform="translate(1461 314.431)" fill="#86533e" font-size="22" font-family="YuGothicUI-Bold, Yu Gothic UI" letter-spacing="0.02em" font-weight="700"><tspan x="0" y="0">設備定向</tspan></text>
  </g>
</svg>
