<svg xmlns="http://www.w3.org/2000/svg" width="112" height="154.963" viewBox="0 0 112 154.963">
  <g id="Group_3307" data-name="Group 3307" transform="translate(-656.337 -165.468)">
    <g id="Group_3306" data-name="Group 3306">
      <g id="Group_2453" data-name="Group 2453" transform="translate(661.359 165.468)">
        <path id="Path_3481" data-name="Path 3481" d="M144.7,118.67c1.1,0,2.111,2.264,3.19,2.334s2.392-2.043,3.464-1.9,1.8,2.518,2.859,2.729,2.636-1.713,3.683-1.434,1.452,2.731,2.477,3.08,2.838-1.352,3.84-.937,1.077,2.9,2.05,3.379,2.989-.969,3.929-.425.687,3.014,1.59,3.618,3.089-.571,3.952.091.288,3.078,1.107,3.795,3.137-.165,3.906.6-.115,3.088.6,3.906,3.132.243,3.795,1.108-.515,3.046.091,3.952,3.072.647,3.618,1.59-.908,2.952-.425,3.93,2.962,1.042,3.379,2.05-1.287,2.806-.937,3.84,2.8,1.421,3.08,2.476-1.646,2.611-1.433,3.683,2.587,1.775,2.728,2.86-1.974,2.371-1.9,3.464,2.334,2.094,2.334,3.19-2.264,2.111-2.334,3.19,2.043,2.392,1.9,3.464-2.518,1.8-2.728,2.859,1.713,2.635,1.433,3.683-2.731,1.452-3.08,2.477,1.352,2.838.937,3.84-2.9,1.077-3.379,2.051.969,2.989.425,3.93-3.014.687-3.618,1.59.571,3.089-.091,3.951-3.077.289-3.795,1.108.165,3.137-.6,3.906-3.088-.115-3.906.6-.243,3.132-1.108,3.795-3.046-.515-3.952.091-.647,3.072-1.59,3.618-2.952-.908-3.929-.425-1.043,2.961-2.05,3.379-2.806-1.288-3.84-.937-1.422,2.8-2.477,3.08-2.611-1.646-3.683-1.434-1.775,2.587-2.86,2.729-2.371-1.974-3.464-1.9-2.094,2.334-3.19,2.334-2.111-2.264-3.19-2.334-2.392,2.043-3.464,1.9-1.8-2.518-2.859-2.729-2.635,1.713-3.683,1.434-1.452-2.731-2.477-3.08-2.838,1.352-3.84.937-1.077-2.9-2.051-3.379-2.989.969-3.929.425-.687-3.014-1.59-3.618-3.089.571-3.951-.091-.289-3.077-1.108-3.795-3.137.165-3.906-.6.115-3.088-.6-3.906-3.132-.243-3.795-1.108.515-3.046-.091-3.952-3.072-.647-3.618-1.59.908-2.952.425-3.929-2.961-1.043-3.379-2.05,1.29-2.809.939-3.84-2.8-1.421-3.08-2.476,1.646-2.611,1.434-3.683-2.587-1.775-2.728-2.86,1.974-2.371,1.9-3.464-2.334-2.1-2.334-3.191,2.264-2.111,2.334-3.19-2.043-2.392-1.9-3.464,2.518-1.8,2.728-2.859-1.713-2.635-1.434-3.683,2.732-1.452,3.08-2.477-1.352-2.837-.936-3.84,2.9-1.077,3.379-2.05-.969-2.99-.425-3.93,3.014-.687,3.618-1.59-.571-3.089.092-3.951,3.077-.289,3.795-1.108-.166-3.136.6-3.9,3.088.114,3.906-.6.242-3.132,1.108-3.794,3.046.514,3.951-.091.647-3.072,1.59-3.618,2.952.908,3.929.425,1.042-2.961,2.051-3.379,2.8,1.287,3.837.936,1.421-2.8,2.477-3.08,2.61,1.646,3.683,1.434,1.774-2.587,2.859-2.729,2.371,1.974,3.464,1.9,2.093-2.334,3.19-2.334" transform="translate(-93.724 -118.67)" fill="#e38f45"/>
      </g>
      <g id="Group_2607" data-name="Group 2607" transform="translate(-56 148.037)">
        <path id="Path_3971" data-name="Path 3971" d="M71.161,14.8H32.3a1.312,1.312,0,0,1-1.313-1.312V2.312A1.312,1.312,0,0,1,32.3,1H71.161a1.312,1.312,0,0,1,1.313,1.312V13.488A1.312,1.312,0,0,1,71.161,14.8" transform="translate(728.819 34.833)" fill="#e38f45"/>
        <path id="Rectangle_847" data-name="Rectangle 847" d="M1.575,0h38.33a1.576,1.576,0,0,1,1.576,1.576V12.225A1.575,1.575,0,0,1,39.906,13.8H1.576A1.576,1.576,0,0,1,0,12.224V1.575A1.575,1.575,0,0,1,1.575,0Z" transform="translate(759.811 35.833)" fill="none" stroke="#d67236" stroke-linecap="round" stroke-miterlimit="10" stroke-width="2"/>
        <path id="Path_3972" data-name="Path 3972" d="M39.75,11.585q.019-.146.176-1.386H38.384L38.2,11.664a.477.477,0,0,1-.526.469q-.567,0-.488-.547l.166-1.386h-.9a.491.491,0,0,1-.556-.556.492.492,0,0,1,.556-.556h1.024l.2-1.62h-.947a.5.5,0,0,1-.566-.575.5.5,0,0,1,.566-.556h1.084l.166-1.22a.474.474,0,0,1,.527-.459q.536,0,.478.537l-.137,1.142h1.542l.157-1.22a.474.474,0,0,1,.527-.459q.536,0,.478.537l-.137,1.142h.956a.491.491,0,0,1,.556.556.5.5,0,0,1-.556.575H41.273l-.186,1.62h1.005a.5.5,0,0,1,.566.556.5.5,0,0,1-.566.556H40.96l-.186,1.454a.486.486,0,0,1-.536.479q-.557,0-.488-.547M38.7,7.467,38.5,9.087h1.552l.186-1.62Z" transform="translate(728 34.222)" fill="#d67236"/>
        <path id="Path_3973" data-name="Path 3973" d="M39.75,11.585q.019-.146.176-1.386H38.384L38.2,11.664a.477.477,0,0,1-.526.469q-.567,0-.488-.547l.166-1.386h-.9a.491.491,0,0,1-.556-.556.492.492,0,0,1,.556-.556h1.024l.2-1.62h-.947a.5.5,0,0,1-.566-.575.5.5,0,0,1,.566-.556h1.084l.166-1.22a.474.474,0,0,1,.527-.459q.536,0,.478.537l-.137,1.142h1.542l.157-1.22a.474.474,0,0,1,.527-.459q.536,0,.478.537l-.137,1.142h.956a.491.491,0,0,1,.556.556.5.5,0,0,1-.556.575H41.273l-.186,1.62h1.005a.5.5,0,0,1,.566.556.5.5,0,0,1-.566.556H40.96l-.186,1.454a.486.486,0,0,1-.536.479Q39.681,12.132,39.75,11.585ZM38.7,7.467,38.5,9.087h1.552l.186-1.62Z" transform="translate(728 34.222)" fill="none" stroke="#d67236" stroke-miterlimit="10" stroke-width="0.75"/>
        <line id="Line_162" data-name="Line 162" x2="22.89" transform="translate(772.922 46.147)" fill="#e66e21"/>
        <line id="Line_163" data-name="Line 163" x2="22.89" transform="translate(772.922 46.147)" fill="none" stroke="#d67236" stroke-linecap="round" stroke-miterlimit="10" stroke-width="1.5"/>
        <path id="Path_3974" data-name="Path 3974" d="M45.884,37.317A22.442,22.442,0,1,1,23.442,14.875,22.442,22.442,0,0,1,45.884,37.317" transform="translate(733.833 32.514)" fill="#e38f45"/>
        <circle id="Ellipse_35" data-name="Ellipse 35" cx="22.442" cy="22.442" r="22.442" transform="translate(734.833 47.389)" fill="none" stroke="#d67236" stroke-miterlimit="10" stroke-width="2"/>
        <path id="Path_3975" data-name="Path 3975" d="M24.278,56.43A18.278,18.278,0,1,1,42.555,38.153,18.3,18.3,0,0,1,24.278,56.43Z" transform="translate(732.997 31.678)" fill="none" stroke="#d67236" stroke-miterlimit="10" stroke-width="2"/>
        <path id="Path_3976" data-name="Path 3976" d="M19.831,86.007V77.678a3.271,3.271,0,0,1,3.143-3.385h7.092a3.271,3.271,0,0,1,3.144,3.385v8.329" transform="translate(730.685 22.581)" fill="#d67236"/>
        <path id="Path_3977" data-name="Path 3977" d="M19.831,85.174V77.437a3.144,3.144,0,0,1,3.143-3.144h7.092a3.144,3.144,0,0,1,3.144,3.144v7.737" transform="translate(730.685 22.581)" fill="none" stroke="#d67236" stroke-linecap="round" stroke-miterlimit="10" stroke-width="2"/>
        <rect id="Rectangle_848" data-name="Rectangle 848" width="7.197" height="4.855" transform="translate(753.904 92.02)" fill="#e38f45"/>
        <rect id="Rectangle_849" data-name="Rectangle 849" width="7.197" height="4.855" transform="translate(753.904 92.02)" fill="none" stroke="#d67236" stroke-linecap="round" stroke-miterlimit="10" stroke-width="2"/>
        <path id="Path_3978" data-name="Path 3978" d="M81.9,31.737H43.047a1.312,1.312,0,0,1-1.313-1.313V19.249a1.312,1.312,0,0,1,1.313-1.312H81.9a1.312,1.312,0,0,1,1.313,1.312V30.425A1.312,1.312,0,0,1,81.9,31.737" transform="translate(727.024 32.002)" fill="#e38f45"/>
        <path id="Rectangle_850" data-name="Rectangle 850" d="M1.576,0H39.905a1.576,1.576,0,0,1,1.576,1.576V12.225A1.575,1.575,0,0,1,39.906,13.8H1.576A1.576,1.576,0,0,1,0,12.224V1.576A1.576,1.576,0,0,1,1.576,0Z" transform="translate(768.757 49.939)" fill="#d67236" stroke="#d67236" stroke-linecap="round" stroke-miterlimit="10" stroke-width="2"/>
        <path id="Path_3979" data-name="Path 3979" d="M50.492,28.522q.019-.146.176-1.386H49.126L48.94,28.6a.477.477,0,0,1-.526.469q-.567,0-.488-.547l.166-1.386h-.9a.556.556,0,1,1,0-1.113h1.024l.2-1.62h-.947a.5.5,0,0,1-.566-.575.5.5,0,0,1,.566-.556H48.55l.166-1.22a.474.474,0,0,1,.527-.459q.536,0,.478.537l-.137,1.142h1.542l.157-1.22a.474.474,0,0,1,.527-.459q.536,0,.478.537l-.137,1.142h.956a.491.491,0,0,1,.556.556.5.5,0,0,1-.556.575H52.015l-.186,1.62h1.005a.556.556,0,1,1,0,1.113H51.7l-.186,1.454a.486.486,0,0,1-.536.479q-.557,0-.488-.547M49.438,24.4l-.195,1.62h1.552l.186-1.62Z" transform="translate(726.204 31.391)" fill="#e38f45"/>
        <path id="Path_3980" data-name="Path 3980" d="M50.492,28.522q.019-.146.176-1.386H49.126L48.94,28.6a.477.477,0,0,1-.526.469q-.567,0-.488-.547l.166-1.386h-.9a.556.556,0,1,1,0-1.113h1.024l.2-1.62h-.947a.5.5,0,0,1-.566-.575.5.5,0,0,1,.566-.556H48.55l.166-1.22a.474.474,0,0,1,.527-.459q.536,0,.478.537l-.137,1.142h1.542l.157-1.22a.474.474,0,0,1,.527-.459q.536,0,.478.537l-.137,1.142h.956a.491.491,0,0,1,.556.556.5.5,0,0,1-.556.575H52.015l-.186,1.62h1.005a.556.556,0,1,1,0,1.113H51.7l-.186,1.454a.486.486,0,0,1-.536.479Q50.423,29.069,50.492,28.522ZM49.438,24.4l-.195,1.62h1.552l.186-1.62Z" transform="translate(726.204 31.391)" fill="none" stroke="#e38f45" stroke-miterlimit="10" stroke-width="0.75"/>
        <line id="Line_164" data-name="Line 164" x2="22.89" transform="translate(781.868 60.252)" fill="#e66e21"/>
        <line id="Line_165" data-name="Line 165" x2="22.89" transform="translate(781.868 60.252)" fill="none" stroke="#e38f45" stroke-linecap="round" stroke-miterlimit="10" stroke-width="1.5"/>
        <path id="Path_3981" data-name="Path 3981" d="M66.074,48.745H27.218a1.312,1.312,0,0,1-1.313-1.313V36.257a1.312,1.312,0,0,1,1.313-1.312H66.074a1.312,1.312,0,0,1,1.313,1.312V47.433a1.312,1.312,0,0,1-1.313,1.313" transform="translate(729.67 29.159)" fill="#e38f45"/>
        <path id="Rectangle_851" data-name="Rectangle 851" d="M1.576,0H39.905a1.576,1.576,0,0,1,1.576,1.576V12.225A1.575,1.575,0,0,1,39.906,13.8H1.576A1.576,1.576,0,0,1,0,12.224V1.576A1.576,1.576,0,0,1,1.576,0Z" transform="translate(755.575 64.104)" fill="none" stroke="#d67236" stroke-linecap="round" stroke-miterlimit="10" stroke-width="2"/>
        <path id="Path_3982" data-name="Path 3982" d="M34.664,45.53q.019-.146.176-1.386H33.3l-.186,1.464a.477.477,0,0,1-.526.469q-.567,0-.488-.547l.166-1.386h-.9a.556.556,0,1,1,0-1.113H32.39l.2-1.62h-.947a.5.5,0,0,1-.566-.575.5.5,0,0,1,.566-.556h1.084l.166-1.22a.474.474,0,0,1,.527-.459q.536,0,.478.537l-.137,1.142H35.3l.157-1.22a.474.474,0,0,1,.527-.459q.536,0,.478.537l-.137,1.142h.956a.491.491,0,0,1,.556.556.5.5,0,0,1-.556.575H36.187L36,43.032h1.005a.556.556,0,1,1,0,1.113H35.874L35.689,45.6a.486.486,0,0,1-.536.479q-.557,0-.488-.547M33.61,41.412l-.195,1.62h1.552l.186-1.62Z" transform="translate(728.85 28.548)" fill="#d67236"/>
        <path id="Path_3983" data-name="Path 3983" d="M34.664,45.53q.019-.146.176-1.386H33.3l-.186,1.464a.477.477,0,0,1-.526.469q-.567,0-.488-.547l.166-1.386h-.9a.556.556,0,1,1,0-1.113H32.39l.2-1.62h-.947a.5.5,0,0,1-.566-.575.5.5,0,0,1,.566-.556h1.084l.166-1.22a.474.474,0,0,1,.527-.459q.536,0,.478.537l-.137,1.142H35.3l.157-1.22a.474.474,0,0,1,.527-.459q.536,0,.478.537l-.137,1.142h.956a.491.491,0,0,1,.556.556.5.5,0,0,1-.556.575H36.187L36,43.032h1.005a.556.556,0,1,1,0,1.113H35.874L35.689,45.6a.486.486,0,0,1-.536.479Q34.6,46.077,34.664,45.53ZM33.61,41.412l-.195,1.62h1.552l.186-1.62Z" transform="translate(728.85 28.548)" fill="none" stroke="#d67236" stroke-miterlimit="10" stroke-width="0.75"/>
        <line id="Line_166" data-name="Line 166" x2="22.89" transform="translate(768.686 74.417)" fill="#e66e21"/>
        <line id="Line_167" data-name="Line 167" x2="22.89" transform="translate(768.686 74.417)" fill="none" stroke="#d67236" stroke-linecap="round" stroke-miterlimit="10" stroke-width="1.5"/>
        <rect id="Rectangle_852" data-name="Rectangle 852" width="77.071" height="73.588" transform="translate(734 35)" fill="none"/>
      </g>
    </g>
    <text id="關鍵詞定向" transform="translate(656.337 314.431)" fill="#86533e" font-size="22" font-family="YuGothicUI-Bold, Yu Gothic UI" letter-spacing="0.02em" font-weight="700"><tspan x="0" y="0">關鍵詞定向</tspan></text>
  </g>
</svg>
